<svg xmlns="http://www.w3.org/2000/svg" width="640" height="924" viewBox="0 0 640 924">
<!-- Afterclap re-ink of carry-in-boy.png: traced centrelines, hand stroke model, one colour, transparent background -->
<g fill="#1C1815">
<path d="M93.2 122.2L94.5 122.4L96.2 122.8L98.3 123.3L100.7 123.8L103.3 124.2L106.1 124.6L109 124.8L111.9 124.7L114.1 124.5L116.1 124.3L118.2 124L120.3 123.7L122.5 123.3L124.9 122.7L127.5 121.9L130.4 121.1L133.5 120.1L137.1 119L138.9 118.4L140.8 117.7L142.9 117L145 116.2L147.3 115.3L149.6 114.3L152 113.3L154.4 112.3L156.9 111.2L159.4 110.1L161.9 109L164.5 107.9L167 106.8L169.4 105.7L171.9 104.6L174.2 103.6L176.5 102.5L178.6 101.5L180.7 100.6L182.6 99.6L184.4 98.8L186.1 98L189.3 96.4L191.9 94.8L194.1 93.4L195.9 92L197.5 90.8L198.9 89.7L200.3 88.7L201.7 87.8L203.3 87L205.2 86.2L207.3 85.4L209.5 84.7L212 83.9L214.5 83.3L217.1 82.6L219.7 82L222.2 81.3L224.5 80.6L226.7 79.9L228.7 79.3L230.4 78.8L233.6 77.5L235.6 76.4L236.8 75.4L237.9 74.5L239.7 73.1L241.3 71.5L242.4 69.7L243.4 67.2L243.2 63.8L242.6 61.9L242 59.9L241.1 57.6L240.2 55.3L239.3 53.1L238.3 51.3L237.1 49.1L235.8 47.2L233.7 45.2L230.6 43.4L228.7 42.5L226.7 41.8L224.6 41.1L222.4 40.5L220 39.8L217.6 39.1L215 38.3L212.4 37.4L209.8 36.4L207.1 35.3L205.3 34.4L203.3 33.5L201.2 32.4L199 31.3L196.6 30.1L194.3 28.9L191.8 27.7L189.4 26.6L186.9 25.5L184.5 24.5L182 23.5L179.7 22.6L177.4 21.9L175.2 21.2L173 20.6L169.8 19.9L166.7 19.5L163.8 19.5L161.2 19.6L158.9 19.9L156.8 20.2L155.1 20.4L153.6 20.5L152.6 20.5L150.2 20L148.3 19.3L146.4 18.4L144.4 17.5L142.7 16.9L139.2 15.9L135.4 17.2L133.6 18.3L132 19.6L130.3 20.9L128.4 22.2L126.4 23.6L124.2 25L122.9 25.8L121.4 26.5L119.8 27.2L118.1 28.1L116.1 29L114 30.2L111.8 31.5L109.5 33L107 34.8L104.4 36.9L102.8 38.2L101.2 39.6L99.5 41.3L97.7 43L95.8 44.8L93.9 46.6L91.9 48.6L89.9 50.5L87.9 52.5L85.9 54.4L83.9 56.2L81.9 57.9L80 59.6L78.2 61.2L76.7 62.7L75.2 64.2L74 65.5L72.9 66.8L69.9 70.3L68.2 72.9L67.8 75L67.6 76.1L67 78L66.5 80.3L66 82.7L65.7 84.9L65.5 86.9L65.2 89.3L65.1 91.6L65.1 94L65.3 95.8L65.3 97.6L66 101L68.4 104.2L70 105.8L71.5 107.1L73.2 108.5L75 109.9L76.9 111.4L78.8 112.9L80.6 114.5L82.4 116L83.9 117.6L85.2 119.1L86.4 120.8L87.6 122.8L88.8 125L90 127.3L91.2 129.6L92.4 132L93.6 134.2L94.7 136.3L95.7 138.2L96.6 139.8L98.5 142.8L100.1 144.5L101.7 145.5L103.1 146.5L104.9 147.6L106.9 148.8L109 149.9L111.3 150.9L113.4 151.8L115.6 152.8L118 153.7L120.6 154.4L123.3 154.9L126.1 155L129.2 154.4L131.8 153.2L133.9 151.9L135.6 151L136.9 150.4L138.4 150.3L140.3 150.4L142.5 150.6L145.1 150.6L147.8 150.1L150.2 149.1L152.4 147.7L154.3 146.2L156.2 144.6L158.1 142.9L159.6 141.7L161 140.6L162.5 139.4L164.2 137.8L166.3 135.6L168.9 132.5L170 131L171.2 129.4L172.5 127.5L174 125.5L175.5 123.4L177.2 121.3L179 119.1L180.9 116.9L182.7 114.7L184.4 112.5L186 110.3L187.5 108.1L188.8 106L189.9 104L191 102.2L192 100.7L192.9 99.5L195.9 96.1L196.3 95.6L196.3 95.6L196.9 94.3L197 92.8L196.4 91.5L195.5 90.5L194.2 89.9L192.7 89.8L191.4 90.3L190.3 91.3L190.3 91.3L190 91.8L188 96L187.2 97.3L186.3 98.9L185.2 100.7L183.9 102.6L182.5 104.6L181 106.8L179.4 109L177.6 111.2L175.8 113.4L174 115.5L172.1 117.7L170.4 119.8L168.8 121.8L167.3 123.7L166 125.5L164.7 127L163.7 128.3L161.2 131.2L159.4 133.1L158.1 134.4L156.9 135.4L155.6 136.4L154 137.6L152.1 139.2L150.4 140.6L148.8 141.8L147.3 142.7L146 143.3L144.6 143.6L143 143.6L140.9 143.4L138.4 143.3L135.6 143.6L132.9 144.6L130.7 145.8L128.9 146.9L127.3 147.7L125.7 148L124.2 147.9L122.3 147.5L120.1 146.9L117.9 146.2L115.8 145.5L113.9 144.8L111.9 144L110 143.1L108.3 142.2L106.8 141.3L105.4 140.3L104.1 139.6L103.7 139.2L102 136.7L101.2 135.3L100.3 133.6L99.3 131.5L98.2 129.3L97.1 126.8L95.9 124.4L94.6 121.9L93.2 119.5L91.8 117.2L90.3 115.2L88.6 113.2L86.9 111.4L85 109.6L83 107.8L81.1 106.2L79.2 104.6L77.5 103.1L75.9 101.8L74.6 100.7L73.8 99.8L72.2 97.8L72.2 97.3L72.2 95.7L72.1 93.9L72.1 92.1L72.3 90L72.5 87.9L72.8 85.9L73.1 83.9L73.5 81.8L73.9 79.8L74.4 78L74.7 76.3L74.6 75.9L75.2 74.8L78 71.4L79.1 70.3L80.3 69L81.7 67.6L83.3 66L85 64.4L86.9 62.8L88.9 61.1L90.9 59.3L93 57.5L95 55.6L96.9 53.7L98.9 51.8L100.7 49.9L102.5 48.1L104.2 46.4L105.9 44.9L107.4 43.5L108.8 42.3L111.1 40.4L113.2 38.7L115.2 37.3L117.2 36L119 35L120.9 34L122.6 33.1L124.3 32.2L126 31.3L127.6 30.3L130 28.6L132.1 26.9L133.9 25.4L135.5 24L136.9 22.9L138 22.1L139.3 21.4L140.7 22.1L142.2 22.6L143.9 23.5L146.1 24.5L148.7 25.4L151.7 26L153.6 26.1L155.6 26L157.5 25.8L159.6 25.5L161.7 25.3L163.9 25.2L166.3 25.2L168.9 25.5L171.6 26.1L173.4 26.7L175.4 27.4L177.5 28.3L179.7 29.2L182 30.3L184.3 31.4L186.7 32.5L189.1 33.7L191.5 34.9L193.9 36.1L196.3 37.3L198.5 38.5L200.7 39.6L202.8 40.7L204.8 41.6L207.7 42.8L210.5 43.8L213.3 44.7L215.9 45.4L218.4 46.1L220.8 46.7L222.9 47.3L224.9 47.9L226.5 48.6L227.8 49.1L230.3 50.6L231.2 51.5L231.9 52.7L232.9 54.6L233.7 56.2L234.5 58.1L235.2 60.1L236 62.1L236.6 64L236.8 65L236.9 66.6L236.5 66.9L236 67.5L235.1 68.3L233.6 69.5L232.4 70.5L231.9 71L231 71.6L228.4 72.7L227.1 73.2L225.3 73.7L223.2 74.3L220.8 74.9L218.3 75.6L215.7 76.2L213 76.8L210.3 77.4L207.6 78L205 78.7L202.6 79.5L200.2 80.4L198.1 81.5L196.3 82.6L194.7 83.8L193.2 84.9L191.7 86.1L190.1 87.3L188.2 88.6L185.9 90.1L183 91.8L181.5 92.6L179.7 93.5L177.8 94.5L175.8 95.5L173.7 96.6L171.5 97.6L169.2 98.8L166.8 99.9L164.4 101.1L161.9 102.2L159.5 103.3L157 104.5L154.5 105.7L152.1 106.8L149.7 107.9L147.4 109L145.1 110L142.9 110.9L140.8 111.7L138.8 112.5L137 113.2L135.3 113.9L131.9 115L128.9 115.8L126.3 116.5L123.9 117L121.7 117.4L119.7 117.8L117.7 118.1L115.8 118.3L113.8 118.5L111.7 118.7L109.1 118.8L106.6 118.6L104 118.3L101.6 117.8L99.3 117.4L97.2 117L95.4 116.6L94 116.4L92.9 116.4L91.8 116.9L91.1 117.8L90.7 118.9L90.8 120L91.3 121.1L92.1 121.8Z"/>
<path d="M219.9 78.2L219.7 80.5L219.7 82.4L219.8 83.9L219.5 85.4L219.1 86.1L218 87.7L216.6 89.6L215.1 91.8L213.8 94.2L212.8 96.5L211.8 98.7L210.8 101.1L210 104L209.4 107.2L209.2 109.5L209.1 111.9L209.1 114.5L209.2 117.1L209.3 119.7L209.5 122.2L209.6 124.5L209.7 126.6L209.7 128.3L209.6 130.9L209.6 132.4L209.4 133.4L209 134.8L208.2 137.3L207.6 139L206.8 141L205.8 143.4L204.7 145.9L203.5 148.5L202.3 151.1L201.1 153.5L200 155.7L199 157.6L198.2 159.1L196.6 161.7L196.3 161.9L195.2 162.7L195.7 162.8L194.7 162.8L193.5 162.8L191.2 162.8L188.4 162.8L185.5 162.8L182.7 162.7L180.4 162.3L178.7 162.1L177.8 162.1L176.2 162.4L174.7 163.3L173.8 164.7L173.4 166.4L173.7 168.1L174.7 169.5L176.1 170.5L177.7 170.8L178.5 170.8L180.2 170.6L182.5 170.2L185.3 169.9L188.3 169.8L191.1 169.7L193.6 169.5L195.7 169.4L198.8 168.6L200.1 167L200.9 166.3L202 165L203.8 162L204.7 160.4L205.8 158.5L206.9 156.3L208.1 153.8L209.3 151.2L210.4 148.5L211.5 145.9L212.5 143.5L213.3 141.2L214 139.3L214.9 136.6L215.3 134.6L215.5 132.8L215.5 131L215.6 128.5L215.6 126.5L215.6 124.3L215.4 121.9L215.3 119.4L215.2 116.8L215.2 114.3L215.2 111.9L215.4 109.8L215.7 108L216.3 105.3L217.1 103.1L217.9 101.2L218.9 99.4L219.9 97.6L221 95.8L222.3 94L223.7 92.1L225.1 90.2L226.3 88L227.1 84.9L227.1 82.3L227.1 80.7L227.3 78.8L227.1 77.4L226.4 76.1L225.3 75.2L223.9 74.8L222.5 75L221.2 75.7L220.3 76.8Z"/>
<path d="M188.7 191.2L188.8 191.5L188.3 189.9L187.5 187.4L186.2 184.9L185.2 183.2L184 181.5L182.1 179.5L179.5 177.6L177.8 176.7L175.9 175.7L173.8 174.6L171.5 173.6L169.2 172.6L166.8 171.7L164.5 170.8L162.3 170.1L160.3 169.4L157.8 168.6L155.8 167.9L153.9 167.4L151.7 167L148.9 166.7L145.3 166.4L143.4 166.3L141.3 166.3L139 166.4L136.5 166.5L133.8 166.6L131.1 166.8L128.3 166.9L125.5 167L122.7 167L120.1 167.1L117.5 167.1L115.1 167.1L113 167.2L111.1 167.2L109.4 167.3L104.7 167.9L102.7 169.5L101.5 171.4L100.2 173.1L98.8 175.4L97.5 177.8L96.3 180L95.1 181.8L94 183.4L93.2 184.6L92.2 185.6L90.1 187.3L88.7 188.2L86.9 189.2L84.8 190.3L82.6 191.5L80.3 192.7L78 193.9L75.8 195.1L73.9 196.2L72.2 197.2L70.1 198.4L68.6 199.2L67 200.2L65.3 201.9L63.4 204.4L62.3 205.9L61.2 207.5L60 209.3L58.8 211.2L57.5 213.4L56.3 215.6L55 217.9L53.8 220.3L52.7 222.6L51.5 225L50.5 227.4L49.6 229.8L48.9 232.2L48.3 234.6L47.7 237L47.3 239.5L46.8 241.9L46.4 244.4L46 246.8L45.6 249.1L45 251.5L44.5 253.7L43.8 255.9L43 258L42.2 260.1L41.2 262.2L40.1 264.4L38.9 266.6L37.7 268.7L36.4 270.9L35.1 273L33.9 275.2L32.8 277.4L31.8 279.5L30.9 281.7L30.1 284L29.4 287.2L29 290.4L28.9 293.5L29 296.3L29.2 298.8L29.4 300.9L29.4 302.5L29.8 301.9L29.6 302.3L28 302.4L25.2 307.1L25.5 310.3L25.8 312.3L26.4 314.8L27.4 317.8L29.2 320.7L31.6 322.9L34.1 324.6L36.9 325.9L39.7 326.9L41.9 327.6L44.3 328.2L46.9 328.8L49.5 329.4L52.1 329.8L54.9 330.1L58.1 329.8L61.3 329.3L64.2 328.8L66.5 328.4L68.1 328L68.1 328L69.5 327.4L70.6 326.2L71.2 324.7L71.1 323.1L70.5 321.7L69.3 320.6L67.8 320.1L66.3 320.1L65.8 320.2L64.2 320.8L62.1 321.9L59.7 322.9L57.2 323.4L54.8 323.6L53 323.4L50.8 322.9L48.6 322.3L46.3 321.6L44.2 320.9L42.3 320.2L39.9 319.2L37.8 318.2L36.1 317.2L35 316.1L34.1 314.7L33.4 312.8L32.9 310.8L32.6 309.2L32.3 307.9L31.6 308.5L33.6 308.1L36 304.9L36.3 302.3L36.1 300.3L35.7 298L35.3 295.6L35.1 293.1L34.9 290.5L35.1 287.9L35.6 285.3L36.2 283.6L36.9 281.7L37.8 279.8L38.9 277.7L40 275.6L41.1 273.4L42.3 271.2L43.5 268.9L44.7 266.6L45.9 264.3L46.9 262L47.9 259.7L48.7 257.3L49.5 254.9L50.1 252.5L50.7 250.1L51.2 247.6L51.7 245.2L52.2 242.8L52.6 240.5L53.1 238.2L53.7 236L54.4 233.8L55.1 231.8L56 229.6L57 227.4L58 225.2L59.1 222.9L60.3 220.7L61.4 218.4L62.6 216.3L63.8 214.2L64.9 212.3L66 210.5L67 208.9L67.9 207.6L69.6 205.3L70.5 204.4L71.3 203.9L72.8 203.2L75.1 201.9L76.7 200.9L78.6 199.9L80.7 198.7L82.9 197.5L85.2 196.3L87.5 195.1L89.6 193.9L91.6 192.8L93.3 191.8L95.8 190L97.6 188.4L98.8 186.9L100.1 185.1L101.4 183.1L102.8 180.7L104 178.4L105.2 176.5L106.5 174.8L107.4 173.2L106.5 173.6L110.2 173.1L111.5 173.1L113.3 173L115.4 172.9L117.7 172.9L120.2 172.8L122.8 172.7L125.6 172.6L128.3 172.5L131.1 172.4L133.8 172.3L136.4 172.3L138.9 172.3L141.2 172.4L143.2 172.4L145 172.4L148.5 172.5L150.9 172.7L152.6 173L154.2 173.3L155.9 173.9L158.3 174.7L160.2 175.3L162.2 176L164.5 176.8L166.8 177.7L169 178.7L171.2 179.6L173.2 180.6L174.9 181.5L176.3 182.2L178.4 183.7L179.5 184.8L180.2 186L180.9 187.4L181.8 189.4L182.3 191.5L182.7 193L182.7 193.2L183.3 194.3L184.3 195L185.5 195.4L186.7 195.2L187.8 194.6L188.5 193.6L188.8 192.5Z"/>
<path d="M97.1 191.6L98.2 192.1L100 192.8L102.5 193.5L105.7 194.1L107.5 194.3L109.4 194.5L111.4 194.7L113.7 194.9L116.2 195.1L118.9 195.3L122 195.5L125.5 195.6L127.5 195.7L129.7 195.7L132 195.6L134.5 195.4L137.1 195.2L139.8 194.9L142.5 194.6L145.2 194.3L147.9 193.9L150.6 193.6L153.2 193.2L155.6 192.9L158 192.7L160.1 192.5L162 192.3L163.8 192.2L167.2 191.9L169.3 191.6L170.3 191.5L171.1 191.5L172.6 191.9L175.6 192.7L177.3 193.3L179.2 194L181.4 194.8L183.7 195.7L186.2 196.7L188.8 197.8L191.4 198.8L194.1 199.9L196.7 201.1L199.2 202.3L201.6 203.4L203.8 204.5L205.8 205.4L207.5 206.2L208.9 206.9L212.3 208.5L213 209L213.1 209.3L214.3 210.7L215.8 212.1L217 213.3L218.2 214.7L219.4 216.5L220.4 218.1L221.4 219.8L222.3 221.6L223.2 223.8L224 226.7L224.3 228.3L224.6 230.2L225 232.4L225.4 234.7L225.8 237.1L226.3 239.6L226.8 242L227.3 244.4L227.9 246.8L228.6 249L229.6 251.8L230.8 254.2L232.1 256.2L233.2 257.9L234.2 259.5L235.1 261.2L236 263.3L236.5 265L237 267.2L237.4 269.6L237.8 272.2L238.2 274.9L238.6 277.6L239 280.3L239.5 283L240.1 285.4L240.9 287.8L242.3 290.9L244 293.4L245.7 295.5L247.5 297.1L249 298.6L250.6 300.1L252.5 301.8L254.5 303.2L256.2 304.4L257.7 305.4L258.9 306.6L260.1 308.2L260.9 309.8L261.8 311.9L262.7 314.3L263.5 316.7L264.4 319.2L265.1 321.5L265.7 323.6L266.1 325.3L266.3 327.5L266.3 328.9L266 330L265.2 331.5L263.7 333.8L262.7 335.1L261.5 336.6L260 338.2L258.4 340L256.7 341.8L254.9 343.6L253.1 345.4L251.4 347L249.7 348.5L248.1 349.9L246.7 351L244.3 352.8L242.6 353.9L241.3 354.7L239.6 355.3L237.2 356.1L235.5 356.6L233.4 357.2L231 357.7L228.4 358.2L225.9 358.6L223.4 358.9L221.1 358.9L219.2 358.9L217.8 359L217.7 359L216 359.7L214.6 360.9L213.9 362.6L213.8 364.5L214.5 366.2L215.7 367.5L217.4 368.3L219.3 368.4L219.2 368.4L220.5 368.1L222.3 367.5L224.5 366.7L226.9 366.1L229.6 365.6L232.2 365.1L234.8 364.5L237.2 364L239.3 363.4L242.1 362.4L244.5 361.5L246.7 360.3L248.8 358.7L251.3 356.7L252.8 355.4L254.4 354L256.1 352.4L258 350.7L259.9 348.8L261.7 346.9L263.5 345.1L265.2 343.2L266.8 341.4L268.2 339.7L269.4 338.1L271.3 335.4L272.7 332.8L273.4 330.2L273.5 327.4L273.2 324.5L272.8 322.2L272.2 319.7L271.3 317L270.4 314.3L269.3 311.6L268.1 309L266.9 306.7L265.7 304.5L264 302.2L262 300.3L260.1 298.9L258.3 297.8L256.7 296.7L255.2 295.4L253.7 293.9L252.2 292.5L250.9 291.1L249.7 289.5L248.5 287.7L247.5 285.3L246.9 283.6L246.4 281.5L246 279.2L245.6 276.6L245.2 273.9L244.8 271.2L244.3 268.5L243.8 265.9L243.1 263.5L242.5 261.3L241.4 258.7L240.3 256.4L239.2 254.4L238.1 252.6L237.1 250.8L236.2 248.9L235.3 246.6L234.8 244.7L234.2 242.6L233.7 240.3L233.3 238L232.8 235.5L232.3 233.1L231.8 230.8L231.3 228.5L230.8 226.4L230.3 224.5L229.4 221.3L228.4 218.6L227.5 216.4L226.5 214.4L225.4 212.5L224 210.4L222.5 208.6L221 207.1L219.5 205.8L218.8 205L217.8 203.7L215.7 202.3L211.9 200.5L210.3 199.7L208.5 198.9L206.4 197.9L204.2 196.9L201.8 195.8L199.2 194.6L196.6 193.5L193.9 192.4L191.2 191.4L188.5 190.4L185.9 189.5L183.5 188.7L181.2 188L179.1 187.4L177.3 186.9L174.1 186.1L171.9 185.7L170.1 185.6L168.5 185.8L166.6 186.1L163.4 186.5L161.7 186.6L159.7 186.8L157.5 187L155.1 187.2L152.6 187.5L150 187.8L147.4 188.2L144.7 188.6L142 189L139.3 189.4L136.6 189.7L134.1 189.9L131.6 189.9L129.4 189.9L127.3 189.9L125.4 189.8L122.1 189.7L119.3 189.5L116.7 189.3L114.4 189.1L112.3 188.9L110.4 188.7L108.6 188.5L106.9 188.3L104 187.9L102 187.3L100.4 186.7L99.2 186.2L98.1 186L97 186.2L96.1 186.9L95.4 187.8L95.2 188.9L95.5 190.1L96.1 191Z"/>
<path d="M33.5 300.4L32.6 300.9L31.4 301.5L29.5 302.4L27.4 303.5L25.2 304.6L23.3 305.8L21.6 307L19.7 308.4L18 310.8L17.1 313.9L16.8 316.2L16.8 318.7L16.9 321.3L17.2 324L17.5 326.7L17.8 329.3L18.2 331.5L18.5 333.3L19 336.1L20.1 338.3L21.6 340L22.8 341.4L24.3 343L26 344.7L27.8 346.3L29.7 347.9L31.5 349.3L33.7 350.6L35.8 351.6L37.9 352.5L39.9 353.2L41.9 353.8L44.1 354.2L46.2 354.4L48.5 354.4L51.3 354.2L53.5 354L56.1 353.8L58.9 353.5L61.8 353.2L64.5 353.1L66.8 353.2L68.5 353.4L70 353.3L71.6 352.8L72.9 351.7L73.6 350.2L73.7 348.6L73.2 347L72.2 345.7L70.7 345L69 344.8L67.5 345.1L65.8 345.6L63.6 346.3L61 346.8L58.2 347.2L55.4 347.5L52.9 347.7L50.9 347.8L48.4 347.8L46.7 347.7L45.3 347.5L43.6 347.1L42 346.6L40.4 346L38.7 345.3L37.1 344.5L35.5 343.5L34.1 342.5L32.5 341.1L30.8 339.6L29.3 338.1L27.9 336.7L26.8 335.5L25.7 334.2L25.7 334.3L25.3 332.1L25 330.4L24.7 328.3L24.4 325.9L24 323.3L23.8 320.7L23.6 318.3L23.5 316.3L23.6 315.1L24 313.4L24.4 312.8L25.3 312.1L26.8 311L28.2 310.1L30 309.1L32 308.1L33.8 307.2L35.2 306.5L36.2 305.9L37.2 305.2L37.8 304.2L37.9 303L37.6 301.8L36.9 300.9L35.9 300.3L34.7 300.1Z"/>
<path d="M266.2 336.4L267.2 337.3L268.4 338.4L269.9 339.6L271.5 341L273.4 342.6L275.3 344.3L277.3 346.2L279.2 348.2L281.1 350.4L282.3 352L283.6 353.7L285 355.6L286.4 357.6L288 359.6L289.6 361.7L291.2 363.8L292.8 365.9L294.3 367.9L295.8 369.9L297.3 371.8L298.7 373.6L300.6 375.8L302.4 377.8L304.3 379.8L306.1 381.7L307.9 383.5L309.6 385.2L311.1 386.8L312.5 388.3L313.8 389.7L315.7 391.8L317.2 393.4L318.6 394.8L320.1 396.1L322 397.5L324.1 398.8L326.4 400L328.8 401.2L331.2 402.2L333.2 403.1L334.6 403.9L336.2 405L336.8 405.6L337.9 407.4L338.9 409.2L340.1 411.3L341.3 413.7L342.3 415.9L343 417.9L343.6 419.8L343.9 421.3L344.1 422.7L344.2 424.1L344.2 425.6L344 427.3L343.7 429L343.3 430.4L342.8 431.8L342.5 432.5L341.5 433.5L340.1 434.5L337.9 435.7L335.7 436.9L333.7 437.8L332 438.5L330.9 438.8L328.9 439L327.3 439.1L325.2 439L322.9 438.9L320.6 438.8L318.6 438.5L316.9 438.2L314.8 437.7L313.3 437.1L312.2 436.5L311.2 435.8L310.7 435.4L310.8 435.5L310.1 433.1L309.7 431.5L309.1 429.2L308.5 426.6L307.8 423.8L307.1 421L306.5 418.3L305.9 415.9L305.3 414L304.5 411.2L303.2 409L301.2 407.2L300.1 406.1L298.7 404.9L297.2 403.6L295.4 402.2L293.2 400.6L290.6 398.8L287.4 396.8L285.7 395.8L283.9 394.8L281.8 393.8L279.6 392.7L277.3 391.6L274.9 390.3L272.5 389L270.2 387.6L267.8 386.2L265.5 384.7L263.2 383.3L261 382L258.9 380.6L256.9 379.4L255.1 378.2L253.5 377.1L251.1 375.3L248.9 373.5L247 371.7L245.2 369.8L243.5 368L242.1 366.3L240.8 364.7L239.6 363.1L238.6 361.7L237.7 360.4L235.7 357.3L235.2 356.8L234.2 356L232.9 355.7L231.6 355.9L230.5 356.6L229.7 357.7L229.4 359L229.6 360.3L230.3 361.4L230.7 361.9L233.5 364.2L234.4 365.1L235.5 366.3L236.7 367.8L238.1 369.5L239.6 371.3L241.3 373.2L243.3 375.2L245.4 377.2L247.7 379.1L250.3 381L252.1 382.3L254 383.6L256 384.9L258.2 386.3L260.4 387.7L262.8 389.1L265.1 390.5L267.6 391.9L270 393.3L272.3 394.6L274.6 395.9L276.9 397.2L278.9 398.4L280.9 399.5L282.6 400.6L284.1 401.6L287.1 403.7L289.5 405.5L291.5 407.1L293.1 408.4L294.5 409.6L295.7 410.8L296.9 411.9L298.5 413.2L298.6 413.5L299.3 415.8L299.8 417.5L300.4 419.8L301.1 422.4L301.8 425.2L302.5 428L303.2 430.7L303.8 433L304.3 434.9L305.2 437.9L306.3 439.6L307.8 440.8L309.4 441.9L311.2 442.8L313.4 443.5L315.8 444.1L317.9 444.4L320.2 444.7L322.6 444.8L325 444.9L327.2 444.9L329.2 444.9L331.8 444.7L333.9 444.1L336 443.2L338.2 442.2L340.7 441L343.1 439.5L345.1 438L346.9 436.2L347.9 434.3L348.6 432.3L349.1 430.4L349.5 428.3L349.8 426.1L349.9 424L349.7 421.9L349.5 420L348.9 417.9L348.1 415.6L347.2 413.4L346.1 411L344.8 408.5L343.5 406.3L342.3 404.5L341 402.6L339.7 401L337.4 399.6L335.5 398.6L333.3 397.7L330.9 396.7L328.5 395.6L326.4 394.5L324.6 393.3L323 392.1L321.7 390.9L320.6 389.7L319.2 388.2L317.3 386.1L316.1 384.7L314.7 383.1L313.2 381.5L311.6 379.8L310 378L308.3 376.1L306.7 374.1L305 372L303.3 369.9L302.1 368.2L300.7 366.3L299.3 364.4L297.9 362.3L296.4 360.2L294.9 358.1L293.4 355.9L292 353.7L290.5 351.6L289.1 349.6L287.6 347.7L286.2 345.9L284 343.6L281.8 341.4L279.6 339.4L277.4 337.6L275.4 336.1L273.6 334.8L272.1 333.8L271 332.9L270 332.1L269 331.5L267.9 331.4L266.8 331.7L265.9 332.3L265.4 333.3L265.2 334.4L265.5 335.5Z"/>
<path d="M77.8 391.8L77.8 392.9L77.8 395L78.2 396.8L78.4 398L78 400.1L77.8 400.4L77.3 401L76.5 402.1L75.3 404L74.1 406.5L72.8 410L71.6 414.6L71.1 416.3L70.7 418.2L70.2 420.2L69.6 422.4L69 424.7L68.3 427.1L67.6 429.7L66.9 432.3L66.2 435.1L65.6 437.9L65 440.7L64.6 443.6L64.2 446.5L63.9 449.4L63.5 452.2L63.1 454.9L62.7 457.6L62.2 460.1L61.7 462.5L61.2 464.8L60.8 466.9L60.5 468.8L60.2 470.5L60 472.1L59.3 477.6L59.9 481.3L61.3 482.3L61.5 482.8L62.1 484.2L63.1 486L64.2 487.8L65.2 489.5L66.2 491.4L67 493.4L67.8 495.7L68.4 498.5L68.6 500.1L68.9 502L69.1 504L69.2 506.3L69.3 508.6L69.2 511L69.2 513.5L69 516.1L68.9 518.6L68.7 521.2L68.6 523.7L68.4 526.2L68.3 528.7L68.2 531L68.1 533.2L67.9 535.8L67.6 538.3L67.3 540.8L67 543.2L66.7 545.6L66.4 548.1L66.1 550.5L65.9 553L65.8 555.5L65.7 558.1L65.9 560.7L66.1 563.3L66.5 565.9L67 568.5L67.6 571.2L68.2 574L68.9 576.7L69.6 579.4L70.4 582.1L71.1 584.6L71.9 586.9L72.5 589.1L72.9 591L73.2 592.6L73.5 593.9L73.6 594.3L74.2 595.7L75.4 596.7L76.8 597.2L78.4 597.1L79.7 596.5L80.8 595.3L81.3 593.9L81.2 592.3L81 591.8L80.6 590.5L79.9 588.8L79.1 587L78.3 584.8L77.6 582.5L76.9 580.1L76.2 577.5L75.4 574.9L74.8 572.3L74.1 569.7L73.6 567.2L73.2 564.9L72.9 562.7L72.7 560.4L72.7 558.2L72.7 555.9L72.8 553.6L73 551.3L73.3 549L73.6 546.5L73.8 544.1L74.1 541.6L74.3 539L74.5 536.3L74.6 533.5L74.6 531.3L74.7 528.9L74.9 526.5L75.1 524L75.4 521.4L75.6 518.8L75.8 516.2L75.9 513.6L75.9 511.1L75.8 508.6L75.6 506.1L75.5 503.8L75.3 501.6L75 499.5L74.7 497.5L74 494.2L73.1 491.3L72 488.7L70.9 486.5L69.8 484.6L68.9 482.9L68.1 481.4L67.4 479.8L66 477.6L65.7 478.1L65.9 478.2L66.6 473.1L66.8 471.6L67.1 469.9L67.5 468L67.8 466L68.2 463.7L68.6 461.3L69 458.8L69.5 456.1L69.8 453.4L70.2 450.6L70.6 447.8L71 444.9L71.4 442L72 439.2L72.6 436.4L73.3 433.7L74 431L74.7 428.5L75.4 426.1L76.1 423.8L76.7 421.6L77.2 419.6L77.6 417.8L78 416.3L79.1 412L80.1 409L81 407.1L81.9 405.7L82.7 404.6L83.6 403.3L84.4 401.4L85 397.9L84.7 395.4L84.6 394L84.6 392.4L84.6 391.4L84.3 390.1L83.5 389L82.3 388.3L81 388.2L79.7 388.5L78.6 389.3L77.9 390.5Z"/>
<path d="M228.6 451.9L230.8 451.7L232.4 451.5L234.5 451.3L237 451.1L239.7 450.9L242.6 450.6L245.6 450.3L248.4 450L251.2 449.7L253.6 449.4L255.7 449L259.2 448.2L261.9 447.2L263.9 445.9L266.2 444.3L268 442.6L269.4 440.6L270.6 438.8L271.8 437.3L273.4 435.9L275.8 434.6L277.3 434.1L279.4 433.7L281.9 433.4L284.5 433.1L287.3 433L290.2 432.8L293 432.7L295.7 432.5L298.3 432.3L300.6 432.2L302.5 432.1L304.1 432L305.3 431.8L306.6 431.3L307.6 430.4L308.1 429.3L308.2 427.9L307.8 426.7L306.9 425.7L305.7 425.2L304.4 425.1L303.2 425.4L301.8 425.9L300 426.4L297.7 426.9L295.2 427.3L292.5 427.5L289.6 427.6L286.7 427.8L283.8 428L281 428.3L278.4 428.7L276.1 429.3L274 430L270.9 431.6L268.5 433.6L266.8 435.7L265.5 437.6L264.4 439.1L263.1 440.3L261.2 441.5L259.7 442.2L257.9 442.8L254.7 443.4L252.8 443.6L250.5 443.9L247.9 444.2L245.1 444.4L242.2 444.7L239.3 444.9L236.5 445L234 445.2L231.9 445.3L230.3 445.4L228 445.6L226.8 445.9L225.8 446.7L225.2 447.8L225.1 449L225.4 450.2L226.2 451.2L227.3 451.8Z"/>
<path d="M349.3 425.7L349.7 425.6L351 425.4L352.5 425.2L354 425L355.7 424.7L357.5 424.4L359.4 424L361.4 423.5L363.5 423.1L365.6 422.7L367.9 422.3L370.3 422L372.8 421.7L375.3 421.5L377.9 421.2L380.6 421L383.3 420.8L386.1 420.6L389 420.3L391.8 420L394.7 419.6L397.7 419.2L400.6 418.8L403.6 418.3L406.6 417.9L409.6 417.5L412.6 417.1L415.7 416.8L418.7 416.4L421.7 416L424.7 415.5L427.7 415.1L430.6 414.6L433.5 414.1L436.4 413.6L439.2 413.1L442 412.7L444.8 412.3L447.5 411.9L450.2 411.6L452.8 411.3L455.3 411L457.7 410.7L460.1 410.4L462.4 410.1L464.6 409.9L466.6 409.6L468.6 409.4L470.5 409.1L472.3 408.9L473.9 408.6L475.5 408.4L481.6 407.7L486.4 407.4L490 407.3L492.7 407.4L494.5 407.4L495.6 407.5L496.3 407.7L496.9 407.8L497.6 408L498.8 408.2L500.2 408.4L503.1 408.6L503.8 408.8L504 409L505.4 410.3L506.5 411.5L507.9 413.1L509.5 415.1L511.2 417.2L512.8 419.2L514.4 421.1L515.8 422.6L518.2 424.7L520.3 425.9L522.5 426.6L524.1 427.1L526 427.4L528.3 427.5L531.6 427.3L533.5 427.2L535.7 427L538.1 426.8L540.7 426.7L543.4 426.5L546.1 426.3L548.6 426.2L550.9 426L552.9 425.8L554.2 425.7L556.6 425.7L556.2 425.6L556.5 426.2L557.1 427.7L557.4 429.5L557.9 430.9L558.1 431.3L559.3 432.8L560.9 433.7L562.7 433.9L564.5 433.4L566 432.3L566.9 430.6L567.1 428.8L566.6 427L566.7 427.2L565.9 425.8L564.2 423.7L562.4 422L561 420.5L558.2 419L554.5 418.8L552.5 418.9L550.4 419L548 419.1L545.4 419.3L542.7 419.3L540 419.4L537.4 419.5L535 419.6L533 419.7L531.4 419.8L528.6 419.9L527.1 419.9L526.3 419.7L525.1 419.4L523.8 419L523.1 418.7L521.3 417.1L520.1 416L518.7 414.3L517 412.3L515.3 410.2L513.5 408.1L511.7 406.3L510.1 404.8L508.2 403.3L506.1 402.1L503.6 401.7L500.5 401.5L499.5 401.4L498.9 401.2L498.2 401.1L497.3 400.9L496 400.7L494.4 400.6L492.3 400.5L489.5 400.6L485.7 400.8L480.9 401.3L474.7 402.2L473.2 402.4L471.5 402.6L469.7 402.9L467.8 403.1L465.9 403.4L463.8 403.6L461.6 403.9L459.3 404L456.9 404.2L454.4 404.4L451.9 404.6L449.3 404.8L446.6 405.1L443.9 405.4L441.1 405.8L438.3 406.1L435.4 406.4L432.5 406.7L429.6 407L426.6 407.4L423.6 407.7L420.6 408L417.6 408.2L414.5 408.5L411.5 408.9L408.5 409.2L405.5 409.7L402.5 410.2L399.5 410.7L396.6 411.2L393.6 411.7L390.8 412.2L387.9 412.7L385.1 413.1L382.3 413.4L379.6 413.7L376.9 414L374.3 414.3L371.8 414.6L369.3 415L367 415.4L364.7 415.9L362.5 416.3L360.4 416.8L358.4 417.2L356.6 417.6L354.8 418L353.1 418.3L351.6 418.6L350.2 418.8L348.8 419L348.4 419.1L347.1 419.5L346.2 420.4L345.6 421.5L345.5 422.8L345.9 424.1L346.8 425L348 425.6Z"/>
<path d="M224.8 450L225.6 451L226.8 452.4L228.3 454L229.5 455.3L230.8 456.6L232 458L233.3 459.9L234.1 461.4L234.9 462.8L235.6 464.3L236.4 466.2L237.2 468.8L238.1 472.5L238.4 474.1L238.8 476L239.2 478.1L239.5 480.2L239.8 482.6L240.1 485L240.4 487.6L240.7 490.2L241 492.9L241.4 495.6L241.8 498.4L242.2 501.1L242.6 503.9L243 506.6L243.5 509.3L244 511.9L244.4 514.2L245 516.6L245.5 518.9L246.1 521.3L246.7 523.7L247.3 526.2L248 528.6L248.7 530.9L249.5 533.3L250.3 535.6L251 538L251.8 540.3L252.4 542.5L253.1 544.8L253.6 547L254.1 549.1L254.6 551.2L254.9 553.2L255.3 555.8L255.6 558.4L255.9 561L256.1 563.7L256.4 566.3L256.5 568.8L256.6 571.4L256.7 573.9L256.7 576.3L256.8 578.7L256.9 581L257.1 583.1L257.4 585.2L257.8 587.4L259 591.1L260.5 594.1L262.1 596.4L263.5 598.2L264.5 599.5L265.4 601.1L266.3 603.1L267.3 605.4L268.2 607.8L269 610L269.7 612.1L270.2 613.6L270.6 615.8L270.6 616.9L270.3 618.5L270.1 620.1L270 621.1L268.8 623.1L267.8 624.3L266.6 625.8L265.1 627.5L263.5 629.3L261.8 631.1L260 632.9L258.1 634.5L256.5 635.8L254.6 637.1L252.6 638.4L250.5 639.8L248.4 641.2L246.4 642.5L244.5 643.8L242.8 644.9L241.4 645.9L239.1 647.3L237.7 648L236.6 648.4L234.9 649L233.1 649.6L231.2 650.1L229.3 650.6L227.3 650.9L225.3 651.2L223.3 651.4L221.6 651.6L220.1 651.7L218.4 651.6L216.1 651.3L214.6 650.9L212.5 650.4L210.3 649.8L207.9 649.1L205.4 648.3L203.1 647.5L200.9 646.8L198.9 646.1L197.5 645.6L194.9 644.5L194.2 643.9L193.2 642.9L192 642L191.6 641.8L190.9 639.3L190.7 637.8L190.5 635.7L190.4 633.3L190.2 630.6L189.9 627.7L189.7 624.9L189.3 622.1L188.8 619.4L188.2 617L187.3 614.4L186.2 612.2L185 610.3L183.8 608.6L182.7 606.8L181.6 604.9L180.5 602.5L179.8 600.7L179.1 598.5L178.4 596.1L177.6 593.6L176.8 590.9L176 588.3L175.3 585.7L174.6 583.3L173.9 581L173.2 579L172.6 577.1L171.2 573.7L169.8 571.4L168.5 570.1L167.8 569.5L168.1 569.8L166.9 568.8L165.5 568.3L164 568.4L162.6 569.1L161.7 570.3L161.2 571.7L161.3 573.2L162 574.6L162.7 575.4L163.8 576.2L164.7 576.5L165.8 577.1L167.4 579.5L168 580.7L168.7 582.6L169.4 584.7L170.3 587.1L171.1 589.6L171.9 592.3L172.7 594.9L173.5 597.5L174.2 600L175 602.3L175.8 604.4L177 607.1L178.2 609.5L179.5 611.4L180.6 613.1L181.6 614.6L182.5 616.3L183.2 618.4L183.6 620.4L184 622.7L184.4 625.4L184.6 628.1L184.8 630.9L185 633.7L185.1 636.2L185.3 638.5L185.5 640.6L186.5 644.1L188.2 646.2L189.3 647.1L190.3 648.2L192 649.6L195 651L196.7 651.7L198.6 652.4L200.9 653.1L203.3 653.9L205.8 654.6L208.3 655.4L210.7 656.2L212.9 656.9L214.9 657.4L217.7 658L220.2 658.1L222.4 658L224.3 657.7L226.2 657.5L228.4 657.2L230.6 656.7L232.8 656.2L234.8 655.5L236.7 654.8L238.5 654.1L240.1 653.4L241.9 652.3L244.3 650.6L245.8 649.5L247.5 648.3L249.4 647L251.5 645.7L253.6 644.3L255.8 642.8L257.9 641.4L259.8 639.9L261.6 638.5L263.6 636.7L265.6 634.7L267.4 632.7L269 630.8L270.5 629L271.8 627.3L272.9 625.7L274.4 623.1L275 621L275.2 619.3L275.5 617.5L275.6 615.4L275.2 612.7L274.7 610.7L274 608.5L273.3 606.1L272.4 603.6L271.5 601.1L270.5 598.6L269.4 596.4L268.1 594.6L266.8 592.9L265.8 591.2L264.8 588.9L264.1 585.7L263.8 584.2L263.6 582.4L263.4 580.4L263.2 578.3L263.1 576L263 573.6L262.9 571.1L262.8 568.5L262.7 565.9L262.6 563.1L262.4 560.4L262 557.6L261.6 554.8L261 552L260.5 549.8L260 547.6L259.4 545.4L258.7 543.1L258 540.8L257.2 538.5L256.4 536.2L255.6 533.9L254.7 531.6L253.9 529.2L253.2 526.9L252.5 524.5L251.9 522.1L251.3 519.8L250.8 517.4L250.4 515.1L250 512.8L249.6 510.6L249.1 508.1L248.6 505.5L248.1 502.9L247.5 500.3L247 497.6L246.5 494.9L246.1 492.2L245.7 489.5L245.4 486.9L245.1 484.4L244.8 481.9L244.5 479.5L244.2 477.3L244 475.2L243.7 473.2L243.3 471.3L242.3 467.4L241.3 464.4L240.3 462.1L239.3 460.3L238.4 458.9L237.5 457.4L236 455.1L234.5 453.3L233.2 451.9L232.1 450.8L230.8 449.2L229.6 447.7L228.8 446.8L228 446.1L227.1 445.8L226.1 445.9L225.2 446.4L224.5 447.2L224.2 448.1L224.3 449.1Z"/>
<path d="M93.3 568.5L92.5 569.8L91.7 571L90.6 572.4L89.4 574.1L88 576L86.5 578.1L84.9 580.2L83.2 582.4L81.6 584.7L80 586.9L78.5 589.1L77.1 591.2L75.9 593.2L74.8 594.9L73.3 597.3L72 599.4L70.9 601.3L69.8 603.1L68.9 604.9L68 606.9L67.1 609.2L66.3 611.8L65.8 613.9L65.3 616.2L64.8 618.7L64.4 621.3L64 624L63.6 626.6L63.2 629.3L62.9 631.9L62.6 634.3L62.5 636.6L62.4 638.6L62.4 640.6L62.9 644.5L64.7 647.7L66.6 649.2L68 650.3L69.7 651.7L71.8 653.1L73.9 654.6L75.5 655.9L76.6 656.9L77.9 657.9L79.4 658.4L81.1 658.3L82.5 657.6L83.6 656.4L84.2 654.8L84.1 653.2L83.4 651.7L82.1 650.6L80.5 649.9L78.9 649.4L76.9 648.9L74.8 648L72.9 646.8L71.4 645.7L69.9 644.5L68.9 643.9L68.3 642.9L68 640L68 638.6L68.1 636.7L68.3 634.6L68.6 632.2L69 629.7L69.4 627.1L69.8 624.5L70.2 622L70.6 619.5L71.1 617.1L71.6 615L72.1 613.2L72.8 610.8L73.5 608.9L74.2 607.3L75 605.7L76 604.1L77 602.4L78.3 600.3L79.6 597.8L80.6 596.1L81.7 594.2L83 592.1L84.5 590L86 587.7L87.7 585.5L89.3 583.3L90.9 581.2L92.5 579.2L93.9 577.3L95.1 575.6L96.1 574.1L97 572.9L97.8 571.6L98.2 570.6L98.2 569.5L97.8 568.5L97.1 567.8L96.1 567.4L95.1 567.4L94.1 567.8Z"/>
<path d="M149.9 655.7L149.5 655.4L148.5 654.5L147.1 653.1L145.4 651.5L143.6 649.7L141.6 647.9L139.5 646L137.4 644.2L135.3 642.7L133.3 641.4L131.2 640.3L129.1 639.2L126.9 638.2L124.6 637.4L122.3 636.7L119.9 636L117.5 635.4L115.1 635L112.5 634.7L109.8 634.6L107.1 634.4L104.5 634.4L101.9 634.4L99.5 634.4L97.3 634.4L95.4 634.5L92.3 634.8L89.9 635.3L88.2 636L86.8 636.7L85.1 637.5L83.3 638.8L81.7 641.2L80.9 642.9L80.2 644.6L79.6 646.5L78.8 648.5L77.9 650.7L76.8 653.1L75.4 655.8L74.5 657.4L73.5 659.2L72.3 661.2L71.1 663.3L69.8 665.5L68.4 667.7L67.1 670L65.7 672.2L64.4 674.5L63.2 676.7L62 678.7L61 680.7L60.1 682.5L58.9 685.2L57.9 687.3L57.2 689.2L56.6 691.1L56.1 693.1L55.7 695.6L55.1 698.8L54.8 700.6L54.5 702.5L54.2 704.6L53.9 706.8L53.6 709.1L53.3 711.5L53 714L52.8 716.5L52.5 719.1L52.2 721.7L51.8 724.3L51.5 726.9L51.3 729.5L51 732L50.8 734.5L50.7 736.9L50.6 739.3L50.5 741.8L50.5 744.3L50.5 746.8L50.6 749.4L50.6 751.9L50.7 754.4L50.7 756.9L50.7 759.4L50.8 761.8L50.8 764.1L50.8 766.4L50.8 768.6L50.8 770.7L50.8 772.7L50.7 775.5L50.6 778.3L50.5 781L50.3 783.7L50.2 786.3L49.9 788.7L49.7 790.9L49.4 793L49.1 794.9L48.7 796.6L48.4 798L47.9 801L54.9 801.4L54.8 799.8L54 798.5L52.8 797.5L51.3 797.1L49.8 797.3L48.4 798L47.5 799.2L47 800.7L55.8 801.6L55.9 798.7L55.9 797.3L55.9 795.7L56.1 793.8L56.4 791.7L56.6 789.4L56.9 786.9L57.1 784.3L57.3 781.5L57.4 778.7L57.4 775.8L57.5 772.8L57.5 770.7L57.5 768.5L57.6 766.3L57.6 763.9L57.6 761.5L57.6 759.1L57.6 756.6L57.5 754.1L57.5 751.6L57.4 749.1L57.3 746.7L57.3 744.2L57.2 741.8L57.1 739.4L57.2 737.1L57.2 734.9L57.3 732.5L57.5 730L57.7 727.5L57.9 724.9L58.1 722.4L58.4 719.8L58.8 717.3L59.2 714.9L59.6 712.5L60 710.1L60.4 707.9L60.7 705.7L61.1 703.7L61.4 701.8L61.7 700L62.3 696.9L62.7 694.5L63.2 692.8L63.6 691.4L64.2 689.9L65 688L66.2 685.4L67.1 683.8L68 682L69.2 680L70.4 677.9L71.7 675.8L73 673.5L74.4 671.3L75.8 669L77.1 666.8L78.4 664.7L79.6 662.6L80.6 660.7L81.6 658.9L83 655.9L84.1 653.2L85 650.8L85.8 648.7L86.4 646.9L86.9 645.5L87.4 644.6L88.3 643.2L88.3 643.3L89.6 642.8L90.9 642.2L91.9 641.7L93.2 641.4L95.9 641.2L97.5 641.1L99.6 641.1L101.9 641L104.4 641L106.9 641.1L109.4 641.1L111.9 641.3L114.2 641.5L116.2 641.9L118.3 642.4L120.3 643L122.3 643.7L124.2 644.5L126.1 645.3L128 646.2L129.8 647.2L131.6 648.2L133.3 649.5L135.1 651L137 652.7L138.8 654.5L140.5 656.3L142.1 658L143.4 659.5L144.5 660.6L144.9 661.1L146.1 661.8L147.5 662L148.9 661.7L150.1 660.9L150.8 659.6L151 658.2L150.7 656.9Z"/>
<path d="M148.2 37.5L148.3 37.6L149.3 38.7L150.7 40.1L152.4 41.8L154.1 43.7L156 45.7L157.8 47.7L159.5 49.7L161 51.5L162.3 53.4L163.6 55.5L164.9 57.7L166.1 59.9L167.2 62L168.2 64L168.8 65.8L169.4 67.3L170.4 69.5L171.2 70.4L172.3 70.9L173.5 71L174.6 70.6L175.5 69.8L176 68.7L176.1 67.5L175.7 66.4L174.3 64.5L173.3 63.4L172.1 61.9L170.9 60.1L169.6 58L168.3 55.7L167 53.4L165.6 51.2L164.2 49.2L162.6 47.2L160.8 45.1L158.9 43L157 40.9L155.2 39L153.6 37.3L152.3 35.8L151.3 34.7L151.3 34.7L150.6 34.2L149.8 34.1L149 34.2L148.4 34.6L147.9 35.2L147.7 36L147.8 36.8Z"/>
<path d="M118.7 49.7L115.2 47.4L113.6 50.8L113 52.1L112.2 53.7L111.3 55.6L110.3 57.7L109.1 60L108 62.4L106.8 64.9L105.6 67.5L104.5 70.1L103.4 72.6L102.4 75L101.4 77.3L100.5 79.3L99.7 81.2L99 82.8L97.4 86.8L96.8 89.5L96.8 91.4L96.8 93.3L96.7 95.3L96.7 97.5L96.8 99.8L97.3 102.4L98.1 105.3L99 107.4L100 109.7L101.3 112.2L102.5 114.6L103.7 117L104.5 119.3L105.1 121.2L105.7 122.5L105.7 122.5L106.4 123.5L107.5 124.1L108.7 124.3L109.9 124L110.9 123.2L111.5 122.2L111.7 120.9L111.4 119.7L111.4 119.7L110.6 118.4L109.4 116.7L108 114.8L106.7 112.5L105.5 110.1L104.4 107.7L103.4 105.6L102.6 103.8L101.9 101.3L101.5 99.1L101.3 97.1L101.4 95.2L101.5 93.1L101.5 91.1L101.5 89.8L101.9 88.1L103.5 84.4L104.1 83L104.9 81.2L105.8 79.2L106.7 76.9L107.8 74.6L108.9 72.1L110.1 69.5L111.2 67L112.4 64.5L113.6 62.1L114.7 59.8L115.7 57.6L116.6 55.7L117.3 54.1L118 52.7L119.5 49.3L114.4 47.8L114.2 48.7L114.3 49.6L114.8 50.3L115.6 50.9L116.5 51.1L117.4 50.9L118.2 50.4Z"/>
<path d="M214.2 87.1L213.9 87.3L213 88.4L211.7 89.8L210.1 91.4L208.4 93.1L206.6 95L204.8 96.9L203 98.7L201.3 100.4L199.8 101.8L197.7 103.6L195.7 105.2L193.6 106.8L191.7 108.2L189.9 109.7L188.4 111.3L186.8 113.7L186.4 116.1L186.4 118.5L186.5 120.8L186.8 123.7L187 126.6L187.2 129L187.6 129.1L188.7 129L186.8 127.4L185.8 126.2L184.4 124.4L182.9 122.2L181.5 119.9L180.4 117.7L179.6 116.1L178.5 114.1L177.7 113.4L176.8 113L175.8 113L174.9 113.4L174.1 114.2L173.8 115.1L173.8 116.1L174.2 117.1L175.7 118.8L176.9 120.1L178.4 121.9L180 124.2L181.5 126.4L182.9 128.5L184.3 130.1L187.4 132.7L190.7 131.5L191.1 129L191 126.3L190.6 123.4L190.3 120.6L190.2 118.4L190.1 116.2L190.2 115.2L191.4 113.6L192.5 112.5L194.1 111.3L196 109.9L198.1 108.4L200.3 106.6L202.5 104.6L204 103.1L205.7 101.4L207.5 99.5L209.4 97.6L211.2 95.7L212.9 93.9L214.4 92.3L215.7 90.9L216.6 89.9L216.9 89.6L217.2 89L217.4 88.3L217.2 87.6L216.8 87L216.2 86.6L215.5 86.5L214.8 86.7Z"/>
<path d="M57.1 247.4L57.1 248.9L57.1 250.1L56.9 251.4L56.7 252.9L56.5 254.7L56.2 256.9L56.1 259.6L56 262.8L56.2 266.5L56.8 271L57 272.7L57.4 274.6L57.7 276.6L58.1 278.8L58.6 281L59 283.4L59.4 285.9L59.8 288.5L60.2 291.2L60.6 293.9L61 296.6L61.4 299.4L61.9 302.2L62.3 305L62.8 307.8L63.3 310.6L63.7 313.3L64.1 316L64.4 318.6L64.8 321.1L65.2 323.6L65.5 325.9L65.8 328.1L66.2 330.2L66.4 332.1L66.7 333.9L66.9 335.4L67.4 340.2L67.6 343.3L67.6 345.2L67.4 346.3L67.1 347.4L66.6 349.1L66 351.8L65.6 353.7L65 355.9L64.3 358.3L63.4 360.8L62.5 363.3L61.5 365.9L60.5 368.4L59.5 370.8L58.6 373.1L57.8 375.2L57.1 377.1L56.6 378.7L55.8 382.4L56.4 384.5L57.2 385.8L58.1 387.4L59.5 389.3L60.9 391L62.4 392.6L64.4 394L66.4 395.1L68.3 395.8L69.7 396.4L71.8 396.9L75.3 396.6L77.1 396.2L78.9 395.7L80.9 395.1L83 394.4L85.3 393.7L87.9 393L90.6 392.4L93.6 391.9L96.8 391.5L98.7 391.3L100.7 391.1L102.9 390.8L105.1 390.5L107.4 390.2L109.8 389.9L112.3 389.5L114.8 389.2L117.3 388.9L119.9 388.6L122.5 388.3L125 388.1L127.5 387.9L130 387.7L132.4 387.6L134.7 387.5L137 387.5L139.5 387.5L142 387.7L144.4 387.9L146.9 388.2L149.4 388.6L151.8 389.1L154.2 389.5L156.6 390L158.9 390.5L161.3 390.9L163.5 391.3L165.8 391.5L167.9 391.7L170 391.8L172.1 391.9L174.9 391.7L177.6 391.4L180.2 391L182.7 390.5L185.1 390.1L187.4 389.7L189.7 389.3L192 389L194.2 388.9L196.4 388.8L198.8 388.8L201.1 388.9L203.5 388.9L205.9 389L208.2 389.1L210.5 389.3L212.7 389.6L214.8 390L216.7 390.6L218.5 391.2L220.7 392.4L222.5 393.9L224.1 395.7L225.6 397.5L227.1 399.4L228.9 401.2L231.1 402.6L233.2 403.6L235.6 404.3L238 404.9L240.4 405.3L242.8 405.7L245 406.1L247 406.5L248.7 406.9L251.1 407.8L252.7 408.6L253.9 409.5L255.6 410.8L256.9 412L258.4 413.3L259.9 414.7L261.4 416.2L262.8 417.8L264.1 419.5L265.2 421.4L266.3 423.6L267.4 426.1L268.3 428.5L269 430.6L269.6 432.3L270.3 434.4L270.5 434.7L271.1 435.6L272 436.2L273.1 436.4L274.2 436.2L275.1 435.6L275.7 434.6L275.9 433.6L275.6 432.5L275.5 432.2L274.5 430.3L273.7 428.9L272.7 426.8L271.8 424.4L270.7 421.7L269.4 419.2L268 416.8L266.4 414.8L264.7 413L263 411.3L261.3 409.8L259.7 408.4L258.3 407.2L256.5 405.8L254.7 404.7L252.7 403.8L250 402.8L248.1 402.3L245.9 401.9L243.7 401.5L241.3 401.2L239 400.7L236.8 400.2L234.7 399.6L233.1 398.9L231.5 397.8L230.1 396.4L228.7 394.7L227.1 392.8L225.3 390.8L223 388.8L220.2 387.3L218 386.5L215.8 385.8L213.5 385.3L211.1 385L208.7 384.8L206.2 384.7L203.7 384.6L201.2 384.6L198.8 384.5L196.3 384.5L193.7 384.5L191.2 384.7L188.7 385L186.3 385.4L184 385.8L181.7 386.2L179.4 386.6L177.1 386.9L174.7 387.2L172.1 387.3L170.4 387.3L168.5 387.2L166.5 387L164.4 386.7L162.2 386.3L159.9 385.9L157.6 385.4L155.2 385L152.7 384.5L150.2 384.1L147.7 383.6L145.1 383.3L142.5 383L139.8 382.8L137.2 382.8L134.8 382.8L132.4 382.9L129.9 383L127.3 383.2L124.8 383.3L122.2 383.6L119.6 383.8L117 384.1L114.4 384.4L111.8 384.7L109.3 385L106.9 385.3L104.5 385.7L102.3 386L100.1 386.3L98.1 386.5L96.1 386.8L92.7 387.2L89.5 387.8L86.6 388.5L84 389.2L81.6 389.9L79.5 390.6L77.6 391.1L75.9 391.5L74.6 391.8L71.9 392L71.3 391.8L70.1 391.2L68.3 390.6L67 389.9L65.6 388.9L64.5 387.8L63.3 386.4L62.2 384.9L61.3 383.2L60.5 382.3L60.5 382.8L61.1 379.8L61.5 378.5L62.1 376.7L62.9 374.7L63.8 372.4L64.7 370L65.7 367.5L66.8 364.9L67.7 362.3L68.6 359.8L69.4 357.3L70 355L70.5 353L71 350.5L71.5 348.8L71.9 347.3L72.1 345.5L72.1 343.2L71.8 339.9L71.3 335L71 333.4L70.8 331.6L70.5 329.6L70.2 327.5L69.8 325.3L69.5 323L69.2 320.5L68.8 318L68.4 315.4L68 312.7L67.7 309.9L67.3 307.1L66.9 304.3L66.5 301.5L66 298.7L65.6 295.9L65.2 293.2L64.8 290.5L64.3 287.8L63.9 285.3L63.5 282.8L63.1 280.4L62.6 278.1L62.2 276L61.8 274L61.5 272.2L61.3 270.5L60.8 266.1L60.7 262.5L60.9 259.4L61.1 256.9L61.3 254.9L61.5 253.1L61.7 251.6L61.8 250.2L61.8 248.8L61.8 247.3L61.5 246.4L61 245.7L60.2 245.2L59.3 245L58.5 245.2L57.7 245.8L57.2 246.5Z"/>
<path d="M162.3 260.2L162.7 261.4L163.2 262.9L163.9 264.8L164.7 267.1L165.6 269.6L166.6 272.2L167.7 274.7L168.7 277L169.8 278.9L171.4 281.5L173.1 283.7L174.9 285.5L176.6 287.1L178.2 288.6L180.2 290.3L182.1 291.9L183.7 293.2L184.9 294.2L185.9 295L186.8 295.4L187.8 295.5L188.7 295.1L189.5 294.5L189.9 293.6L190 292.6L189.6 291.6L189 290.9L187.9 290.1L186.5 289.3L184.7 288.3L182.8 287.1L181 285.5L179.4 284.1L177.7 282.6L176.1 281L174.6 279.2L173.1 277L172.2 275.3L171.2 273.2L170.2 270.8L169.2 268.3L168.2 265.9L167.4 263.6L166.7 261.7L166.1 260.2L165.6 258.9L165.2 258.3L164.7 257.9L164 257.8L163.3 257.9L162.7 258.3L162.3 258.8L162.1 259.5Z"/>
<path d="M183 260.5L183.1 261L183.2 262.4L183.3 264.2L183.4 266.3L183.6 268.7L183.7 271.2L183.9 273.9L184 276.7L184.2 279.5L184.4 282.4L184.6 285.1L184.7 287.7L184.9 290.2L185.2 292.4L185.5 295.1L185.9 297.8L186.4 300.3L186.9 302.8L187.5 305.2L188.1 307.4L188.7 309.5L189.3 311.5L189.8 313.3L190.3 314.9L191.1 317.6L191.8 319.2L192.7 320.6L194.3 322.5L195.4 324L196.9 325.8L198.5 327.8L200.3 329.9L202.1 331.9L203.9 333.7L205.5 335.3L207.1 336.6L209.5 338L211.7 338.4L213.7 338.1L215.8 337.8L217.9 337.6L220.3 337.2L222.8 336.7L225.5 336.1L228.3 335.2L230.3 334.4L232.5 333.5L234.7 332.5L237 331.4L239.2 330.2L241.4 328.9L243.4 327.4L245.4 325.9L247.3 324.1L249.1 322.3L250.9 320.3L252.5 318.3L253.9 316.4L255.2 314.4L256.4 311.9L257.2 309.4L257.9 306.9L258.4 304.7L258.9 302.9L259.3 301.7L260.1 299.4L260.1 298.4L259.7 297.4L259 296.6L258 296.2L257 296.2L256 296.5L255.3 297.3L254.8 298.2L254.3 300.7L254.2 302.2L254.1 304.2L253.8 306.3L253.3 308.5L252.6 310.6L251.7 312.6L250.7 314.4L249.4 316.2L248 318L246.4 319.8L244.6 321.6L242.9 323.1L241.1 324.5L239.3 325.8L237.3 326.9L235.2 328L233.1 329L231 329.9L228.9 330.7L226.9 331.5L224.4 332.4L222 333.1L219.6 333.7L217.4 334L215.3 334.2L213.1 334.5L211.8 334.7L210.8 334.6L209.1 333.6L208 332.6L206.5 331.1L204.8 329.3L203.1 327.3L201.5 325.3L199.9 323.3L198.5 321.5L197.3 320L195.8 318.1L195.2 317.3L194.8 316.3L194 313.7L193.5 312.2L193 310.4L192.4 308.5L191.9 306.5L191.3 304.3L190.7 302L190.2 299.5L189.8 297L189.5 294.5L189.2 291.8L189.1 289.7L188.9 287.3L188.8 284.7L188.6 282L188.4 279.2L188.2 276.4L188 273.6L187.9 270.9L187.7 268.4L187.6 266L187.4 263.9L187.3 262.1L187.2 260.7L187.2 260.2L186.9 259.4L186.4 258.8L185.7 258.4L184.9 258.3L184.2 258.5L183.5 259L183.1 259.7Z"/>
<path d="M93.7 313.4L94.1 314.9L94.6 316.9L95.3 319.2L96.1 321.9L97 324.6L98 327.3L98.9 330L99.8 332.5L100.7 334.8L101.7 337.4L102.7 339.9L103.6 342.5L104.4 344.9L105.1 347.1L105.7 348.9L106.1 350.3L106.3 350.9L106.8 351.6L107.6 352.2L108.5 352.3L109.4 352.1L110.2 351.6L110.7 350.8L110.9 349.9L110.7 349L110.5 348.4L109.9 347.1L109 345.3L108.1 343.3L107.2 340.9L106.2 338.4L105.3 335.9L104.3 333.5L103.4 331.2L102.5 328.8L101.6 326.2L100.7 323.5L99.8 320.8L99 318.2L98.3 315.9L97.8 313.9L97.4 312.4L97.1 311.7L96.5 311.2L95.8 311L95 311.1L94.4 311.4L93.9 312L93.6 312.7Z"/>
<path d="M196.1 325.2L196.1 326.1L196.1 327.4L196 329.2L195.8 331.4L195.8 334L196.1 336.8L197 339.7L198.3 342.6L199.5 344.3L200.8 346L202.4 347.9L204 349.7L205.7 351.7L207.4 353.7L209.1 355.7L210.8 357.6L212.4 359.4L213.9 361.2L215.2 362.8L216.2 364.2L217.8 366.8L219 369.2L219.8 371.2L220.4 373.1L220.8 374.8L221.2 376.4L221.7 379.1L221.6 381L221.1 383L220.3 384.6L218.9 386.3L217.4 387.9L216.4 389.1L216.3 389.4L215.9 390.4L216 391.5L216.5 392.4L217.4 393.1L218.4 393.5L219.5 393.4L220.4 392.9L221.2 392.1L221.1 392.1L221.9 390.8L222.9 388.8L224.1 386.5L225 384.1L225.6 381.5L225.8 378.6L225.3 375.5L224.9 373.6L224.5 371.7L223.8 369.6L223 367.2L221.7 364.6L220.1 361.7L218.9 359.9L217.6 358.1L216.1 356.3L214.5 354.4L212.8 352.4L211.1 350.5L209.4 348.5L207.7 346.6L206.2 344.8L204.8 343.2L203.7 341.7L202.8 340.5L201.7 338.3L201 336L200.6 333.8L200.5 331.5L200.6 329.4L200.7 327.5L200.6 325.8L200.5 324.7L200.3 323.9L199.7 323.2L198.9 322.8L198.1 322.7L197.2 323L196.5 323.6L196.1 324.3Z"/>
<path d="M569.6 333.2L569 331.9L568.4 330.6L567.7 328.9L566.9 327L565.9 324.9L564.9 322.6L563.9 320.2L562.8 317.7L561.8 315.2L560.8 312.6L559.8 310.1L558.9 307.6L558.3 305.5L557.6 303.1L557 300.6L556.4 298L555.9 295.3L555.2 292.5L554.6 289.9L554 287.2L553.4 284.7L552.9 282.4L552.4 280.2L551.8 278.3L551.2 276.4L549 271.9L545.7 269.9L544.8 270.2L544.3 269.1L538.4 269L536 275.6L535.6 277.1L535.2 278.6L534.8 280.3L534.3 282.1L533.8 284.1L533.3 286.1L532.7 288.3L532 290.5L531.3 292.9L530.6 295.3L529.8 297.8L529 300.3L528.3 303L527.5 305.6L526.8 308.4L526.1 311.2L525.5 314L524.8 316.8L524.2 319.6L523.6 322.4L523 325.2L522.5 328.1L522.1 330.9L521.8 333.6L521.5 336.4L521.3 339L521.1 341.5L520.9 344L520.6 346.6L520.4 349.2L520.2 351.9L520 354.7L519.8 357.5L519.6 360.4L519.5 363.3L519.4 366.2L519.4 369.1L519.4 372L519.4 374.9L519.4 377.8L519.5 380.7L519.5 383.5L519.6 386.2L519.7 388.9L519.8 391.5L519.9 394L520.1 396.5L520.2 398.8L520.3 401.1L520.4 403.2L520.4 405.1L520.2 407L520 408.7L519.7 410.2L519.4 411.5L519.3 413L519.5 414.1L520.1 415.1L521 415.7L522.1 415.9L523.2 415.7L524.1 415.1L524.7 414.2L525 413.1L524.9 411.6L524.8 410.2L524.6 408.7L524.4 407L524.3 405.1L524.2 403.1L524.2 401L524.1 398.8L524.1 396.4L524 394L523.8 391.5L523.7 388.9L523.5 386.2L523.4 383.4L523.3 380.6L523.3 377.8L523.4 375L523.5 372.1L523.5 369.2L523.6 366.3L523.6 363.4L523.7 360.5L523.8 357.7L523.9 354.9L524.1 352.2L524.3 349.5L524.6 346.9L524.8 344.3L525 341.9L525.2 339.5L525.5 336.9L525.8 334.3L526.2 331.6L526.7 328.8L527.2 326.1L527.7 323.3L528.3 320.5L528.9 317.7L529.5 314.9L530.2 312.2L530.8 309.4L531.5 306.7L532.3 304L533 301.4L533.8 298.9L534.6 296.4L535.3 294.1L536.1 291.7L536.7 289.5L537.4 287.4L537.9 285.3L538.5 283.4L539 281.6L539.4 279.9L539.8 278.4L540.2 277.1L542.2 271.4L541.2 272.3L542.6 274.1L544.5 274.2L545.4 274.6L547 278.3L547.4 279.6L547.9 281.4L548.3 283.5L548.8 285.8L549.3 288.3L549.8 290.9L550.3 293.6L550.9 296.4L551.4 299.1L552.1 301.8L552.7 304.4L553.5 306.9L554.2 309.2L555.2 311.8L556.3 314.4L557.5 317L558.7 319.6L559.9 322.1L561 324.5L562 326.8L563 328.9L563.8 330.8L564.5 332.4L565 333.7L565.6 335L566 335.7L566.8 336.1L567.6 336.3L568.4 336.1L569.1 335.6L569.6 334.9L569.7 334.1Z"/>
<path d="M582.3 271.6L584.1 272.5L585.6 273.1L587.5 273.8L589.2 275.1L590.4 275.5L590.7 275.3L591.6 276.6L593.3 281.8L593.7 283.2L594.2 284.8L594.7 286.6L595.2 288.5L595.8 290.5L596.5 292.6L597.1 294.8L597.8 297.1L598.5 299.5L599.1 302L599.8 304.6L600.5 307.2L601.2 309.9L602 312.6L602.8 315.3L603.5 318L604.2 320.8L604.8 323.6L605.3 326.3L605.8 329.1L606.2 331.8L606.7 334.5L607.1 337.2L607.4 339.4L607.7 341.8L608 344.2L608.3 346.7L608.6 349.3L608.9 351.9L609.2 354.6L609.6 357.3L609.9 360L610.1 362.7L610.4 365.5L610.6 368.2L610.8 371L611 373.7L611.2 376.3L611.3 379L611.5 381.5L611.7 384.1L611.8 386.5L612 388.9L612.1 391.1L612.2 393.3L612.3 395.4L612.4 397.4L612.5 399.2L612.6 400.9L612.7 402.4L613 407.8L613.1 411L612.9 412.7L612.7 413.5L612.3 414.5L611.8 415.8L611.2 418.1L610.5 419.1L609.2 420.2L608 421.3L606.6 422.2L605 423.1L603 423.9L601.3 424.5L599.4 425.1L597.3 425.6L595 426.1L592.6 426.6L590.6 426.9L588.5 427.3L586.4 427.6L584.2 427.8L581.7 427.9L578.8 427.8L576.9 427.7L574.8 427.6L572.5 427.4L570.2 427.1L567.8 426.8L565.4 426.5L563 426.1L560.7 425.6L558.6 425.1L556.5 424.5L554.3 423.7L552 422.7L549.6 421.6L547.2 420.3L544.9 419L542.8 417.7L541 416.4L539.4 415.1L538.1 414.2L537.1 413.7L535.9 413.3L534.7 413.5L533.6 414.1L532.8 415.1L532.5 416.3L532.7 417.5L533.3 418.6L534.3 419.4L535.2 419.8L536.5 420.4L538.3 421.1L540.4 422.1L542.6 423.3L545 424.6L547.5 425.9L550.1 427.1L552.7 428.1L555.2 428.9L557.5 429.5L559.9 430L562.4 430.4L564.9 430.7L567.4 431L569.9 431.2L572.3 431.4L574.6 431.5L576.7 431.6L578.7 431.7L581.7 431.7L584.4 431.6L586.8 431.3L589 431L591.1 430.6L593.2 430.2L595.7 429.7L598.1 429.3L600.4 428.7L602.5 428.1L604.5 427.5L606.7 426.5L608.7 425.4L610.4 424.2L611.8 423L613.4 421.5L614.6 419.6L615.4 416.9L615.8 415.8L616.2 414.9L616.7 413.5L617 411.2L617.1 407.7L616.8 402.2L616.7 400.6L616.6 398.9L616.5 397.1L616.4 395.1L616.3 393.1L616.2 390.9L616.1 388.6L616 386.2L615.9 383.8L615.7 381.2L615.5 378.7L615.4 376L615.2 373.3L615 370.6L614.8 367.9L614.6 365.1L614.4 362.3L614.1 359.6L613.9 356.8L613.6 354.1L613.3 351.4L612.9 348.8L612.6 346.2L612.3 343.6L612 341.2L611.7 338.7L611.4 336.4L611.1 333.7L610.8 330.9L610.3 328.1L609.8 325.3L609.3 322.5L608.6 319.7L607.8 316.9L607 314.2L606.2 311.4L605.4 308.7L604.7 306.1L603.9 303.4L603.2 300.8L602.5 298.3L601.8 295.9L601.1 293.6L600.4 291.4L599.8 289.3L599.2 287.3L598.6 285.4L598 283.7L597.5 282.1L597 280.6L595.1 275.1L593.3 272.4L591.1 271.8L591.3 271.8L589.4 270.5L587.2 269.5L585.8 268.9L584.2 268.1L583.5 267.9L582.7 267.9L582 268.3L581.5 268.9L581.3 269.7L581.4 270.4L581.7 271.1Z"/>
<path d="M583.8 269.3L583.2 270.6L583 270.6L581.4 272L580.4 276.4L580.2 278.1L580 279.9L579.7 282.1L579.6 284.4L579.4 286.9L579.2 289.6L579.1 292.3L578.9 295.1L578.7 297.9L578.4 300.6L578.1 303.2L577.8 305.8L577.5 308.1L577.1 310.2L576.7 312L575.9 314.7L574.9 317.1L573.8 319.2L572.6 321.2L571.5 323.1L570.3 324.8L569.1 326.5L568.1 328.1L567.4 329.6L566.5 330.9L565.6 331.3L564.9 333.4L564.5 338.2L564.4 339.8L564.2 341.6L564.1 343.7L564 346L563.8 348.5L563.8 351.1L563.8 353.9L563.8 356.7L563.8 359.7L563.8 362.6L563.8 365.6L563.8 368.5L563.8 371.4L563.9 374.2L564.1 376.9L564.3 379.5L564.5 381.8L564.5 384L564.5 385.9L564.4 387.6L564.4 388.9L564.6 390.1L565.3 391.1L566.3 391.7L567.5 392L568.7 391.7L569.7 391L570.3 390L570.5 388.9L570.4 387.5L570.1 385.8L569.7 383.9L569.4 381.8L569.1 379.4L568.9 376.8L568.8 374.2L568.8 371.4L568.8 368.5L568.8 365.5L568.8 362.6L568.8 359.6L568.8 356.7L568.7 353.8L568.8 351.1L568.9 348.5L569.1 346L569.2 343.7L569.4 341.7L569.5 339.9L569.6 338.4L569.8 333.9L569.6 334.2L569.9 334.4L571.5 332.2L572.4 330.7L573.3 329.3L574.4 327.7L575.6 326L577 323.9L578.3 321.7L579.6 319.2L580.7 316.4L581.6 313.3L582.1 311.1L582.5 308.8L582.9 306.4L583.2 303.8L583.5 301L583.7 298.2L584 295.4L584.1 292.6L584.3 289.9L584.5 287.2L584.6 284.7L584.8 282.4L585 280.4L585.2 278.6L585.3 277.4L586.1 273.9L585.6 274.9L587.2 273.8L588.4 271.6L588.6 270.6L588.5 269.6L588 268.8L587.2 268.2L586.3 267.9L585.3 268L584.4 268.5Z"/>
<path d="M210.1 391.6L210.1 391.4L210.1 392.8L210.3 395.3L211.3 398.8L212.3 400.8L213.4 402.6L214.6 404.4L215.8 406.3L217.1 408.4L218.3 410.6L219.5 413.1L220.1 414.9L220.9 417.1L221.6 419.5L222.3 422.1L223.1 424.7L223.8 427.4L224.5 430L225.3 432.5L226 434.8L226.6 436.9L227.1 438.7L227.9 441.6L228.3 443.5L228.5 444.9L228.6 446.5L228.6 448.6L228.5 450.7L228.2 453L227.8 455.4L227.4 458L227.1 460.6L226.9 463.1L226.9 465.6L227.1 468.4L227.6 471.2L228.1 474L228.5 476.6L228.8 478.8L229 480.4L229 480.5L229.3 481.3L229.9 481.9L230.7 482.3L231.5 482.4L232.4 482.1L233 481.5L233.4 480.7L233.5 479.8L233.4 479.6L233.1 478L232.5 475.9L231.9 473.4L231.4 470.7L231.1 468L230.9 465.5L230.9 463.3L231 460.9L231.3 458.4L231.7 455.9L232.1 453.4L232.4 451L232.5 448.8L232.6 446.4L232.5 444.7L232.3 442.9L231.8 440.9L231.1 437.9L230.5 436.1L229.9 434L229.3 431.6L228.6 429.1L227.8 426.5L227.2 423.8L226.5 421.1L225.7 418.5L225 416L224.3 413.7L223.6 411.6L222.5 408.8L221.3 406.2L220 403.9L218.7 401.9L217.6 400.1L216.7 398.4L216 397.1L215.1 394.3L215 392.5L214.9 391.1L214.9 390.7L214.5 389.9L213.9 389.2L213 388.8L212.1 388.8L211.2 389.1L210.5 389.8L210.1 390.6Z"/>
<path d="M117.1 463.4L117.2 464L117.4 465.5L117.6 467.6L117.9 470.1L118.4 472.8L119 475.6L119.7 478.4L120.3 480.3L120.9 482.2L121.5 484.2L122.2 486.2L123 488.4L124.1 490.7L125.3 493.2L126.7 496L127.7 497.7L128.9 499.6L130.1 501.7L131.5 503.8L133 506L134.5 508.1L136.1 510.3L137.7 512.4L139.2 514.5L140.7 516.6L142.1 518.5L143.3 520.3L144.4 521.9L145.4 523.3L147.3 526.2L148.3 527.6L148.8 528.5L149.5 530.1L150.8 533.5L151.5 535.1L152.2 537L153 539L153.9 541.2L154.8 543.5L155.6 545.9L156.5 548.4L157.4 550.9L158.3 553.5L159 556L159.7 558.5L160.4 560.9L160.9 563.1L161.3 565.2L161.7 567.1L161.9 569.4L161.9 571.7L161.7 574L161.3 576.3L160.8 578.6L160.1 580.8L159.3 583.1L158.5 585.3L157.7 587.6L157 589.9L156.4 592.2L156.1 594.6L155.9 597.5L155.8 600.4L155.9 603.1L156 605.6L156.1 608.1L156.2 610.4L156.2 612.5L156.2 614.5L156.1 616.2L156 618.9L155.7 620.9L155.3 622.8L154.9 625.1L154.6 628.1L154.6 630.1L154.5 632.4L154.4 634.9L154.2 637.4L153.9 639.9L153.6 642.4L153.3 644.7L153 646.7L152.6 648.3L151.7 651.1L150.7 652.9L149.5 654.2L148 655.5L146 656.6L143.5 657.3L141 657.7L139.2 658.1L138.3 658.6L137.6 659.4L137.3 660.3L137.4 661.4L137.8 662.3L138.6 662.9L139.6 663.3L140.6 663.2L142.3 662.7L144.8 661.7L147.7 660.5L150.3 658.9L152.3 657.2L154 655.3L155.4 652.7L156.4 649.4L156.8 647.4L157.2 645.2L157.5 642.8L157.9 640.3L158.2 637.7L158.4 635.2L158.5 632.8L158.7 630.6L158.8 628.8L159.2 626.2L159.6 624.2L160.1 622.2L160.6 619.9L160.9 616.9L160.9 614.9L161 612.8L160.9 610.5L160.9 608.2L160.8 605.8L160.8 603.3L160.9 600.7L161 598L161.2 595.3L161.5 593.2L162 591.1L162.6 588.9L163.3 586.7L164 584.4L164.8 582.1L165.5 579.7L166.1 577.2L166.6 574.6L166.8 572L166.8 569.3L166.6 566.7L166.1 564.4L165.5 562.1L164.9 559.7L164.1 557.2L163.3 554.6L162.5 552L161.6 549.4L160.7 546.8L159.8 544.3L158.9 541.9L158 539.5L157.1 537.3L156.3 535.3L155.6 533.5L155 531.9L153.7 528.4L152.9 526.5L152.2 525.2L151.1 523.6L149.3 520.7L148.3 519.2L147.2 517.6L146 515.7L144.6 513.8L143.1 511.7L141.6 509.6L140.1 507.4L138.5 505.2L137 503L135.6 500.9L134.3 498.8L133.1 496.8L132 495L131.1 493.4L129.8 490.8L128.7 488.5L127.8 486.4L126.9 484.4L126.2 482.6L125.5 480.7L124.8 478.9L124.2 477L123.4 474.4L122.8 471.8L122.3 469.1L122 466.7L121.8 464.6L121.5 463.1L121.4 462.4L121.1 461.6L120.4 461.1L119.6 460.8L118.8 460.8L118 461.1L117.4 461.8L117.1 462.6Z"/>
<path d="M70.6 503.5L71.2 504.1L72.3 505L73.6 505.9L75 507.2L76.7 509.5L77.5 511L78.6 513L79.8 515.3L81 517.7L82.3 520.2L83.5 522.7L84.4 524.9L85 526.9L85.6 528.4L86.1 529.2L86.9 530.1L88 530.7L89.2 530.8L90.4 530.4L91.4 529.6L91.9 528.5L92 527.2L91.6 526L91.2 525.3L90.2 524.1L88.9 522.5L87.4 520.5L86 518.2L84.7 515.7L83.3 513.3L82.1 511L81 508.9L80 507.2L78 504.5L76.3 502.7L74.9 501.6L74 500.8L73.6 500.4L72.9 500L72.1 499.8L71.3 500L70.6 500.5L70.1 501.2L70 502L70.1 502.8Z"/>
<path d="M105.6 504.9L106.9 505.5L108.3 506.1L110.1 507L112.2 508L114.7 509L117.2 510.1L119.9 511.1L122.4 512L124.8 512.9L127.4 513.7L130.2 514.6L132.9 515.5L135.5 516.3L137.8 517.3L139.7 518.2L141.1 518.7L142.3 518.8L143.5 518.5L144.4 517.7L144.9 516.7L145 515.5L144.7 514.3L143.9 513.4L142.9 512.9L141.4 512.5L139.3 512.2L136.9 511.7L134.2 511.1L131.5 510.2L128.8 509.5L126.2 508.7L123.9 508L121.5 507.2L118.9 506.3L116.4 505.2L114 504.1L111.9 503.1L110.1 502.3L108.6 501.6L107.3 501.1L106.5 500.9L105.7 501L105 501.5L104.5 502.1L104.3 502.9L104.5 503.7L104.9 504.4Z"/>
<path d="M152.6 538.4L153.5 538.9L155.4 540.1L156.8 540.3L156.9 540.1L159.7 542.6L160.7 543.6L162 545L163.5 546.6L165.2 548.3L166.9 550.2L168.8 552.2L170.7 554.3L172.6 556.4L174.4 558.6L176.2 560.6L178 562.6L179.6 564.4L181.2 566.1L182.6 567.6L185.1 570L187.5 572.1L189.7 573.9L191.7 575.4L193.3 576.8L194.6 578L195.6 578.9L196.2 579.4L197.1 579.9L198 580L199 579.7L199.7 579.1L200.2 578.2L200.3 577.2L200 576.3L199.4 575.5L198.8 575L197.5 574.1L196 573.2L194.2 572.1L192.2 570.7L190.2 569L188 567L185.6 564.6L184.3 563.2L182.8 561.6L181.2 559.8L179.4 557.9L177.6 555.9L175.7 553.8L173.8 551.7L172 549.5L170.2 547.4L168.5 545.4L166.9 543.6L165.4 542L164.1 540.6L162.9 539.3L159.4 536.6L157.7 536.1L157.1 536.1L155.7 535.4L154.8 534.8L154.1 534.5L153.2 534.6L152.5 534.9L151.9 535.5L151.6 536.3L151.7 537.1L152 537.8Z"/>
<path d="M155.6 551.3L155 552.6L154.1 554.3L153.1 556.3L152 558.5L150.8 560.9L149.5 563.3L148 565.7L146.6 567.9L145.1 570L143.8 571.8L142.2 573.9L140.5 576L138.9 578.1L137.3 580.1L135.7 582L134.3 583.7L132.9 585.1L131.7 586.2L130.1 588.1L129.6 589.1L129.6 590.3L130 591.5L130.8 592.4L131.8 592.9L133 592.9L134.2 592.5L135.1 591.7L136.3 589.7L137 588.3L138 586.7L139.3 584.8L140.8 582.8L142.4 580.7L144.1 578.6L145.8 576.3L147.4 574.1L148.7 572.1L150.1 569.9L151.5 567.6L152.8 565.1L154.1 562.7L155.4 560.3L156.6 558.1L157.6 556.1L158.5 554.5L159.2 553.2L159.4 552.5L159.3 551.7L159 551L158.4 550.5L157.6 550.3L156.8 550.4L156.1 550.7Z"/>
<path d="M136.8 651.5L136.4 652.9L135.8 654.6L135.1 656.7L134 659.2L132.5 662.2L131.6 663.7L130.6 665.2L129.5 666.9L128.2 668.7L126.9 670.6L125.5 672.7L124.1 674.9L122.7 677.3L121.4 679.9L120.1 682.6L119 685.5L118.2 687.5L117.5 689.6L116.7 691.8L116 694.2L115.2 696.6L114.4 699L113.7 701.6L112.9 704.1L112.2 706.6L111.4 709.2L110.7 711.7L110 714.1L109.4 716.5L108.7 718.8L108.1 720.9L107.6 722.9L107 724.8L106.2 727.7L105.6 730.2L105 732.3L104.5 734.3L104.1 736.1L103.7 737.8L103.2 739.7L102.6 741.6L101.9 743.9L101.1 746.6L100.5 748.4L99.8 750.4L99.1 752.6L98.4 754.9L97.6 757.3L96.8 759.8L95.9 762.3L95 764.9L94 767.4L93.1 769.9L92.1 772.4L91.3 774.8L90.4 777.1L89.6 779.4L88.9 781.5L88.3 783.4L87.8 785.2L86.8 788.9L86.2 791.9L85.9 794.5L85.7 796.7L85.6 798.7L85.7 800.6L85.7 802.6L86 805.5L86.6 808.3L87.3 810.6L87.9 812.6L88.2 814.4L88.3 816.6L88.2 818.9L88.2 821.6L88.5 824.4L89.2 826.9L90.1 829.3L90.8 831.6L91.4 833.5L91.9 834.8L91.9 834.9L92.5 835.8L93.3 836.5L94.4 836.8L95.5 836.6L96.4 836.1L97.1 835.2L97.4 834.2L97.2 833.1L97.1 832.8L96.5 831.5L95.4 829.8L94.3 827.8L93.4 825.6L92.8 823.6L92.4 821.3L92.4 818.9L92.4 816.4L92.2 813.7L91.7 811.5L91.1 809.3L90.4 807.1L89.9 804.8L89.7 802.3L89.6 800.5L89.6 798.7L89.6 797L89.8 795L90.2 792.7L90.8 789.8L91.7 786.3L92.2 784.6L92.8 782.7L93.5 780.7L94.3 778.5L95.1 776.2L96 773.8L96.9 771.3L97.9 768.8L98.8 766.3L99.7 763.7L100.6 761.2L101.4 758.7L102.2 756.3L102.9 753.9L103.6 751.7L104.3 749.7L104.9 747.8L105.7 745L106.5 742.6L107 740.5L107.5 738.6L108 736.8L108.4 735L108.8 733.1L109.3 731L109.9 728.6L110.7 725.8L111.2 723.9L111.8 721.9L112.4 719.8L113.1 717.5L113.8 715.2L114.5 712.7L115.3 710.3L116 707.7L116.8 705.2L117.5 702.7L118.3 700.2L119.1 697.8L119.9 695.4L120.6 693.2L121.4 691L122.2 689L122.9 687.1L124 684.4L125.2 681.9L126.4 679.4L127.7 677.2L129.1 675L130.5 673L131.8 671.1L133 669.3L134.2 667.5L135.3 665.8L136.3 664.1L137.8 660.9L138.9 658.1L139.7 655.8L140.2 654.1L140.7 652.8L140.8 652L140.5 651.2L140.1 650.6L139.4 650.2L138.6 650.1L137.8 650.3L137.2 650.8Z"/>
<path d="M260.7 635.8L260.7 635.7L260.8 636.8L260.8 637.9L260.8 639.3L260.9 640.9L261 643L261.3 645.4L261.7 648.4L262.3 651.9L263.3 656.1L263.7 657.8L264.2 659.6L264.7 661.5L265.3 663.5L265.9 665.7L266.5 668L267.1 670.3L267.7 672.8L268.4 675.3L269 677.8L269.7 680.4L270.5 683L271.2 685.7L271.9 688.4L272.7 691L273.4 693.7L274.1 696.3L274.9 699L275.5 701.5L276.2 704L276.8 706.5L277.4 708.9L278 711.2L278.5 713.4L279 715.5L279.5 717.5L280.2 720.5L280.8 723.5L281.5 726.4L282.1 729.3L282.8 732L283.4 734.7L283.9 737.3L284.4 739.7L284.9 742.2L285.2 744.5L285.5 746.7L285.8 748.8L286.1 750.8L286.4 752.7L286.7 754.5L287 756.2L288 760.4L288.8 763.1L289.7 764.9L290.5 766.4L291.6 768.1L292.9 770.3L294.5 772.3L296 774.2L297.4 776L298.5 777.6L299.6 779.8L300.5 782.2L301.4 784.6L302.6 786.7L304 788.5L305.5 790.1L307.2 791.4L309.2 792.4L311.1 793L313.2 793.5L315.5 793.9L317.8 794.1L320 794.1L322.5 793.7L324.9 792.9L327.3 791.8L329.9 790.3L331.7 789L333.6 787.5L335.5 785.9L337.5 784.2L339.4 782.6L341.2 781.3L342.7 780.4L345.2 779.3L347.5 778.8L349.6 778.5L351.4 778.4L353.2 778.5L354.5 779L355.9 779.8L357.3 780.8L358.7 782.1L359.9 783.4L360.9 784.8L361.7 786.4L362.4 788L362.8 789.6L363 791.2L363 793.4L362.9 795L362.6 796.8L362.2 798.8L361.8 800.9L361.2 802.9L360.4 804.9L359.5 807.1L358.5 809.3L357.4 811.4L356.2 813.5L355.1 815.1L353.9 816.8L352.6 818.4L351.2 820L349.9 821.4L348.6 822.8L347 824.2L345.5 825.5L344 826.6L342.4 827.7L340.7 828.7L339.2 829.6L338 830.3L336.6 830.9L334.8 831.6L331.9 832.5L330.2 833L328.3 833.6L326 834.1L323.6 834.6L321.1 835.1L318.4 835.6L315.7 836.1L313.1 836.6L310.5 837.2L308 837.9L305.7 838.6L303 839.6L300.5 840.7L298.1 841.8L295.8 842.9L293.6 844L291.5 845L289.5 845.9L287.4 846.7L285.4 847.3L283.2 847.8L280.7 848.2L278.1 848.5L275.4 848.6L272.8 848.7L270.3 848.6L268 848.4L266 848.1L264.3 847.8L261.7 847.5L262.2 855.6L263.5 855.3L264.6 854.5L265.2 853.4L265.4 852.1L265.1 850.8L264.3 849.7L263.1 849L261.8 848.9L262 854.3L264.6 853.9L266.1 853.6L268 853.4L270.3 853.3L272.8 853.3L275.6 853.2L278.4 853.1L281.2 852.8L283.9 852.5L286.5 852L289 851.3L291.3 850.4L293.6 849.4L295.8 848.3L298 847.1L300.2 846L302.5 844.9L304.8 843.9L307.2 843.1L309.4 842.4L311.7 841.8L314.2 841.2L316.8 840.7L319.4 840.1L322 839.5L324.6 838.9L327 838.4L329.3 837.8L331.3 837.3L333.1 836.7L336.1 835.7L338.3 834.9L339.9 834.1L341.3 833.3L342.8 832.4L344.6 831.3L346.4 830.1L348.1 828.8L349.8 827.4L351.5 825.8L352.9 824.3L354.3 822.7L355.7 821L357.1 819.2L358.4 817.4L359.6 815.6L361 813.4L362.2 811.1L363.3 808.7L364.3 806.4L365.1 804.2L365.8 801.9L366.3 799.6L366.6 797.4L366.9 795.4L367 793.5L367.1 791L366.8 788.8L366.2 786.7L365.4 784.6L364.4 782.7L363.1 780.8L361.6 779.1L359.9 777.5L358.1 776.2L356.2 775.1L354 774.3L351.4 774L349.1 774.1L346.6 774.5L343.7 775.2L340.7 776.6L338.8 777.9L336.8 779.3L334.9 781L332.9 782.6L330.9 784.1L329.1 785.5L327.5 786.5L325.1 787.8L323 788.7L321.3 789.3L319.4 789.5L317.8 789.6L315.9 789.4L314.1 789.1L312.4 788.6L311 788.2L309.7 787.5L308.7 786.7L307.7 785.6L306.6 784.3L305.8 782.7L305 780.6L304 778L302.7 775.3L301.3 773.2L299.7 771.2L298.2 769.4L296.8 767.6L295.6 765.7L294.6 764.1L293.8 762.9L293.2 761.5L292.4 759.2L291.4 755.2L291 753.7L290.7 751.9L290.4 750.1L290.1 748.1L289.7 746L289.3 743.8L288.9 741.5L288.4 739.1L287.9 736.6L287.3 734L286.7 731.3L286 728.5L285.4 725.7L284.7 722.7L284.1 719.7L283.5 716.5L283.1 714.5L282.6 712.4L282.1 710.2L281.5 707.8L280.9 705.4L280.3 703L279.6 700.5L278.9 697.9L278.2 695.2L277.6 692.6L276.9 689.9L276.2 687.2L275.5 684.5L274.8 681.9L274.1 679.2L273.4 676.6L272.8 674.1L272.1 671.6L271.5 669.1L270.8 666.8L270.2 664.6L269.7 662.4L269.1 660.4L268.6 658.5L268.2 656.7L267.8 655.1L267 651L266.4 647.6L265.9 644.8L265.7 642.5L265.5 640.6L265.4 639.1L265.4 637.7L265.4 636.5L265.3 635.3L265.3 635.2L265 634.3L264.4 633.7L263.6 633.3L262.7 633.2L261.8 633.5L261.1 634.1L260.7 634.9Z"/>
<path d="M209.9 655.6L209.9 656L210.1 657.5L210.3 659.3L210.6 661.4L210.9 663.8L211.2 666.4L211.5 669.1L211.8 672L212.2 674.9L212.6 677.7L213 680.5L213.4 683.1L213.9 685.5L214.3 687.7L214.9 690.4L215.5 693L216.1 695.3L216.7 697.6L217.4 699.7L218.1 701.7L218.8 703.7L219.6 705.6L220.4 707.6L221.3 709.7L222.2 711.6L223 713.3L223.8 715.1L224.7 717L225.7 719.1L227 721.6L228.5 724.5L229.4 726.2L230.5 728.1L231.6 730.1L232.8 732.3L234.1 734.5L235.4 736.9L236.7 739.3L238.1 741.7L239.4 744.2L240.7 746.6L242 748.9L243.3 751.2L244.4 753.3L245.4 755.4L246.3 757.2L247.1 759L248.5 761.9L249.7 763.7L250.4 764.8L251 765.8L251.5 767.3L252.1 770L252.7 774.4L252.9 776.1L253.2 777.9L253.4 779.9L253.7 782L254 784.4L254.4 786.8L254.8 789.3L255.1 792L255.5 794.7L255.8 797.5L256.2 800.4L256.5 803.2L256.8 806.1L257.2 808.9L257.5 811.8L257.9 814.6L258.2 817.3L258.6 819.9L258.9 822.5L259.2 824.9L259.5 827.2L259.7 829.4L260 831.4L260.2 833.2L260.4 834.8L261.1 839.4L261.7 842.6L262.3 844.7L262.9 846.2L263.5 847.3L264.2 848.3L265 849.6L266.5 851.8L268.2 853.7L270 855.4L271.7 856.8L273.2 858.1L275.5 859.5L277.7 860.1L279.8 860.4L281.8 860.8L284 860.9L287 860.4L288.8 859.8L290.9 859.1L293.3 858.3L295.7 857.5L298 856.6L300.2 855.7L302.1 854.8L304.6 853.3L306.6 851.7L308 850.2L309.4 848.8L311.6 846.5L312.7 844.8L313 843.5L312.8 842.3L312.1 841.2L311.1 840.4L309.8 840.1L308.5 840.3L307.5 841L306.7 842L306.2 843.5L305.2 846L304.4 847.3L303.3 848.7L301.9 850.1L299.8 851.3L298.2 851.9L296.1 852.7L293.9 853.5L291.5 854.2L289.3 855L287.3 855.6L285.9 856.1L283.6 856.4L282.3 856.3L280.5 855.9L278.5 855.6L277.2 855.3L275.6 854.3L274.4 853.4L272.9 852.1L271.4 850.7L270.1 849.2L268.9 847.3L268.1 846L267.5 845.1L267.2 844.4L266.9 843.4L266.4 841.6L265.9 838.6L265.2 834.1L265 832.5L264.7 830.8L264.5 828.8L264.2 826.6L264 824.4L263.7 821.9L263.4 819.4L263 816.7L262.6 814L262.3 811.2L261.9 808.4L261.5 805.6L261.1 802.7L260.7 799.8L260.2 797L259.8 794.2L259.3 791.5L258.8 788.9L258.4 786.3L258 783.8L257.7 781.5L257.4 779.3L257.1 777.3L256.8 775.4L256.5 773.8L255.7 769.3L255 766.4L254.3 764.4L253.5 762.9L252.6 761.7L251.6 760.1L250.3 757.3L249.5 755.6L248.6 753.7L247.6 751.6L246.5 749.4L245.3 747.1L244 744.8L242.7 742.3L241.4 739.9L240.1 737.5L238.8 735L237.5 732.7L236.2 730.4L235 728.3L233.9 726.2L232.9 724.4L232.1 722.7L230.6 719.8L229.4 717.4L228.3 715.3L227.5 713.5L226.7 711.8L226 710.1L225.2 708.3L224.3 706.3L223.5 704.3L222.8 702.4L222 700.5L221.4 698.5L220.8 696.5L220.2 694.4L219.6 692.1L219 689.6L218.4 686.9L217.9 684.8L217.4 682.5L217 679.9L216.6 677.2L216.2 674.3L215.9 671.5L215.6 668.6L215.3 665.9L215.1 663.3L214.8 660.9L214.5 658.8L214.3 656.9L214.1 655.5L214.1 655L213.8 654.2L213.3 653.6L212.5 653.3L211.7 653.2L210.9 653.5L210.3 654L209.9 654.8Z"/>
<path d="M56.2 722.2L56.7 722.1L58.3 721.7L60.6 721.2L63.3 720.6L66.1 720L68.7 719.5L71 719.3L73.2 719.2L75.1 719.2L76.9 719.4L78.8 719.7L80.9 720.2L83 720.7L85.1 721.4L87.4 722.2L89.7 723.1L91.9 724.1L94 725.2L96.2 726.4L98.5 727.9L100.8 729.4L102.9 731L104.7 732.4L106.1 733.6L108 734.9L109.1 735.3L110.2 735.3L111.3 734.8L112.2 734L112.6 732.9L112.6 731.7L112.1 730.6L111.3 729.8L109.4 728.7L107.8 727.9L105.8 726.8L103.5 725.4L101.1 723.8L98.6 722.2L96.2 720.9L93.9 719.7L91.5 718.7L89 717.7L86.6 716.8L84.3 716.1L82 715.5L79.7 715L77.4 714.7L75.3 714.6L73 714.6L70.6 714.7L68 715L65.2 715.5L62.3 716.1L59.6 716.7L57.3 717.2L55.7 717.6L55.3 717.7L54.4 718.1L53.8 718.7L53.4 719.5L53.4 720.4L53.8 721.3L54.4 721.9L55.2 722.2Z"/>
<path d="M277.6 706.8L276.9 707.4L275.7 708.6L274.1 710.2L272.1 712L270.2 713.9L268.2 715.7L266.4 717.2L264.5 718.6L262.5 719.8L260.6 720.9L258.6 721.9L256.5 722.8L254.3 723.5L252.1 724.2L249.8 724.6L247.4 724.9L244.9 725L242.5 724.9L239.9 724.7L237.1 724.3L234.6 723.7L232.4 723.1L230.8 722.8L230.6 722.8L229.6 722.9L228.7 723.3L228.1 724L227.8 725L227.9 726L228.3 726.8L229.1 727.5L230 727.8L230.1 727.8L231.7 727.9L233.9 728L236.6 728.2L239.5 728.6L242.3 728.9L244.9 729L247.6 728.9L250.3 728.6L252.8 728.1L255.3 727.5L257.7 726.7L260.1 725.7L262.4 724.7L264.6 723.5L266.8 722.2L269.1 720.7L271.1 719.1L273.2 717.2L275.3 715.2L277.1 713.2L278.7 711.6L279.9 710.4L280.4 709.9L280.9 709.2L281.1 708.4L281 707.6L280.5 706.9L279.9 706.4L279.1 706.2L278.2 706.4Z"/>
<path d="M77.4 878.7L76.6 879L74.3 880L72.8 880.8L71 881.7L69.1 882.7L67 883.6L64.8 884.4L62.6 884.9L60.7 885.2L58.5 885.4L56.2 885.4L53.9 885.4L51.6 885.2L49.5 885L47.6 884.7L45.2 884.1L42.9 883.4L40.8 882.6L39 881.6L37.4 880.6L35.7 879.2L34.5 877.6L33.5 875.8L32.7 873.9L32.2 872.2L31.9 870.5L31.7 868.6L31.7 866.6L31.8 864.4L32 862.7L32.2 861.2L32.5 859.7L32.9 857.7L33.6 855.2L34.6 851.8L35.1 850.1L35.8 848.2L36.5 846L37.3 843.7L38.2 841.3L39 838.7L39.9 836.1L40.8 833.5L41.7 830.9L42.6 828.4L43.5 826L44.3 823.7L45.1 821.6L45.8 819.8L46.4 818.2L47.9 815L49.1 812.8L50.2 811.2L51.2 810L52.2 808.9L53.3 807.9L54.8 806.8L56.1 806.2L57.5 805.9L59.3 805.6L61.2 805.4L63 805.4L65 805.6L67.1 806L69.1 806.4L71.2 807L73.5 807.8L75.7 808.7L77.7 809.7L79.7 810.8L81.7 812L83.6 813.3L85.3 814.6L86.9 816L88.4 817.4L89.7 818.8L90.8 820.3L91.8 822L92.6 824.3L92.9 825.8L93.2 827.8L93.3 830L93.5 832.4L93.6 834.8L93.8 837.3L94 839.7L94.3 842L94.7 844L95.4 846.5L96.2 848.7L97 850.7L97.8 852.5L98.8 854.3L99.8 856.1L100.9 857.9L102.1 859.6L103.4 861.2L104.9 862.9L106.6 864.5L108.7 866.3L110.5 867.6L112.5 868.9L114.7 870.3L117 871.7L119.3 873.2L121.5 874.6L123.5 876.1L125.2 877.4L126.5 878.5L128.4 880.7L129.2 882.4L129.6 883.9L129.9 885.3L130.1 886.8L129.8 887.9L129.1 889.2L128 890.8L126.5 892.4L124.7 893.8L123.2 894.7L121.4 895.5L119.5 896.2L117.3 896.9L115.4 897.3L113.2 897.6L111 897.9L108.7 898.2L106.2 898.4L104.1 898.5L101.8 898.5L99.4 898.5L97.1 898.5L94.8 898.4L92.7 898.2L90.4 897.9L88.2 897.6L86.2 897.2L84.2 896.7L82.2 896.2L80.1 895.6L78.1 894.9L76.1 894.1L74.3 893.3L72.6 892.6L70.6 891.4L68.7 889.9L67.1 888.4L65.8 887.4L65.6 887.3L64.5 886.8L63.4 886.8L62.3 887.2L61.5 888L61 889.1L61 890.2L61.4 891.3L62.2 892.1L62.3 892.2L63.6 893L65.6 894.2L68 895.5L70.3 896.8L72.3 897.7L74.4 898.5L76.6 899.3L78.8 900L81 900.7L83.2 901.2L85.4 901.7L87.6 902.1L89.9 902.4L92.4 902.7L94.6 902.8L97 902.9L99.5 903L101.9 902.9L104.3 902.8L106.6 902.7L109.1 902.4L111.6 902.1L114 901.8L116.3 901.4L118.4 900.9L120.9 900.2L123.2 899.4L125.2 898.4L127.2 897.3L129.5 895.5L131.4 893.5L132.9 891.4L134 889.3L134.4 886.9L134.2 884.5L133.9 882.6L133.2 880.5L131.8 878L129.5 875.4L127.9 873.9L126 872.5L124 871L121.7 869.6L119.4 868.1L117.1 866.7L115 865.4L113.1 864.1L111.6 862.9L109.7 861.3L108.1 859.7L106.8 858.3L105.7 856.9L104.6 855.4L103.5 853.8L102.5 852.2L101.6 850.6L100.9 849.1L100.2 847.4L99.6 845.5L99.1 843.2L98.8 841.5L98.6 839.5L98.5 837.2L98.3 834.8L98.1 832.3L98 829.8L97.8 827.4L97.5 825.2L97.1 823.1L96.2 820.2L94.9 817.8L93.5 815.8L92 814.1L90.4 812.4L88.5 810.8L86.4 809.2L84.3 807.9L82.1 806.6L79.9 805.4L77.6 804.3L75.2 803.3L72.8 802.3L70.5 801.5L68.2 800.9L65.6 800.5L63.2 800.3L60.8 800.3L58.6 800.6L56.5 801L54.4 801.5L52.2 802.5L50.1 804.1L48.8 805.3L47.5 806.6L46.2 808.1L44.8 810.1L43.3 812.7L41.7 816.1L41 817.8L40.2 819.8L39.4 821.9L38.5 824.2L37.6 826.7L36.7 829.2L35.8 831.8L34.9 834.5L34 837.1L33.2 839.7L32.4 842.2L31.7 844.5L31.1 846.7L30.6 848.7L30.1 850.5L29.1 853.9L28.4 856.6L27.9 858.8L27.6 860.6L27.4 862.3L27.3 864.2L27.2 866.6L27.2 868.9L27.4 871.2L27.8 873.3L28.4 875.4L29.4 877.9L30.8 880.1L32.6 882.3L34.7 884.1L36.8 885.4L39 886.5L41.5 887.5L44.1 888.4L46.9 889L49.1 889.3L51.4 889.6L53.8 889.8L56.3 889.9L58.8 889.9L61.2 889.8L63.6 889.6L66.2 889L68.7 888.2L71.1 887.2L73.2 886.2L75 885.3L76.3 884.7L78.6 883.9L79.4 883.5L80.2 883L80.8 882.1L81 881.1L80.8 880.1L80.3 879.3L79.4 878.7L78.4 878.5Z"/>
<path d="M290.7 765.4L292.1 766.6L293.3 767.6L294.6 768.7L295.3 769.8L295.5 770.8L295.3 772.2L294.8 773.9L294.2 775.4L293.3 777.2L292.2 778.9L291.1 780.6L289.9 782.1L288.8 783.5L287.5 784.7L285.6 786L283.9 786.9L282 787.8L279.8 788.8L277.6 789.7L275.3 790.3L273 790.7L270.8 790.8L268.3 790.7L265.6 790.5L263 790L260.5 789.3L258.4 788.6L256.9 788.3L255.8 788.4L254.7 788.9L254 789.7L253.6 790.8L253.7 792L254.2 793L255.1 793.8L256.1 794.1L257.6 794.2L259.8 794.3L262.3 794.4L265.1 794.7L268 795L270.8 795.2L273.5 795.2L276.3 794.7L279 794L281.6 793L283.9 792L286 790.9L287.9 789.8L290.2 788.3L292 786.6L293.5 784.9L294.8 783.3L296.2 781.4L297.4 779.4L298.5 777.3L299.3 775.3L300 773L300.2 770.5L299.6 767.9L298 765.6L296.2 764.2L295 763.4L293.8 762.3L293.1 761.8L292.2 761.6L291.4 761.8L290.7 762.3L290.2 763L290 763.8L290.2 764.7Z"/>
<path d="M30.9 867.9L32.5 868L34.6 867.9L37 867.9L39.7 867.9L42.5 868L45.2 868.2L47.8 868.7L49.8 869.1L51.7 869.5L53.6 870L55.5 870.5L57.5 871.1L59.6 871.9L61.7 872.9L64.1 874.1L66.7 875.6L68.2 876.7L69.9 878L71.8 879.5L73.7 881.2L75.7 883L77.7 884.8L79.8 886.8L81.8 888.7L83.8 890.6L85.7 892.5L87.6 894.3L89.2 896.1L90.7 897.8L91.8 899.5L92.9 900.9L93.8 901.9L94 902.1L94.8 902.7L95.8 902.8L96.8 902.6L97.7 902L98.2 901.1L98.4 900.1L98.1 899.1L97.5 898.3L97.3 898.1L96.4 897.2L95.1 896.1L93.6 894.8L92.1 893.2L90.4 891.5L88.5 889.6L86.6 887.7L84.6 885.8L82.6 883.8L80.5 881.8L78.5 879.9L76.5 878.1L74.5 876.3L72.6 874.8L70.8 873.4L69.1 872.2L66.4 870.4L63.8 869L61.4 867.9L59.1 866.9L56.9 866.2L54.8 865.6L52.8 865.2L50.8 864.8L48.8 864.4L45.9 864L42.9 863.7L39.9 863.6L37.1 863.6L34.7 863.6L32.6 863.6L31.1 863.6L30.3 863.8L29.6 864.2L29.1 864.9L28.9 865.7L29 866.5L29.4 867.2L30.1 867.7Z"/>
<path d="M569.7 403.6L569.6 405.5L569.4 407.3L568.9 409L568.3 410.4L567.4 411.4L566.5 411.9L565.5 411.9L564.6 411.6L563.7 411.2L562.8 410.5L562 409.3L561.3 407.7L561.1 405.7L561.1 403.6L561.4 401.7L561.8 400L562.3 398.4L562.8 396.8L563.6 395.6L564.5 394.8L565.5 394.6L566.5 395L567.5 395.7L568.3 396.8L569 398.2L569.5 399.8L569.8 401.7Z"/>
</g>
</svg>
