<svg xmlns="http://www.w3.org/2000/svg" width="925" height="535" viewBox="0 0 925 535">
<!-- Afterclap re-ink of margarine-block.png: traced centrelines, hand stroke model, one colour, transparent background -->
<g fill="#1C1815">
<path d="M157.4 128L157.2 128.1L156 128.4L154.5 128.7L152.5 129.2L149.9 129.9L146.9 130.9L143.3 132.3L141.6 132.9L139.8 133.6L137.9 134.4L135.8 135.2L133.7 136L131.4 136.9L129.1 137.8L126.7 138.7L124.3 139.7L121.8 140.8L119.4 141.9L116.9 143.1L114.5 144.2L112.1 145.5L109.8 146.7L107.8 147.8L105.8 149L103.8 150.2L101.7 151.5L99.7 152.9L97.7 154.2L95.7 155.7L93.7 157.1L91.6 158.5L89.6 159.9L87.6 161.4L85.6 162.8L83.6 164.3L81.7 165.8L79.8 167.3L77.9 168.8L76.1 170.3L74.2 172L72.3 173.7L70.4 175.5L68.5 177.3L66.7 179.2L64.9 181.1L63.1 183L61.4 184.9L59.7 186.6L57.9 188.4L56.3 190L54.6 191.6L53.1 193.1L51.6 194.5L50.2 195.8L49 197.1L46.6 199.5L44.7 201.5L43.2 203.2L41.8 204.7L40.6 206.3L39.2 208.1L37.7 210.3L36.4 212.1L35.1 214.1L33.7 216.2L32.4 218.5L31 220.8L29.7 223.1L28.5 225.4L27.4 227.5L26.4 229.6L25.4 231.4L24.2 234.1L23.2 236.4L22.4 238.5L21.8 240.6L21.2 242.7L20.6 245.1L20.1 247.1L19.5 249.2L18.9 251.5L18.4 253.8L17.8 256.1L17.3 258.5L16.9 260.9L16.5 263.3L16.2 265.6L16 267.8L15.8 270L15.7 272.3L15.7 274.7L15.8 277.2L16 280L16.1 283.1L16.2 285.2L16.3 287.5L16.4 290L16.4 292.7L16.5 295.4L16.6 298.2L16.8 301L17 303.8L17.3 306.5L17.6 309L18 311.5L18.3 313.7L18.7 315.8L19.4 318.9L20.1 321.6L20.8 323.8L21.5 325.9L22.3 327.7L23.1 329.6L24 331.6L24.9 333.5L25.8 335.4L26.8 337.3L27.8 339.3L28.9 341.3L30.1 343.4L31.4 345.6L32.8 348L33.9 349.8L35.1 351.8L36.4 353.8L37.7 355.9L39.2 358L40.8 360L42.4 362.1L44 364.1L45.7 366.1L47.3 368.1L48.9 369.9L50.5 371.8L52.2 373.5L53.8 375.3L55.5 377L57.2 378.7L59 380.3L60.7 381.9L62.5 383.5L64.2 385L65.9 386.5L67.5 388L69.1 389.6L70.6 391.1L72 392.6L73.4 394.1L74.8 395.5L76.4 397L78.2 398.6L80.2 400.2L82.6 401.9L85.3 403.6L86.9 404.7L88.7 405.8L90.5 406.9L92.5 408.1L94.5 409.3L96.5 410.5L98.6 411.8L100.8 413.1L103 414.4L105.3 415.7L107.6 417L109.9 418.4L112.2 419.7L114.6 420.9L116.9 422.1L119.3 423.3L121.7 424.4L124 425.6L126.1 426.6L128.2 427.7L130.4 428.8L132.6 429.9L134.8 431L137.1 432.1L139.4 433.2L141.6 434.4L143.9 435.4L146.2 436.5L148.5 437.5L150.8 438.4L153.1 439.3L155.4 440.2L157.6 441.1L159.8 441.9L161.9 442.8L163.9 443.6L165.9 444.4L167.7 445.2L170.4 446.3L172.7 447.3L174.8 448.2L176.8 449L178.7 449.7L180.5 450.4L182.4 451L184.4 451.6L186.5 452.2L188.9 452.9L191.6 453.6L194.7 454.4L198.3 455.4L200 455.8L201.9 456.3L203.8 456.9L205.9 457.4L208 458L210.2 458.6L212.5 459.2L214.8 459.8L217.2 460.4L219.6 461.1L222.1 461.7L224.6 462.3L227.2 462.9L229.8 463.5L232.3 464.2L234.9 464.9L237.5 465.6L240.1 466.3L242.7 467L245.2 467.7L247.8 468.3L250.3 469L252.8 469.6L255.2 470.2L257.6 470.8L259.9 471.4L262.2 472L264.4 472.5L266.5 473L269.2 473.7L271.8 474.2L274.4 474.8L276.9 475.3L279.4 475.7L281.8 476.1L284.1 476.5L286.5 476.9L288.8 477.2L291.1 477.5L293.3 477.9L295.6 478.2L297.8 478.5L300.1 478.9L302.4 479.2L304.6 479.5L307 479.8L309.3 480.1L311.7 480.3L314.2 480.6L316.7 480.8L319.2 481.1L321.5 481.4L323.7 481.7L325.9 482L328.1 482.2L330.3 482.5L332.5 482.8L334.7 483L336.9 483.2L339.1 483.4L341.4 483.6L343.7 483.8L346 484L348.3 484.3L350.7 484.5L353.1 484.7L355.6 484.9L358.1 485.1L360.7 485.3L363.4 485.5L366.1 485.8L369 486.1L371.9 486.3L374.9 486.6L378.1 486.8L381.3 487.1L383.3 487.2L385.5 487.4L387.7 487.5L390 487.6L392.4 487.7L394.8 487.8L397.4 487.9L399.9 488L402.6 488.1L405.2 488.2L407.9 488.3L410.7 488.4L413.5 488.4L416.3 488.6L419.1 488.7L422 488.9L424.8 488.9L427.7 489L430.6 488.9L433.4 488.9L436.3 488.8L439.2 488.8L442 488.9L444.8 488.9L447.5 489L450.3 489L453 489L455.6 489.1L458.2 489.1L460.8 489.1L463.2 489.2L465.7 489.2L468 489.2L470.3 489.2L472.5 489.1L474.6 489.1L476.6 489L478.5 489L480.3 489L482 488.9L483.6 488.9L488.7 489L492.1 489.3L494.1 489.4L495.2 489.6L496.1 489.6L496.9 489.5L497.9 489.4L499.5 489.1L502.4 488.8L507 488.2L508.6 488L510.4 487.7L512.3 487.5L514.3 487.2L516.4 486.9L518.6 486.6L520.9 486.2L523.3 485.9L525.7 485.5L528.3 485.1L530.9 484.6L533.5 484.2L536.2 483.7L539 483.2L541.8 482.7L544.6 482.1L547.4 481.5L550.3 481L553.1 480.4L555.9 479.8L558.8 479.3L561.6 478.8L564.4 478.2L567.2 477.7L569.9 477.2L572.6 476.7L575.3 476.3L577.9 475.9L580.4 475.6L582.9 475.2L585.3 475L587.6 474.7L589.8 474.5L591.9 474.2L593.8 474L595.7 473.7L599.4 473.1L602.8 472.5L606 472L609 471.6L611.9 471.1L614.5 470.7L617 470.3L619.3 469.8L621.5 469.3L623.6 468.8L625.5 468.3L627.4 467.9L629.1 467.4L630.8 466.9L632.4 466.5L634 466L635.6 465.6L639.5 464.4L642.5 463.2L644.9 462.2L646.7 461.4L648 461L649 460.9L650.8 460.3L652.3 459.3L653.2 457.8L653.5 456L653.1 454.3L652 452.8L650.5 451.9L648.8 451.6L647 452L645.2 453.1L643.9 454.1L642.9 455.2L641.6 456.3L639.9 457.3L637.4 458.3L633.7 459.4L632.3 459.8L630.7 460.2L629.1 460.6L627.5 461.1L625.8 461.5L624 462L622.1 462.5L620.1 462.9L617.9 463.4L615.7 463.9L613.2 464.5L610.6 465L607.9 465.5L604.9 466.1L601.7 466.6L598.3 467.1L594.6 467.6L592.8 467.9L590.8 468.1L588.7 468.4L586.5 468.7L584.2 469L581.9 469.4L579.4 469.7L576.9 470.1L574.3 470.6L571.7 471.1L569 471.6L566.2 472L563.5 472.4L560.6 472.8L557.8 473.2L554.9 473.5L552 473.9L549.2 474.3L546.3 474.7L543.5 475.1L540.6 475.5L537.8 475.9L535.1 476.3L532.4 476.7L529.7 477.1L527.1 477.5L524.6 477.9L522.1 478.3L519.7 478.7L517.4 479.1L515.2 479.5L513.2 479.8L511.2 480.2L509.3 480.5L507.6 480.8L506 481.1L501.3 481.8L498.3 482.3L496.5 482.6L495.7 482.8L495.7 482.8L495.5 482.8L494.5 482.7L492.4 482.6L488.9 482.4L483.6 482.3L482 482.3L480.3 482.3L478.5 482.4L476.6 482.4L474.6 482.5L472.5 482.5L470.4 482.5L468.1 482.5L465.8 482.5L463.3 482.4L460.9 482.3L458.3 482.2L455.7 482.1L453.1 482L450.4 481.9L447.7 481.9L444.9 481.8L442.1 481.8L439.3 481.8L436.5 481.7L433.6 481.6L430.7 481.5L427.9 481.3L425 481.2L422.2 481.2L419.3 481.2L416.5 481.2L413.7 481.2L410.9 481.2L408.2 481.1L405.5 481L402.8 481L400.2 480.9L397.6 480.8L395.1 480.7L392.7 480.7L390.3 480.6L388 480.5L385.8 480.4L383.7 480.3L381.7 480.2L378.5 480L375.4 479.8L372.4 479.6L369.5 479.4L366.7 479.3L363.9 479.2L361.3 479.1L358.7 478.9L356.2 478.7L353.8 478.5L351.4 478.2L349 478L346.7 477.7L344.5 477.4L342.2 477.1L340 476.8L337.8 476.5L335.6 476.2L333.5 475.9L331.3 475.6L329.1 475.4L326.9 475.1L324.7 474.8L322.4 474.5L320.1 474.2L317.6 473.8L315.1 473.5L312.6 473.2L310.2 472.9L307.9 472.6L305.6 472.4L303.3 472.1L301 471.9L298.8 471.6L296.6 471.4L294.3 471.1L292.1 470.9L289.8 470.6L287.5 470.4L285.2 470.1L282.9 469.9L280.5 469.5L278.1 469.1L275.6 468.6L273.1 468.1L270.5 467.6L267.8 467.1L265.7 466.6L263.5 466.2L261.2 465.6L258.9 465.1L256.5 464.5L254.1 463.9L251.7 463.3L249.2 462.6L246.6 462L244.1 461.3L241.5 460.6L239 459.9L236.4 459.3L233.8 458.6L231.2 457.9L228.7 457.1L226.2 456.4L223.7 455.6L221.3 454.9L218.8 454.2L216.5 453.5L214.2 452.7L212 452.1L209.8 451.4L207.7 450.8L205.7 450.2L203.7 449.7L201.9 449.2L200.1 448.7L196.6 447.8L193.5 447L190.8 446.3L188.4 445.7L186.3 445.1L184.4 444.5L182.6 443.9L180.9 443.2L179.1 442.6L177.2 441.8L175.2 441L172.9 440L170.2 438.9L168.4 438.2L166.4 437.4L164.4 436.7L162.3 435.9L160.1 435.1L157.9 434.3L155.7 433.4L153.4 432.5L151.2 431.5L148.9 430.5L146.6 429.4L144.4 428.4L142.1 427.3L139.8 426.3L137.6 425.2L135.3 424.1L133.1 423.1L131 422.1L128.8 421.2L126.7 420.3L124.4 419.2L122 418.1L119.7 416.9L117.4 415.7L115.1 414.4L112.8 413.1L110.6 411.8L108.3 410.4L106.1 409.1L103.9 407.8L101.8 406.5L99.7 405.2L97.7 404L95.7 402.9L93.8 401.8L92 400.7L90.3 399.6L88.7 398.6L86.1 396.9L84 395.3L82.1 393.8L80.5 392.4L79 391L77.7 389.7L76.3 388.3L74.9 386.8L73.4 385.3L71.7 383.7L70 382.1L68.4 380.6L66.8 379L65.1 377.4L63.5 375.8L61.8 374.2L60.2 372.5L58.5 370.9L56.9 369.1L55.4 367.4L53.8 365.6L52.3 363.8L50.6 362L49 360.1L47.4 358.1L45.8 356.1L44.2 354.2L42.7 352.2L41.2 350.3L39.8 348.4L38.5 346.7L37.4 345L36 342.8L34.7 340.7L33.5 338.8L32.5 336.9L31.5 335.1L30.6 333.3L29.7 331.5L28.8 329.6L27.9 327.6L27.1 325.8L26.5 324.1L25.9 322.3L25.3 320.3L24.7 317.8L24.2 314.8L23.9 312.9L23.6 310.7L23.3 308.4L23 305.8L22.7 303.2L22.6 300.5L22.4 297.7L22.4 294.9L22.3 292.2L22.2 289.6L22.1 287.1L22 284.8L21.9 282.7L21.8 279.7L21.8 277L21.9 274.6L22 272.4L22.1 270.3L22.3 268.2L22.5 266.1L22.7 263.9L23.1 261.7L23.5 259.4L24 257.2L24.5 255L25.1 252.8L25.7 250.7L26.3 248.7L26.8 246.7L27.4 244.4L28 242.4L28.5 240.6L29.1 238.8L30 236.7L31.1 234.3L32.1 232.5L33.2 230.6L34.4 228.6L35.7 226.5L37 224.3L38.4 222L39.6 219.9L40.9 217.8L42.1 215.8L43.2 214.1L44.6 212L45.8 210.4L46.8 209.1L48 207.8L49.5 206.2L51.3 204.3L53.7 201.8L54.9 200.5L56.2 199.1L57.6 197.6L59.1 196L60.7 194.4L62.3 192.7L64 191L65.7 189.3L67.5 187.5L69.2 185.6L70.9 183.8L72.7 181.9L74.4 180L76.1 178.2L77.9 176.5L79.8 174.9L81.6 173.5L83.4 172.1L85.4 170.8L87.4 169.5L89.4 168.2L91.4 166.9L93.4 165.5L95.4 164.2L97.5 162.8L99.5 161.5L101.5 160.2L103.5 158.9L105.5 157.6L107.5 156.4L109.5 155.2L111.5 154.1L113.5 153L115.8 151.8L118.1 150.7L120.4 149.6L122.8 148.5L125.2 147.4L127.5 146.3L129.9 145.3L132.2 144.3L134.5 143.4L136.7 142.5L138.8 141.8L140.8 141L142.8 140.3L144.5 139.7L146 139.1L149.3 137.9L151.9 137.1L154 136.6L155.7 136.3L157.4 136.1L158.8 135.8L159.5 135.6L160.8 134.9L161.8 133.8L162.3 132.3L162.2 130.8L161.5 129.4L160.4 128.4L159 127.9Z"/>
<path d="M858.2 290.8L858.6 292.3L859.2 293.8L859.8 295L860.2 296.3L860.4 298.5L860.3 299.9L860.2 301.9L860 304L859.7 306.4L859.4 308.8L859 311.2L858.5 313.5L858 315.6L857.3 317.7L856.7 319.7L856 321.7L855.2 323.6L854.4 325.6L853.6 327.6L852.7 329.6L851.6 331.7L850.7 333.5L849.7 335.3L848.7 337.1L847.7 339L846.7 340.9L845.6 342.8L844.5 344.7L843.3 346.6L842.2 348.6L841 350.4L839.8 352.2L838.5 354L837.1 355.9L835.7 357.8L834.4 359.6L833 361.5L831.7 363.3L830.4 365L829.2 366.6L827.7 368.6L826.6 370.1L825.7 371.3L824.8 372.4L823.4 373.8L821.3 375.9L818.1 378.6L816.8 379.7L815.3 380.9L813.6 382.2L811.7 383.6L809.8 385.1L807.7 386.7L805.6 388.4L803.4 390.1L801.1 391.9L798.8 393.7L796.5 395.4L794.2 397.2L791.9 399L789.7 400.7L787.6 402.3L785.5 403.9L783.6 405.4L781.7 406.8L780 408.1L778.5 409.3L777.1 410.3L775.9 411.1L771.4 413.4L779.8 421.4L781.1 420L781.7 418.1L781.5 416.2L780.6 414.5L779.1 413.2L777.3 412.6L775.4 412.8L773.6 413.7L777.4 421L780.9 417.4L782 416.5L783.3 415.4L784.8 414.2L786.5 412.9L788.3 411.5L790.2 409.9L792.2 408.2L794.3 406.5L796.4 404.7L798.7 402.9L800.9 401L803.2 399.2L805.4 397.3L807.6 395.5L809.8 393.7L811.9 392L814 390.3L815.9 388.7L817.7 387.2L819.3 385.8L820.8 384.5L822.2 383.4L825.5 380.6L827.9 378.5L829.6 376.9L830.8 375.5L831.9 374.2L833 372.7L834.5 370.9L835.8 369.3L837.2 367.6L838.6 365.8L840 364L841.5 362.1L842.9 360.2L844.3 358.2L845.6 356.2L846.9 354.3L848.1 352.4L849.3 350.4L850.6 348.4L851.8 346.4L853 344.5L854.1 342.5L855.2 340.6L856.3 338.6L857.2 336.6L858.2 334.7L859.1 332.5L860.1 330.3L861 328.2L861.8 326.1L862.7 323.9L863.5 321.8L864.3 319.6L865 317.4L865.7 315L866.3 312.5L866.9 310L867.3 307.4L867.7 304.9L868 302.6L868.2 300.4L868.3 298.4L868 295.1L867.3 292.4L866.6 290.7L866.3 289.8L866.1 288.8L865.4 287.4L864.2 286.3L862.8 285.8L861.2 285.9L859.7 286.5L858.7 287.7L858.1 289.2Z"/>
<path d="M239.4 302.6L239.5 302.8L240 303.1L238.2 301.3L233 299.6L231.4 299.1L229.6 298.7L227.7 298.3L225.5 297.8L223.1 297.3L220.6 296.8L218 296.3L215.3 295.7L212.5 295.2L209.7 294.7L206.8 294.2L204 293.7L201.2 293.2L198.5 292.6L195.9 292.1L193.4 291.6L191.1 291.1L189 290.5L187.2 290L185.6 289.5L181.9 288.3L179.2 287.3L177.3 286.4L175.9 285.7L174.7 285L173.6 284.1L172.2 283.2L170.1 282.1L169.7 281.8L168.8 279.5L168.3 278.1L167.8 276.3L167.3 274.3L166.7 272.1L166.1 269.7L165.5 267.4L165 265L164.5 262.7L164.1 260.6L163.8 258.4L163.7 256.4L163.7 254.4L163.7 252.4L163.7 250.2L163.7 247.8L163.6 245.2L163.4 242.3L163.1 240.4L162.9 238.5L162.6 236.5L162.3 234.5L162.1 232.5L161.8 230.4L161.5 228.2L161.2 225.9L160.9 223.5L160.6 220.9L160.2 218.1L160 215.1L159.8 211.9L159.7 210L159.6 207.8L159.5 205.5L159.4 203.1L159.3 200.6L159.2 198L159 195.3L158.9 192.5L158.7 189.7L158.6 186.9L158.4 184L158.4 181.2L158.3 178.3L158.2 175.5L158.1 172.8L158 170.1L157.9 167.5L157.8 165L157.8 162.6L157.8 160.4L157.9 158.3L158 156.4L158.1 154.6L158.4 150.4L158.6 147.2L158.8 144.7L159 142.7L159.2 141.1L159.4 139.6L159.6 138.1L159.8 136.3L160.1 133.4L160.5 130.8L161 128.6L161.5 126.5L162.2 124.7L163 122.8L163.8 121.6L164.7 120.3L166.2 118.5L167.3 117.2L168.3 116L169.3 114.7L170.7 113.1L172.7 110.9L175.6 107.9L176.8 106.7L178.1 105.4L179.5 104L180.9 102.5L182.4 101L184 99.3L185.6 97.6L187.3 95.9L189 94.1L190.8 92.2L192.6 90.3L194.4 88.4L196.4 86.5L198.3 84.6L200.4 82.8L202.4 80.9L204.5 79L206.5 77.1L208.2 75.7L209.9 74.2L211.7 72.7L213.6 71.2L215.5 69.7L217.6 68.2L219.6 66.6L221.7 65.1L223.9 63.5L226 61.9L228.2 60.4L230.3 58.8L232.5 57.2L234.6 55.6L236.7 54.1L238.8 52.5L240.9 51.1L242.9 49.7L244.9 48.3L246.9 47L248.8 45.8L250.7 44.7L252.4 43.6L254.1 42.5L256.9 40.7L259.7 38.9L262.3 37.3L264.7 35.7L267.1 34.3L269.3 33L271.5 31.8L273.4 30.6L275.3 29.5L277 28.4L278.6 27.4L280 26.5L281.7 25.3L283.7 22.2L282.3 20.1L281.2 22.3L287.6 22.6L289 22.7L290.5 22.8L292.1 23L293.8 23.2L295.7 23.4L297.6 23.6L299.6 23.9L301.7 24.1L303.9 24.4L306.2 24.6L308.5 24.9L310.9 25.2L313.4 25.4L315.9 25.7L318.5 26L321.1 26.3L323.8 26.7L326.6 27L329.3 27.3L332.1 27.6L334.9 28L337.8 28.3L340.7 28.7L343.5 29.1L346.4 29.5L349.3 29.8L352.2 30.1L355.1 30.4L358 30.7L360.9 31L363.8 31.3L366.6 31.7L368.8 31.9L371 32.1L373.3 32.4L375.7 32.7L378.1 32.9L380.6 33.2L383.1 33.5L385.6 33.9L388.2 34.2L390.8 34.6L393.4 34.9L396 35.3L398.7 35.7L401.4 36.1L404.1 36.5L406.8 36.9L409.5 37.3L412.2 37.8L414.9 38.2L417.6 38.7L420.3 39.1L423 39.4L425.7 39.7L428.3 40L431 40.3L433.6 40.6L436.1 40.9L438.7 41.3L441.1 41.7L443.6 42.1L446 42.5L448.3 42.8L450.6 43.2L452.8 43.6L455 43.9L457.1 44.2L459.1 44.5L461.1 44.8L463 45.1L464.8 45.4L466.5 45.7L468.1 45.9L472.9 46.6L476.9 47.2L480.3 47.9L483.1 48.5L485.5 49L487.5 49.5L489.3 50L490.9 50.4L492.5 50.8L494.1 51.1L495.8 51.5L497.7 51.9L499.9 52.3L502.3 52.7L504.6 53.1L506.8 53.3L508.9 53.5L511 53.7L513.1 53.9L515.2 54.1L517.4 54.4L519.8 54.8L522.4 55.3L525.2 55.9L528.3 56.5L530.2 56.9L532.1 57.4L534.1 57.8L536.1 58.3L538.2 58.7L540.3 59.1L542.5 59.6L544.7 60.1L547 60.6L549.3 61.1L551.7 61.7L554.2 62.4L556.7 63.1L559.3 63.8L561.9 64.5L564.6 65.2L567.4 65.8L570.3 66.4L573.3 67L576.3 67.6L579.5 68.1L581.6 68.4L583.8 68.6L586.1 68.9L588.4 69.3L590.9 69.6L593.4 70.1L596 70.6L598.7 71.1L601.4 71.6L604.2 72L607 72.5L609.8 72.9L612.6 73.3L615.5 73.7L618.4 74.1L621.2 74.5L624 74.9L626.8 75.3L629.6 75.7L632.4 76.1L635 76.5L637.7 76.9L640.2 77.4L642.7 77.7L645.1 78.1L647.4 78.4L649.6 78.7L651.7 79L653.7 79.2L655.6 79.5L657.3 79.7L658.9 79.9L660.2 80.2L667.4 81.8L667.7 81.7L666.7 80.1L667.1 83.5L668.5 84.7L668.4 84.5L669.4 87.9L669.9 89.3L670.4 90.6L670.8 91.9L671.3 93.2L671.8 94.8L672.4 96.6L673.1 98.6L673.8 101.1L674.7 104L675.7 107.5L676.9 111.6L678.4 116.3L678.9 117.9L679.4 119.6L680 121.4L680.6 123.4L681.3 125.4L681.9 127.6L682.5 129.8L683.1 132.1L683.8 134.6L684.4 137.1L685.1 139.6L685.8 142.2L686.5 144.9L687.4 147.6L688.2 150.3L689.2 153L690.1 155.7L691 158.5L691.9 161.3L692.7 164.1L693.5 166.9L694.2 169.7L694.9 172.5L695.6 175.3L696.3 178L697 180.7L697.7 183.4L698.3 186L699 188.5L699.6 191L700.2 193.4L700.8 195.8L701.4 198L702 200.2L702.5 202.2L703 204.2L703.4 206L703.8 207.7L704.2 209.3L704.6 210.9L706.3 216.8L707.9 220L711.1 221.6L712.7 221L709.2 219.4L709.3 220.5L709.6 225.1L709.7 226.6L709.8 228.3L709.9 230.2L710 232.2L710.1 234.4L710.2 236.7L710.4 239.1L710.6 241.7L710.8 244.3L711 247L711.2 249.8L711.4 252.6L711.5 255.5L711.7 258.5L712 261.4L712.2 264.4L712.4 267.3L712.6 270.2L712.8 273.1L712.9 276L713 278.8L713.2 281.6L713.2 284.2L713.3 286.8L713.4 289.3L713.4 291.6L713.5 293.9L713.6 295.9L713.6 297.9L713.7 299.6L713.7 301.2L713.7 302.9L714.6 309.1L717 304.3L711.5 306.6L710 308.1L708.8 309.3L707.4 310.8L705.9 312.3L704.2 314L702.4 315.7L700.4 317.6L698.4 319.5L696.3 321.4L694.1 323.4L691.8 325.4L689.6 327.4L687.4 329.4L685.2 331.5L683.1 333.5L681 335.5L679 337.4L677.1 339.2L675.2 340.9L673.5 342.5L671.9 343.9L670.4 345.2L669.1 346.4L667.9 347.4L664.2 350.9L667.9 350.1L664.6 349.3L662.5 349.9L660.8 350.5L658.8 351.1L656.7 351.8L654.5 352.5L652.1 353.2L649.7 353.9L647.2 354.5L644.8 355L642.4 355.3L640.1 355.5L638.1 355.6L636.2 355.6L634.5 355.5L632.7 355.3L631 355.1L629.1 354.8L627.1 354.4L624.8 354L622.3 353.6L619.4 353.2L616.1 352.8L612.3 352.3L610.6 352.1L608.7 351.8L606.6 351.5L604.5 351.2L602.2 350.8L599.9 350.4L597.4 350L594.9 349.6L592.3 349.2L589.7 348.8L587 348.4L584.3 348L581.5 347.6L578.8 347.2L576 346.8L573.3 346.4L570.6 346L567.9 345.7L565.3 345.3L562.7 344.9L560.2 344.6L557.8 344.3L555.4 344L553.2 343.7L551.1 343.4L549 343.2L547.2 343L545.4 342.8L541.4 342.5L538.4 342.5L536.2 342.6L534.5 342.8L533.2 343.1L532 343.3L530.5 343.4L528.3 343.3L525.1 343L520.6 342.2L519 341.9L517.2 341.6L515.3 341.2L513.2 340.8L510.9 340.5L508.6 340.1L506.1 339.7L503.6 339.2L501 338.8L498.3 338.3L495.5 337.8L492.7 337.3L489.8 336.8L486.9 336.4L484 335.9L481.1 335.5L478.1 335.1L475.2 334.7L472.3 334.2L469.5 333.7L466.7 333.2L463.9 332.7L461.2 332.3L458.6 331.8L456.1 331.4L453.7 330.9L451.3 330.5L449.1 330.2L447.1 329.8L445.1 329.5L443.3 329.3L441.7 329L440.1 328.8L432.3 327.9L427.6 328.9L426.6 334L426.7 331.9L429.7 329.4L428.6 329.8L427.6 330.7L427.1 331.8L427 333L427.4 334.2L428.2 335.1L429.4 335.7L430.6 335.7L432.6 334.3L432.7 332.3L431.4 333.6L432.2 333.2L439.7 333.4L441 333.6L442.7 333.8L444.4 334.1L446.4 334.4L448.4 334.7L450.6 335L453 335.4L455.4 335.7L457.9 336.2L460.5 336.6L463.2 337.2L465.9 337.8L468.7 338.3L471.6 338.8L474.4 339.3L477.3 339.8L480.3 340.3L483.2 340.7L486.1 341.1L489 341.5L491.9 342L494.7 342.4L497.5 342.8L500.2 343.3L502.9 343.6L505.5 344L507.9 344.3L510.3 344.7L512.5 345L514.7 345.4L516.6 345.8L518.5 346.1L520.2 346.4L524.7 347L528.1 347.3L530.6 347.3L532.4 347.1L533.8 346.9L535.1 346.6L536.4 346.4L538.4 346.3L541.1 346.4L545 346.8L546.7 347L548.5 347.2L550.5 347.5L552.6 347.8L554.8 348.1L557.2 348.5L559.6 348.9L562.1 349.3L564.6 349.7L567.2 350.1L569.9 350.5L572.6 350.9L575.3 351.4L578.1 351.9L580.8 352.4L583.5 352.8L586.2 353.3L588.9 353.7L591.5 354.2L594.1 354.7L596.6 355.1L599.1 355.5L601.5 355.9L603.7 356.2L605.9 356.5L608 356.7L609.9 356.9L611.7 357.1L615.4 357.5L618.7 357.9L621.6 358.2L624.2 358.6L626.5 358.9L628.6 359.1L630.6 359.3L632.4 359.5L634.3 359.5L636.2 359.5L638.2 359.5L640.4 359.3L642.9 359.1L645.5 358.6L648 358.1L650.6 357.5L653.1 356.8L655.6 356L657.9 355.3L660 354.7L662 354L663.7 353.5L664.9 353.1L665.4 353.1L666.8 353.7L670.7 350.3L671.8 349.4L673.1 348.2L674.6 346.9L676.2 345.5L678 343.9L679.9 342.2L681.8 340.4L683.9 338.5L686 336.6L688.2 334.6L690.4 332.7L692.7 330.7L694.9 328.7L697.2 326.7L699.4 324.7L701.5 322.8L703.6 320.9L705.5 319L707.3 317.2L709 315.5L710.5 314L711.9 312.5L713.1 311.3L713.7 310.6L716.9 309L719.3 308.2L718.7 302.4L718.7 301.2L718.7 299.6L718.7 297.8L718.7 295.9L718.6 293.8L718.6 291.5L718.4 289.1L718.3 286.7L718.1 284.1L718 281.4L717.8 278.7L717.7 275.8L717.5 273L717.3 270.1L717.1 267.1L716.9 264.2L716.6 261.2L716.4 258.3L716.2 255.3L716 252.4L715.8 249.6L715.6 246.8L715.4 244.1L715.2 241.4L715 238.9L714.8 236.4L714.7 234.1L714.6 231.9L714.5 229.8L714.4 227.9L714.3 226.2L714.2 224.6L713.9 219.8L713.5 217.7L711.1 216.7L711.1 217L711.6 217.3L710.5 215.2L708.8 209.5L708.4 208.1L708 206.5L707.6 204.8L707.1 203L706.7 201L706.1 199L705.6 196.8L705 194.6L704.4 192.3L703.8 189.9L703.1 187.4L702.4 184.9L701.7 182.3L701 179.6L700.3 176.9L699.6 174.2L698.8 171.4L698.1 168.7L697.3 165.8L696.6 163L695.9 160.2L695.1 157.4L694.2 154.6L693.4 151.8L692.6 149.1L691.8 146.4L691.1 143.7L690.4 141L689.7 138.3L689.1 135.8L688.6 133.3L688 130.8L687.4 128.5L686.8 126.2L686.1 124.1L685.5 122L684.9 120.1L684.3 118.2L683.7 116.5L683.2 114.9L681.6 110.2L680.3 106.2L679.2 102.7L678.3 99.7L677.5 97.2L676.8 95.1L676.2 93.3L675.6 91.8L675.1 90.4L674.6 89.1L674.2 87.8L673.7 86.4L672.5 82.9L671.7 81.5L670.7 81L670.9 81.5L671.3 79.3L668.6 77.6L661.2 75.9L659.7 75.6L658.1 75.4L656.3 75.1L654.4 74.9L652.4 74.6L650.3 74.4L648.1 74.1L645.8 73.8L643.3 73.5L640.9 73.2L638.3 72.8L635.6 72.5L633 72.1L630.2 71.7L627.4 71.3L624.6 70.9L621.8 70.5L619 70.1L616.1 69.6L613.2 69.2L610.4 68.8L607.6 68.4L604.8 67.9L602 67.5L599.3 67L596.7 66.5L594.1 66L591.6 65.5L589.1 65L586.8 64.5L584.5 64.1L582.4 63.7L580.3 63.3L577.2 62.8L574.2 62.3L571.3 61.8L568.4 61.2L565.6 60.5L563 59.7L560.4 59L557.8 58.2L555.3 57.5L552.9 56.8L550.5 56.2L548.2 55.6L545.9 55.1L543.7 54.6L541.4 54.1L539.3 53.7L537.2 53.3L535.1 52.9L533.1 52.5L531.1 52.1L529.2 51.7L526 51.1L523.1 50.6L520.4 50.1L518 49.8L515.7 49.5L513.5 49.2L511.4 49L509.4 48.8L507.3 48.5L505.2 48.2L503 47.9L500.7 47.5L498.6 47.2L496.7 46.8L495.1 46.5L493.6 46.1L492 45.8L490.4 45.3L488.6 44.9L486.5 44.4L484 43.9L481.1 43.3L477.7 42.7L473.6 41.9L468.9 41.1L467.2 40.8L465.5 40.5L463.7 40.2L461.8 40L459.9 39.7L457.8 39.4L455.7 39.1L453.5 38.7L451.3 38.4L449 38L446.7 37.6L444.3 37.2L441.8 36.9L439.4 36.5L436.8 36.2L434.2 35.9L431.6 35.7L429 35.4L426.3 35.2L423.6 35L420.9 34.7L418.2 34.4L415.5 34L412.8 33.6L410.1 33.2L407.4 32.7L404.7 32.3L402 31.9L399.3 31.6L396.6 31.3L393.9 30.9L391.3 30.6L388.7 30.2L386.1 29.9L383.6 29.5L381.1 29.2L378.6 28.9L376.2 28.7L373.9 28.4L371.5 28.2L369.3 27.9L367.1 27.7L364.3 27.4L361.4 27.1L358.5 26.8L355.6 26.5L352.7 26.3L349.8 26L346.9 25.7L344 25.5L341.1 25.2L338.2 24.8L335.4 24.4L332.5 24L329.8 23.6L327 23.2L324.3 22.8L321.6 22.5L318.9 22.2L316.3 21.9L313.8 21.7L311.3 21.4L308.9 21.1L306.6 20.9L304.3 20.6L302.1 20.4L300 20.1L297.9 19.9L296 19.6L294.2 19.4L292.4 19.2L290.8 19.1L289.3 18.9L287.8 18.8L281.3 18.4L278.9 21.8L279.8 21.6L278.9 22.4L278 23L276.5 23.9L274.9 24.9L273.2 26L271.3 27.1L269.3 28.3L267.2 29.6L265 30.9L262.6 32.4L260.1 33.9L257.5 35.6L254.7 37.4L251.9 39.2L250.2 40.3L248.5 41.5L246.7 42.7L244.8 43.9L242.9 45.2L240.8 46.6L238.8 48L236.7 49.4L234.6 50.9L232.5 52.5L230.3 54L228.1 55.6L226 57.2L223.8 58.7L221.6 60.3L219.4 61.9L217.3 63.4L215.2 65L213.2 66.5L211.2 68L209.3 69.5L207.4 71L205.6 72.4L203.9 73.9L201.8 75.8L199.7 77.7L197.6 79.7L195.6 81.6L193.6 83.5L191.6 85.5L189.7 87.4L187.8 89.3L186 91.1L184.3 92.9L182.6 94.7L180.9 96.4L179.4 98L177.8 99.6L176.4 101.1L175.1 102.4L173.8 103.7L172.6 104.9L169.6 107.9L167.4 110.2L165.8 111.9L164.6 113.3L163.6 114.5L162.6 115.9L161 117.8L159.9 119.4L159 121.2L158.2 123.3L157.5 125.4L156.9 127.6L156.4 130L155.9 132.7L155.6 135.7L155.4 137.4L155.1 139L154.9 140.5L154.7 142.3L154.6 144.4L154.4 147L154.2 150.4L153.9 154.6L153.8 156.4L153.7 158.3L153.6 160.4L153.5 162.7L153.6 165.1L153.6 167.6L153.6 170.2L153.6 172.8L153.7 175.6L153.7 178.4L153.8 181.2L153.9 184.1L154 187L154.2 189.8L154.4 192.6L154.6 195.4L154.8 198.1L155 200.7L155.1 203.3L155.2 205.7L155.4 208L155.6 210.2L155.8 212.2L156.1 215.5L156.4 218.5L156.8 221.4L157.1 224L157.4 226.5L157.7 228.9L158 231.1L158.2 233.2L158.5 235.2L158.8 237.1L159.1 239L159.3 240.8L159.5 242.6L159.7 245.4L159.7 247.9L159.6 250.2L159.5 252.3L159.4 254.4L159.4 256.5L159.5 258.7L159.7 261.1L160 263.4L160.4 265.8L161 268.2L161.5 270.7L162.1 273.1L162.8 275.4L163.4 277.5L163.9 279.4L164.5 281.1L165.7 284.1L167.3 285.8L169.7 287.2L170.8 288L172 288.9L173.4 289.8L175.2 290.7L177.5 291.7L180.5 292.7L184.4 293.9L186.1 294.3L188 294.8L190.2 295.4L192.5 295.9L195 296.5L197.6 297L200.3 297.5L203.1 298L205.9 298.5L208.8 299L211.6 299.6L214.4 300.1L217.2 300.6L219.8 301.1L222.3 301.6L224.7 302L226.8 302.5L228.8 302.9L230.5 303.3L231.9 303.6L236.9 304.9L236.6 304.8L236.8 305.5L238 306.1L238.7 306.3L239.4 306.1L240.1 305.7L240.5 305.1L240.6 304.3L240.4 303.6L240 303Z"/>
<path d="M168.8 125L169.5 120.4L167.9 119.9L165.8 123.8L174.4 124.6L175.7 124.8L177.2 124.9L178.8 125.1L180.6 125.3L182.5 125.5L184.6 125.7L186.7 125.9L188.9 126.1L191.3 126.4L193.7 126.7L196.2 127L198.8 127.3L201.4 127.6L204.1 127.8L206.9 128L209.7 128.2L212.5 128.4L215.4 128.7L218.3 129L221.1 129.3L224 129.7L226.9 130L229.8 130.4L232.7 130.7L235.6 131L238.4 131.3L241.2 131.8L243.9 132.3L246.6 132.8L249.2 133.4L251.7 133.9L254.2 134.4L256.6 134.8L258.9 135.2L261.2 135.5L263.3 135.8L265.3 136.2L267.2 136.5L269 136.7L272.8 137.4L276.3 138.1L279.5 138.7L282.4 139.4L285.2 140L287.7 140.6L290 141.2L292.2 141.8L294.2 142.4L296.1 143L298 143.6L299.7 144.2L301.4 144.7L303.1 145.2L304.8 145.6L306.5 146L308.2 146.4L311.4 146.9L313.7 147.2L315.6 147.3L317.1 147.3L318.6 147.4L320.4 147.6L323.1 147.9L326.9 148.6L328.6 148.9L330.5 149.2L332.6 149.7L334.9 150.1L337.3 150.7L339.8 151.3L342.4 151.9L345.1 152.5L347.9 153.1L350.7 153.6L353.5 154.1L356.4 154.6L359.2 155.1L362 155.6L364.8 156.1L367.4 156.6L370 157.1L372.4 157.6L374.7 158.1L376.8 158.5L378.8 158.9L380.6 159.2L384.1 159.8L386.2 160L387.8 159.7L388.3 159.5L388.3 159.5L389.8 159.5L393.4 159.7L399.6 160.3L401.1 160.4L402.7 160.6L404.5 160.8L406.4 161.1L408.4 161.4L410.5 161.8L412.8 162.1L415.1 162.5L417.5 163L420 163.4L422.6 163.8L425.3 164.2L428 164.6L430.8 165.1L433.6 165.6L436.5 166L439.4 166.5L442.3 166.9L445.3 167.3L448.3 167.6L451.3 168L454.3 168.3L457.3 168.6L460.2 169L463.2 169.4L466 169.9L468.9 170.5L471.7 171L474.4 171.5L477.1 172L479.8 172.4L482.3 172.7L484.8 173L487.2 173.3L489.5 173.6L491.8 173.9L493.9 174.1L495.8 174.4L497.7 174.7L499.4 175.1L500.9 175.6L502.4 176L503.6 176.3L504.7 176.2L505.8 175.7L506.5 174.9L506.9 173.9L506.8 172.8L506.4 171.8L505.6 171L504.5 170.6L503.2 170.4L501.8 170.3L500.2 170.2L498.4 170.1L496.6 169.9L494.6 169.7L492.5 169.4L490.2 169.2L487.9 169L485.5 168.7L483 168.4L480.5 168L477.8 167.6L475.1 167.1L472.4 166.6L469.6 166.1L466.7 165.6L463.8 165.2L460.9 164.8L457.9 164.5L454.9 164.3L451.9 164.1L448.9 163.9L445.9 163.6L442.9 163.3L440 162.8L437.1 162.3L434.2 161.8L431.4 161.3L428.6 160.9L425.9 160.4L423.2 160L420.6 159.6L418.1 159.2L415.7 158.7L413.4 158.2L411.1 157.8L409 157.4L407 157L405.1 156.7L403.3 156.5L401.7 156.2L400.1 156L393.9 155.4L390.1 155.1L388.1 155.1L386.9 155.4L386.5 155.6L386.2 155.6L384.6 155.5L381.2 155L379.5 154.7L377.6 154.3L375.5 153.8L373.2 153.3L370.8 152.8L368.3 152.2L365.6 151.7L362.9 151.2L360.1 150.7L357.3 150.2L354.5 149.7L351.6 149.1L348.8 148.5L346.1 147.8L343.4 147.1L340.7 146.5L338.2 145.9L335.8 145.4L333.5 144.9L331.4 144.5L329.4 144.1L327.7 143.8L323.7 143.1L320.9 142.7L318.7 142.6L317.1 142.5L315.7 142.5L314.1 142.4L312 142.1L309.1 141.5L307.5 141.2L305.8 140.8L304.2 140.4L302.6 139.9L300.9 139.5L299.2 139L297.3 138.5L295.4 137.9L293.3 137.4L291.1 136.8L288.7 136.2L286.1 135.7L283.3 135.1L280.3 134.5L277 133.8L273.5 133.1L269.7 132.3L267.9 132L266 131.7L264 131.4L261.8 131.1L259.6 130.7L257.3 130.4L254.9 130L252.4 129.5L249.8 129L247.2 128.5L244.5 127.9L241.8 127.4L239 127L236.2 126.6L233.4 126.1L230.5 125.7L227.6 125.4L224.7 125L221.8 124.7L218.9 124.4L216 124.1L213.1 123.8L210.3 123.6L207.5 123.3L204.7 123L202 122.8L199.4 122.5L196.8 122.3L194.3 122.1L191.9 121.9L189.5 121.6L187.3 121.4L185.1 121.2L183.1 120.9L181.2 120.7L179.4 120.5L177.8 120.3L176.3 120.1L174.9 120L166 119L166.1 124.4L168 125L168.6 120.1L167.7 120.3L166.9 120.9L166.4 121.7L166.3 122.7L166.5 123.6L167 124.3L167.8 124.8Z"/>
<path d="M660.2 80.9L659.8 81.2L658.7 82L657.5 82.9L656.2 83.9L654.8 85L653.2 86.1L651.6 87.4L649.8 88.7L648 90.1L646 91.5L644.1 93.1L642 94.6L639.9 96.3L637.7 97.9L635.5 99.6L633.2 101.2L630.9 102.9L628.6 104.7L626.3 106.4L623.9 108.1L621.5 109.9L619.2 111.6L616.8 113.2L614.4 114.9L612.1 116.5L609.8 118L607.5 119.6L605.3 121.1L603.2 122.7L601.1 124.1L599.1 125.5L597.2 126.9L595.4 128.2L593.7 129.5L591.2 131.2L588.8 133L586.5 134.8L584.3 136.5L582.1 138.2L580 139.9L577.9 141.6L575.9 143.2L573.9 144.8L572 146.3L570.2 147.9L568.4 149.4L566.7 150.9L565 152.4L563.3 153.7L561.6 155L559.9 156.3L558.2 157.5L556.6 158.6L554.9 159.8L553.3 160.8L551.7 161.9L549.1 163.4L546.5 164.7L543.8 165.9L541.1 166.9L538.4 167.8L535.7 168.5L533.1 169.2L530.7 169.8L528.3 170.4L526.1 171L524.1 171.4L522.2 171.8L520.5 172.2L519.1 172.6L518.1 173.1L517.4 174L517.1 175.1L517.3 176.2L517.8 177.2L518.7 177.9L519.8 178.2L520.9 178.1L522.1 177.6L523.6 176.9L525.3 176.3L527.3 175.6L529.5 175.1L531.9 174.5L534.5 173.9L537.2 173.2L540 172.4L542.8 171.4L545.7 170.3L548.5 169L551.4 167.6L554.2 166.1L555.9 165L557.7 163.9L559.4 162.7L561.1 161.5L562.8 160.2L564.5 158.8L566.2 157.4L567.9 156L569.6 154.5L571.4 152.9L573.1 151.4L574.9 149.8L576.8 148.2L578.7 146.6L580.7 144.9L582.7 143.3L584.8 141.6L586.9 139.8L589.1 138.1L591.4 136.4L593.8 134.6L596.2 132.8L597.9 131.6L599.8 130.3L601.7 129L603.7 127.6L605.7 126.2L607.9 124.7L610.1 123.2L612.4 121.7L614.7 120.2L617.1 118.6L619.5 117.1L621.9 115.5L624.3 113.8L626.7 112.1L629.1 110.4L631.4 108.7L633.8 107L636.1 105.3L638.3 103.6L640.6 101.9L642.7 100.3L644.8 98.6L646.9 97L648.8 95.5L650.7 94L652.5 92.6L654.3 91.3L656 90.1L657.6 88.9L659 87.9L660.4 86.9L661.6 86.1L662.7 85.3L663.1 85L663.8 84.3L664.1 83.3L664.1 82.4L663.7 81.5L663 80.8L662.1 80.4L661.1 80.5Z"/>
<path d="M157 200.3L155.7 200.9L154.4 201.5L152.6 202.3L150.5 203.3L148.3 204.4L145.9 205.6L143.6 206.8L141.5 207.9L139.6 208.9L137.8 209.8L136 210.7L134.2 211.7L132.3 213L130.1 214.6L127.5 216.7L126.1 217.9L124.4 219.3L122.6 220.9L120.7 222.4L118.6 224.1L116.5 225.7L114.3 227.4L112.2 229.2L110.2 230.9L108.3 232.6L106.4 234.3L104.7 235.7L103.1 237.1L101.8 238.3L98.9 240.9L96.9 242.9L95.4 244.6L94.3 246.2L93.1 248.1L91.8 250.3L90.7 252.7L89.7 255.1L88.9 257.5L88.1 259.8L87.6 261.9L87.1 264L86.7 266.1L86.4 268.3L86.2 270.6L86 273.1L86 275.7L86.1 278.5L86.3 281.1L86.7 283.7L87.3 286.8L88.1 289.8L88.7 292.3L89.1 293.9L89.1 293.9L89.7 294.9L90.6 295.6L91.7 295.9L92.9 295.8L93.9 295.2L94.6 294.3L94.9 293.2L94.8 292L94.8 291.9L94.1 290.3L93 288.1L92 285.4L91.3 282.7L91 280.4L90.8 278L90.8 275.4L90.8 272.9L90.9 270.6L91.1 268.6L91.3 266.7L91.6 264.9L91.9 263.1L92.4 261.1L93 259L93.6 256.8L94.5 254.6L95.4 252.3L96.6 250.2L97.6 248.4L98.6 247L99.9 245.4L101.7 243.6L104.5 241L105.8 239.8L107.3 238.5L109 237L110.8 235.4L112.7 233.7L114.8 231.9L116.8 230.2L118.9 228.5L121 226.7L123 225.1L124.9 223.5L126.7 222L128.3 220.7L129.8 219.5L132.3 217.6L134.4 216.1L136.2 215L137.9 214L139.5 213.1L141.2 212.2L143.1 211.1L145.2 210L147.4 208.8L149.7 207.6L151.9 206.5L154 205.5L155.8 204.6L157.1 204L158.4 203.4L158.9 203L159.3 202.4L159.4 201.8L159.2 201.1L158.8 200.6L158.3 200.3L157.6 200.1Z"/>
<path d="M680.2 120.2L681.7 120.5L683.2 120.8L684.9 121L686.8 121.3L688.9 121.6L691.4 122L694.2 122.6L697.3 123.5L699 124.1L700.8 124.7L702.8 125.3L704.9 126L707.1 126.7L709.4 127.5L711.8 128.2L714.2 129.1L716.6 130L719 131L721.4 132.1L723.8 133.1L726.2 134.2L728.6 135.3L730.7 136.3L732.9 137.3L735.2 138.3L737.5 139.3L739.8 140.3L742.2 141.3L744.5 142.5L746.9 143.7L749.1 144.9L751.4 146.2L753.6 147.4L755.8 148.7L757.9 149.9L760 151.1L762 152.2L763.9 153.4L766.2 154.8L768.3 156.2L770.4 157.5L772.5 158.8L774.4 160.1L776.4 161.4L778.3 162.6L780.1 163.9L781.9 165.2L783.7 166.5L785.5 167.8L787.2 169.1L789 170.4L791 171.9L793 173.4L794.9 174.8L796.7 176.2L798.5 177.6L800.2 179L802 180.5L803.9 182L805.7 183.6L807.7 185.2L809.8 187L811.5 188.4L813.2 189.9L815 191.5L816.8 193.1L818.7 194.9L820.6 196.6L822.6 198.3L824.5 200L826.4 201.8L828.2 203.5L830 205.2L831.6 206.8L833.2 208.3L834.6 209.8L835.9 211.1L838 213.3L839.8 215.2L841.2 216.8L842.4 218.3L843.5 219.7L844.6 221.3L845.7 223.1L847 225.2L848 227L849.1 229L850.3 231.1L851.4 233.2L852.5 235.4L853.6 237.7L854.7 239.9L855.7 242.1L856.5 244.3L857.3 246.4L858.1 248.6L858.7 250.8L859.2 253.1L859.6 255.3L860 257.5L860.3 259.7L860.5 261.8L860.7 264L861 266.1L861.3 268.4L861.7 270.5L862 272.5L862.2 274.5L862.4 276.5L862.4 278.8L862.2 281.3L861.8 284.2L861.4 286.1L860.8 288.1L860.2 290.3L859.4 292.6L858.5 295L857.7 297.4L856.8 299.9L856 302.5L855.2 305L854.4 307.4L853.6 309.8L852.8 312L852.1 314.1L851.4 316L850.3 318.7L849.4 321.1L848.5 323.3L847.6 325.4L846.7 327.3L845.7 329.2L844.7 331.1L843.5 333.1L842.3 335.1L841 337.1L839.7 339L838.4 340.9L836.9 342.8L835.5 344.7L834 346.6L832.5 348.5L831 350.5L829.6 352.4L828.1 354.4L826.9 356.2L825.8 357.8L824.8 359.3L823.8 360.7L822.8 362.1L821.7 363.5L820.4 364.9L818.8 366.5L816.9 368.3L814.5 370.3L811.7 372.6L810.3 373.6L808.8 374.8L807.1 376.1L805.3 377.5L803.5 379.1L801.5 380.7L799.5 382.5L797.5 384.2L795.3 386L793.1 387.8L790.8 389.5L788.4 391.2L786 392.8L783.7 394.5L781.3 396.1L779 397.7L776.8 399.2L774.7 400.7L772.6 402.2L770.6 403.6L768.7 404.9L767 406.1L765.3 407.2L763.8 408.1L762.4 408.9L761.3 409.6L760.5 410.1L759.7 411L759.3 412.1L759.3 413.2L759.8 414.3L760.6 415.1L761.7 415.5L762.9 415.4L763.9 414.9L764.7 414.3L765.8 413.5L767 412.4L768.3 411.3L769.9 410.1L771.6 408.9L773.5 407.6L775.4 406.2L777.5 404.8L779.7 403.2L781.9 401.7L784.2 400L786.5 398.4L788.8 396.7L791.2 395.1L793.5 393.3L795.8 391.6L798 389.8L800.2 388L802.3 386.2L804.3 384.5L806.3 382.9L808.2 381.3L810 379.9L811.7 378.6L813.2 377.3L814.6 376.2L817.5 373.8L819.9 371.8L822 369.9L823.7 368.2L825.2 366.6L826.4 365.1L827.5 363.7L828.5 362.2L829.5 360.8L830.6 359.2L831.8 357.5L833.2 355.5L834.8 353.4L836.3 351.5L837.8 349.5L839.4 347.5L840.9 345.5L842.4 343.6L843.8 341.6L845.2 339.6L846.4 337.6L847.7 335.5L848.9 333.4L849.9 331.4L850.9 329.4L851.9 327.3L852.9 325.2L853.9 322.9L854.9 320.3L856 317.6L856.7 315.6L857.4 313.4L858.1 311.1L858.8 308.7L859.6 306.2L860.3 303.7L861.1 301.1L861.9 298.5L862.7 296L863.6 293.6L864.3 291.2L865 289L865.6 286.8L866.1 284.8L866.6 281.7L866.8 278.9L866.8 276.4L866.7 274L866.4 271.9L866.1 269.8L865.8 267.8L865.5 265.6L865.3 263.5L865 261.3L864.7 259.1L864.3 256.8L863.9 254.5L863.5 252.2L862.9 249.8L862.3 247.4L861.6 245L860.9 242.7L860 240.5L859 238.1L857.9 235.8L856.8 233.5L855.6 231.2L854.5 229L853.3 226.8L852.2 224.8L851 222.9L849.7 220.7L848.6 218.9L847.4 217.2L846.2 215.5L844.8 213.8L843.3 212.1L841.5 210.1L839.3 207.8L838 206.4L836.5 204.9L834.9 203.3L833.3 201.7L831.5 200L829.6 198.2L827.7 196.5L825.8 194.7L823.9 193L822 191.2L820.1 189.5L818.2 187.8L816.4 186.2L814.7 184.6L813.1 183.2L811 181.4L809 179.7L807.1 178L805.2 176.5L803.3 175L801.5 173.6L799.7 172.2L797.8 170.7L796 169.3L794 167.8L792 166.2L790.2 164.9L788.5 163.6L786.7 162.3L784.9 161L783.1 159.6L781.2 158.3L779.3 157L777.3 155.8L775.3 154.5L773.1 153.2L770.9 151.9L768.7 150.6L766.4 149.2L764.4 148L762.4 146.8L760.4 145.5L758.2 144.2L756.1 143L753.8 141.7L751.5 140.5L749.1 139.4L746.7 138.3L744.3 137.2L741.9 136.2L739.6 135.1L737.2 134.1L734.9 133.1L732.7 132.1L730.6 131.1L728.2 130L725.7 128.9L723.3 127.8L720.8 126.7L718.4 125.7L715.9 124.8L713.5 123.9L711.1 123.1L708.8 122.4L706.6 121.7L704.4 121.1L702.4 120.5L700.4 119.9L698.6 119.4L695.3 118.6L692.4 118L689.8 117.5L687.5 117.2L685.5 117L683.9 116.8L682.5 116.6L681.1 116.4L680.3 116.4L679.6 116.6L679 117.2L678.7 117.9L678.7 118.6L679 119.4L679.5 119.9Z"/>
<path d="M515.1 175.5L515.3 176.9L515.4 178.3L515.5 180.2L515.7 182.5L516 185L516.5 187.6L517.2 189.8L518.1 191.9L519 194.1L519.8 196.2L520.5 198.4L521.1 200.7L521.5 202.5L521.8 204.2L522.1 205.7L522.3 207.5L522.5 209.7L522.8 212.6L523.2 216.3L523.3 218.1L523.5 220.1L523.6 222.3L523.8 224.7L523.9 227.2L524.1 229.9L524.3 232.6L524.5 235.4L524.7 238.2L524.9 241L525.1 243.8L525.2 246.5L525.4 249.2L525.5 251.7L525.6 254.1L525.7 256.3L525.8 258.4L525.9 260.1L526 263.9L525.9 266.7L525.8 268.8L525.6 270.7L525.5 272.4L525.4 274.4L525.4 276.8L525.6 278.9L525.9 280.8L526.2 282.5L526.5 284.2L526.8 286.1L527.1 288.5L527.3 291.5L527.4 295.3L527.4 297L527.4 299L527.3 301.2L527.4 303.6L527.4 306.1L527.6 308.8L527.7 311.6L527.9 314.4L528 317.3L528.1 320.2L528.2 323.1L528.2 326L528.2 328.8L528.2 331.5L528.3 334.1L528.3 336.5L528.2 338.8L528 340.9L527.7 342.8L527.4 344.4L527.3 345.8L527.3 345.9L527.6 347.1L528.3 348.1L529.3 348.8L530.5 349.1L531.7 348.8L532.8 348.1L533.5 347.1L533.7 345.9L533.7 345.8L533.7 344.4L533.5 342.8L533.2 340.9L533.1 338.9L533 336.6L533 334.1L533 331.5L532.9 328.8L532.9 326L532.8 323.1L532.7 320.2L532.6 317.3L532.4 314.4L532.2 311.6L532.1 308.8L531.9 306.1L531.8 303.6L531.8 301.2L531.7 299L531.7 296.9L531.7 295.1L531.6 291.2L531.4 288.1L531.1 285.6L530.8 283.5L530.5 281.8L530.2 280.2L530 278.6L529.8 276.7L529.7 274.6L529.8 272.8L529.9 271.1L530.1 269.2L530.2 266.9L530.2 263.9L530.1 260.1L530 258.2L529.9 256.2L529.8 254L529.7 251.5L529.6 249L529.4 246.3L529.3 243.6L529.1 240.8L528.9 238L528.7 235.1L528.5 232.4L528.3 229.6L528.2 227L528 224.4L527.9 222L527.7 219.8L527.6 217.8L527.4 216L527.1 212.1L526.7 209.2L526.4 206.8L526.1 204.9L525.8 203.2L525.4 201.5L525 199.6L524.3 197.1L523.5 194.7L522.6 192.5L521.7 190.4L520.9 188.5L520.3 186.7L519.8 184.4L519.5 182.1L519.4 179.9L519.3 178L519.2 176.5L519 175L518.8 174.3L518.3 173.7L517.6 173.3L516.8 173.3L516.1 173.5L515.5 174L515.2 174.7Z"/>
<path d="M556.2 171.1L557.2 171.9L558.3 172.7L559.6 173.6L560.9 174.7L562.3 175.7L563.9 176.9L565.4 178.1L567.1 179.3L568.8 180.7L570.7 182.1L572.5 183.5L574.5 185L576.5 186.6L578.5 188.1L580.7 189.7L582.8 191.4L585 193L587.3 194.7L589.6 196.5L591.9 198.2L594.3 200L596.7 201.8L599 203.7L601.4 205.6L603.8 207.5L606.2 209.4L608.6 211.3L611 213.2L613.4 215.1L615.9 216.9L618.3 218.8L620.7 220.6L623.1 222.4L625.5 224.3L627.8 226.1L630.1 227.9L632.3 229.8L634.5 231.6L636.6 233.3L638.8 235L640.9 236.6L642.9 238.2L644.9 239.8L646.9 241.3L648.8 242.7L650.6 244.1L652.3 245.4L654 246.7L655.6 247.9L657.2 249L658.6 250.1L659.8 251.2L660.9 252.3L662 253.3L662.9 254.2L663.5 254.6L664.4 255.1L665.5 255.2L666.5 254.8L667.3 254.1L667.8 253.1L667.8 252.1L667.5 251.1L666.8 250.3L666.2 249.9L665.1 249.2L663.8 248.6L662.4 247.9L660.9 247L659.4 246L657.9 244.9L656.3 243.6L654.7 242.3L653 241L651.2 239.5L649.3 238.1L647.4 236.5L645.4 234.9L643.4 233.3L641.4 231.6L639.2 229.9L637.1 228.2L634.8 226.4L632.6 224.6L630.3 222.7L628.1 220.9L625.8 218.9L623.4 217.1L621 215.2L618.6 213.4L616.1 211.5L613.6 209.7L611.2 207.8L608.8 205.9L606.5 204L604.1 202L601.7 200.1L599.4 198.2L597 196.4L594.7 194.6L592.4 192.8L590.1 191L587.9 189.3L585.6 187.6L583.5 186L581.4 184.4L579.3 182.8L577.3 181.3L575.3 179.8L573.4 178.4L571.6 177.1L569.8 175.8L568.1 174.5L566.6 173.3L565.1 172.1L563.6 171.1L562.3 170L561.1 169.1L560 168.2L558.9 167.4L558.1 167L557.2 167L556.4 167.3L555.7 167.9L555.4 168.7L555.3 169.6L555.6 170.4Z"/>
<path d="M20.5 313L21.1 313.6L21.7 314L22.3 314.5L24 317.1L24.7 318.3L25.5 319.9L26.5 321.8L27.6 323.9L28.9 326.1L30.2 328.3L31.7 330.7L33.2 333L34.8 335.2L36.3 337.4L37.8 339.3L39.2 341.2L40.7 343.1L42.2 345L43.7 346.9L45.3 348.8L46.9 350.7L48.5 352.7L50.2 354.6L52 356.6L53.8 358.6L55.4 360.2L57 362L58.6 363.7L60.2 365.5L61.9 367.2L63.6 369L65.4 370.8L67.2 372.5L69.1 374.3L71 376L73 377.7L75 379.4L77.1 381L79 382.5L80.9 383.8L82.8 385.1L84.8 386.4L86.9 387.6L89 388.8L91.1 390L93.2 391.3L95.3 392.6L97.4 393.9L99.5 395.3L101.6 396.7L103.8 398.2L106 399.6L108.2 401L110.2 402.2L112.3 403.5L114.5 404.7L116.8 405.9L119.1 407.1L121.5 408.3L123.9 409.5L126.3 410.7L128.6 412L130.9 413.3L133.2 414.5L135.4 415.8L137.6 417.1L139.6 418.3L141.6 419.4L143.4 420.5L145.2 421.6L146.8 422.5L149.8 424.4L152 425.8L153.9 427L155.5 428L157.2 428.9L159.1 429.9L161.4 430.9L164.5 432.2L166.2 433L168.1 433.8L170.1 434.7L172.2 435.6L174.4 436.6L176.6 437.5L179 438.5L181.4 439.3L183.9 440.2L186.4 441L189 441.8L191.6 442.6L194.2 443.4L196.8 444.2L199.4 445L202 445.8L204.1 446.4L206.2 447L208.2 447.6L210.3 448.2L212.3 448.8L214.3 449.4L216.3 450.1L218.4 450.6L220.5 451.2L222.7 451.8L225 452.3L227.3 452.8L229.7 453.3L232.2 453.9L234.9 454.4L237.6 455L240.5 455.6L243.6 456.3L246.8 457L248.7 457.4L250.6 457.8L252.6 458.2L254.6 458.5L256.7 458.8L258.8 459.1L260.9 459.3L263.1 459.5L265.4 459.8L267.6 460L269.9 460.3L272.2 460.7L274.5 461.2L276.8 461.6L279.2 462.1L281.6 462.6L284 463.1L286.5 463.6L289 464L291.5 464.4L294.1 464.8L296.7 465.2L299.3 465.7L302 466.1L304.7 466.5L307.4 466.9L310.1 467.3L312.9 467.8L315.7 468.3L318.5 468.8L321.3 469.3L324.2 469.8L327.1 470.2L329.2 470.4L331.4 470.6L333.6 470.9L335.8 471.1L338.1 471.3L340.4 471.6L342.7 471.8L345.1 472.1L347.5 472.3L349.9 472.6L352.4 472.8L354.8 473L357.3 473.3L359.9 473.5L362.4 473.7L364.9 474L367.5 474.2L370.1 474.3L372.7 474.5L375.3 474.7L377.9 474.8L380.5 475L383.1 475.2L385.7 475.4L388.3 475.5L391 475.5L393.6 475.6L396.2 475.6L398.8 475.6L401.4 475.7L404 475.8L406.5 476L409.1 476.2L411.6 476.3L414.1 476.5L416.6 476.6L419.1 476.8L421.6 476.9L424 477.1L426.4 477.3L428.8 477.4L431.1 477.6L433.4 477.8L435.7 478L438 478.2L440.2 478.3L443 478.3L445.7 478.3L448.5 478.3L451.2 478.2L453.9 478.1L456.5 478L459.2 478L461.8 478L464.4 478L467 478L469.6 478L472.1 478.1L474.6 478.1L477.1 478.1L479.6 478.1L482.1 477.9L484.6 477.8L487 477.7L489.4 477.7L491.8 477.6L494.2 477.5L496.6 477.4L499 477.3L501.3 477.1L503.7 476.8L506 476.5L508.3 476.2L510.6 475.9L512.9 475.6L515.1 475.3L517.4 475.1L519.7 474.8L521.9 474.6L524.2 474.4L526.4 474.2L528.7 474L531.4 473.8L534.1 473.5L536.8 473.2L539.6 472.8L542.3 472.3L545 471.8L547.8 471.2L550.5 470.7L553.2 470.2L555.9 469.7L558.6 469.3L561.3 468.9L563.9 468.5L566.5 468.1L569.1 467.7L571.7 467.3L574.2 466.9L576.7 466.5L579.1 466.1L581.4 465.6L583.7 465.2L586 464.8L588.2 464.4L590.3 464L592.3 463.6L594.2 463.3L596.1 462.9L597.9 462.6L599.6 462.3L601.2 462L605.9 461.1L609.7 460.4L612.7 459.9L615.1 459.3L617 458.8L618.6 458.3L620 457.8L621.4 457.2L623 456.7L626.4 455.3L629.1 454.1L631.1 453.2L632.4 452.5L632.3 452.5L633.3 451.7L633.8 450.5L634 449.2L633.6 448L632.7 447L631.5 446.4L630.3 446.3L629 446.7L628.6 446.9L627.4 447.9L626.1 449.3L624.3 450.9L621.4 452.4L620 452.9L618.6 453.4L617.3 453.9L615.8 454.4L614.1 454.9L611.8 455.5L608.9 456.2L605.2 456.9L600.5 457.6L598.8 457.9L597.1 458.2L595.3 458.5L593.4 458.8L591.5 459.2L589.5 459.6L587.4 460L585.2 460.4L582.9 460.8L580.6 461.2L578.3 461.6L575.9 462.1L573.5 462.6L571 463L568.4 463.5L565.8 463.9L563.2 464.3L560.6 464.7L557.9 465.1L555.3 465.5L552.6 466L549.9 466.4L547.1 466.9L544.4 467.4L541.7 467.9L539 468.3L536.3 468.6L533.6 468.9L530.9 469.1L528.2 469.3L525.9 469.4L523.7 469.5L521.4 469.7L519.2 469.8L516.9 470L514.7 470.3L512.4 470.6L510.1 471L507.9 471.4L505.6 471.8L503.3 472.1L501 472.4L498.6 472.6L496.3 472.8L493.9 473L491.5 473.1L489.1 473.2L486.7 473.3L484.3 473.4L481.9 473.5L479.4 473.6L476.9 473.8L474.5 473.8L471.9 473.9L469.4 473.9L466.9 473.9L464.3 473.9L461.7 474L459.1 474L456.5 474.1L453.8 474.2L451.2 474.3L448.5 474.3L445.7 474.3L443 474.2L440.2 474.1L438 473.9L435.8 473.7L433.5 473.6L431.2 473.4L428.9 473.1L426.5 472.9L424.1 472.7L421.7 472.6L419.3 472.4L416.8 472.2L414.3 472L411.8 471.8L409.3 471.6L406.7 471.4L404.2 471.2L401.6 471L399 470.9L396.4 470.9L393.8 470.9L391.2 470.8L388.6 470.8L386 470.6L383.4 470.5L380.8 470.3L378.2 470.2L375.6 470.1L373 469.9L370.4 469.7L367.8 469.5L365.3 469.3L362.7 469.1L360.2 468.8L357.7 468.5L355.2 468.2L352.8 467.9L350.3 467.6L347.9 467.4L345.5 467.2L343.2 467L340.8 466.8L338.5 466.6L336.3 466.4L334 466.2L331.9 465.9L329.7 465.7L327.6 465.4L324.7 465L321.9 464.5L319.1 463.9L316.3 463.4L313.5 462.9L310.8 462.4L308.1 462L305.4 461.6L302.7 461.2L300.1 460.8L297.5 460.4L294.9 460L292.4 459.5L289.9 459.1L287.4 458.6L284.9 458.2L282.5 457.8L280.1 457.4L277.7 457L275.4 456.7L273.1 456.3L270.8 456L268.5 455.8L266.2 455.6L264 455.4L261.8 455.2L259.6 455.1L257.5 454.9L255.4 454.6L253.4 454.4L251.4 454L249.4 453.7L247.5 453.3L244.3 452.7L241.3 452.1L238.5 451.5L235.7 450.9L233.1 450.3L230.6 449.8L228.3 449.2L226 448.5L223.8 447.9L221.7 447.3L219.6 446.7L217.5 446.1L215.5 445.5L213.5 445L211.4 444.4L209.4 443.7L207.4 443.1L205.3 442.4L203.2 441.7L200.7 440.8L198.1 439.9L195.5 439.1L192.9 438.3L190.4 437.5L187.8 436.7L185.3 436L182.8 435.1L180.4 434.2L178.1 433.3L175.8 432.4L173.7 431.4L171.6 430.5L169.7 429.6L167.8 428.7L166.1 427.9L163.2 426.5L160.9 425.5L159.2 424.6L157.7 423.7L156.2 422.8L154.4 421.6L152.1 420.2L149.1 418.3L147.5 417.3L145.8 416.3L144 415.3L142 414.1L139.9 412.9L137.8 411.7L135.6 410.4L133.4 409.1L131.1 407.8L128.7 406.5L126.4 405.3L124 404.1L121.6 403L119.2 401.9L116.9 400.7L114.7 399.6L112.7 398.4L110.7 397.1L108.5 395.7L106.4 394.2L104.3 392.7L102.2 391.3L100.1 390L98 388.7L95.9 387.4L93.8 386.2L91.7 385L89.7 383.9L87.6 382.7L85.6 381.5L83.7 380.2L81.9 378.9L80.1 377.5L78 375.9L76.1 374.2L74.2 372.5L72.3 370.8L70.5 369.1L68.6 367.4L66.9 365.7L65.2 364L63.5 362.2L61.9 360.5L60.4 358.7L58.8 357L57.3 355.3L55.6 353.3L53.9 351.4L52.2 349.5L50.5 347.7L48.9 345.8L47.3 344L45.8 342.1L44.3 340.3L42.9 338.4L41.5 336.6L40.2 334.7L38.6 332.7L37.1 330.5L35.7 328.3L34.2 326L32.9 323.8L31.7 321.6L30.5 319.6L29.5 317.6L28.6 316L27.7 314.5L25.7 311.7L24.4 310.6L23.7 310L23.7 310.1L23 309.6L22.2 309.4L21.4 309.5L20.6 309.9L20.1 310.6L19.9 311.5L20.1 312.3Z"/>
<path d="M93.4 302.5L93.5 302.8L94.1 304.2L94.8 306.3L95.7 308.8L96.8 311.5L98.1 314.1L98.8 315.7L99.4 317L100 318.5L100.9 320.3L102.3 322.5L104.3 325.2L107.3 328.5L108.5 329.8L109.9 331.2L111.4 332.6L113.1 334.1L114.9 335.7L116.9 337.4L118.9 339L121 340.8L123.1 342.6L125.2 344.5L127.3 346.5L129.4 348.5L131.4 350.4L133.5 352.3L135.6 354.2L137.7 355.9L139.8 357.6L141.8 359.2L143.7 360.7L145.5 362L147.2 363.3L148.8 364.5L151.6 366.5L154 368.3L156.2 369.7L158.1 371L159.9 372.2L161.7 373.2L163.4 374.1L165.2 375.1L167 376L169.1 377.1L171.4 378.3L173.3 379.3L175.2 380.3L177.2 381.3L179.2 382.4L181.3 383.4L183.4 384.5L185.5 385.7L187.7 386.8L189.8 388L192 389.2L194.3 390.4L196.5 391.5L198.8 392.7L201.1 393.8L203.4 394.9L205.5 395.9L207.7 396.8L209.9 397.7L212.1 398.7L214.4 399.6L216.6 400.5L218.9 401.5L221.2 402.5L223.5 403.5L225.8 404.5L228.2 405.4L230.5 406.4L232.9 407.4L235.3 408.3L237.8 409.2L240.3 410.1L242.5 410.9L244.7 411.8L247 412.6L249.3 413.4L251.6 414.2L253.9 414.9L256.2 415.6L258.6 416.2L261.1 416.8L263.5 417.3L266 417.7L268.5 418.2L271 418.6L273.5 419L276 419.5L278.5 420L281 420.5L283.6 420.9L285.9 421.3L288.2 421.7L290.6 422.1L292.9 422.5L295.3 422.9L297.6 423.2L300 423.6L302.4 423.9L304.8 424.1L307.3 424.4L309.7 424.6L312.2 424.8L314.7 425.1L317.2 425.4L319.7 425.7L322.2 426.1L324.7 426.4L327.3 426.7L329.9 426.9L332.5 427.1L334.8 427.3L337.1 427.5L339.4 427.6L341.7 427.8L344 428L346.4 428.2L348.7 428.4L351.1 428.6L353.5 428.8L355.8 429L358.2 429.2L360.7 429.5L363.1 429.7L365.6 429.8L368 430L370.5 430.2L373 430.5L375.6 430.6L378.1 430.8L380.7 431L383.3 431L385.9 431.1L388.6 431.1L390.9 431.1L393.2 431.1L395.6 431.1L398 431.1L400.4 431.1L402.9 431L405.4 431L407.9 430.9L410.4 430.9L412.9 431L415.5 431L418 431.1L420.6 431.1L423.2 431.1L425.7 431L428.2 430.8L430.8 430.6L433.3 430.3L435.8 430L438.2 429.7L440.7 429.4L443.1 429.2L445.5 429L447.8 429L450.1 429L452.4 429.1L454.6 429.2L457.5 429.3L460.3 429.3L463.2 429.3L466.1 429.2L469 429.1L471.9 428.9L474.7 428.7L477.5 428.5L480.3 428.3L483 428.2L485.7 428.1L488.3 428.2L490.9 428.2L493.3 428.2L495.6 428.3L497.9 428.3L500 428.3L501.9 428.3L503.8 428.2L505.4 428L507 427.9L512.1 427.3L514.4 426.9L515.8 425.8L516.1 425.5L517.8 423.9L518.8 422.4L518.8 422.1L519 422.3L521 422.9L524.1 422.6L526.8 421.2L529.3 419.5L531.7 418L533.4 417L534.7 416.1L535.6 415.2L536.1 413.9L536 412.6L535.4 411.5L534.5 410.6L533.3 410.1L532 410.2L530.8 410.8L529.4 411.9L528 413.4L526.1 415.3L524 417L522.6 417.9L521.3 418L519.7 417.5L517.1 417.6L515.1 419.2L514.2 420.8L512.9 421.9L512.2 422.6L512.9 422.4L511.6 422.7L506.5 423.4L505 423.5L503.4 423.6L501.6 423.7L499.6 423.8L497.5 423.9L495.3 423.9L492.9 423.9L490.5 423.8L488 423.8L485.4 423.8L482.7 423.9L480 424L477.2 424.2L474.4 424.4L471.6 424.7L468.7 424.9L465.9 425L463 425.1L460.1 425L457.3 424.9L454.4 424.8L452.2 424.7L450 424.6L447.7 424.6L445.3 424.6L443 424.7L440.5 424.9L438.1 425.1L435.7 425.3L433.2 425.6L430.7 425.8L428.1 426L425.6 426.1L423.1 426L420.5 426L418 425.9L415.4 425.8L412.9 425.8L410.4 425.7L407.9 425.7L405.4 425.8L402.9 425.9L400.5 426.1L398 426.2L395.7 426.3L393.3 426.5L391 426.5L388.7 426.5L386.1 426.4L383.5 426.4L381 426.3L378.4 426.2L375.9 426.1L373.4 426L370.9 425.9L368.4 425.8L365.9 425.6L363.5 425.4L361.1 425.2L358.7 425L356.3 424.8L353.9 424.6L351.5 424.4L349.2 424.2L346.8 424L344.5 423.8L342.2 423.6L339.9 423.4L337.6 423.2L335.3 423L333 422.8L330.4 422.6L327.8 422.3L325.3 422.1L322.7 421.8L320.2 421.6L317.7 421.3L315.2 421.1L312.8 420.8L310.3 420.5L307.9 420.2L305.5 419.8L303.1 419.5L300.7 419.2L298.3 418.9L296 418.6L293.6 418.3L291.3 418L288.9 417.7L286.6 417.3L284.3 416.9L281.8 416.4L279.3 415.9L276.8 415.4L274.3 414.9L271.8 414.5L269.3 414L266.9 413.5L264.4 413L262 412.5L259.6 412L257.2 411.4L254.9 410.8L252.6 410.1L250.3 409.3L248.1 408.5L245.9 407.7L243.7 406.8L241.5 406L239.1 405.1L236.7 404.2L234.3 403.3L231.9 402.3L229.6 401.3L227.3 400.4L225.1 399.4L222.8 398.3L220.6 397.3L218.3 396.3L216.1 395.4L213.9 394.4L211.7 393.5L209.5 392.6L207.4 391.6L205.3 390.6L203 389.6L200.8 388.4L198.6 387.3L196.4 386.1L194.3 384.9L192.1 383.7L189.9 382.6L187.8 381.5L185.6 380.4L183.5 379.4L181.4 378.4L179.4 377.4L177.4 376.4L175.4 375.5L173.5 374.6L171.1 373.4L169 372.4L167 371.4L165.3 370.6L163.6 369.7L161.9 368.8L160.2 367.8L158.3 366.6L156.2 365.2L153.8 363.6L151.1 361.6L149.6 360.4L148 359.2L146.2 357.8L144.3 356.3L142.4 354.7L140.3 353L138.3 351.2L136.3 349.3L134.3 347.3L132.3 345.2L130.3 343.2L128.3 341.1L126.3 339.1L124.3 337.2L122.3 335.3L120.4 333.6L118.6 331.9L116.8 330.3L115.1 328.8L113.5 327.4L112.1 326.2L110.9 325L108 321.8L106.1 319.4L105 317.6L104.2 316.2L103.7 315L103.1 313.6L102.3 312L101 309.5L100 307.1L99.1 304.8L98.4 302.8L97.8 301.3L97.6 300.8L97.1 300.1L96.4 299.6L95.5 299.4L94.7 299.6L93.9 300.1L93.4 300.8L93.3 301.6Z"/>
<path d="M447.9 402.2L446.1 400.7L442.6 399.3L439.8 399.2L437.3 399.4L434.8 399.8L432.3 400L429.9 400.1L428 400.4L427.5 400.6L427.7 400.7L425.1 400.2L419 398.7L417.5 398.3L415.9 397.9L414.2 397.5L412.4 397L410.4 396.5L408.4 396L406.2 395.4L403.9 394.9L401.6 394.3L399.2 393.7L396.7 393.1L394.2 392.5L391.6 391.9L388.9 391.2L386.3 390.6L383.6 389.9L380.8 389.2L378.1 388.6L375.4 387.9L372.6 387.3L369.9 386.6L367.2 385.9L364.5 385.2L361.9 384.5L359.4 383.7L356.9 383L354.4 382.2L352.1 381.4L349.8 380.6L347.5 379.9L345 379.1L342.5 378.4L339.9 377.6L337.4 376.9L334.9 376.1L332.4 375.3L329.9 374.5L327.4 373.7L324.9 372.9L322.5 372.1L320.1 371.2L317.7 370.3L315.3 369.3L313 368.4L310.7 367.5L308.5 366.6L306.2 365.8L304 364.9L301.8 364.1L299.7 363.2L297.6 362.4L295.5 361.6L293.5 360.8L291.6 359.9L289.7 359.1L287.9 358.2L285.1 356.8L282.4 355.4L279.8 354.1L277.3 352.8L274.8 351.6L272.5 350.4L270.3 349.2L268.1 348.1L266.1 347L264.1 345.9L262.1 344.8L260.2 343.7L258.4 342.7L256.5 341.8L254.7 340.9L253 340.1L250.2 338.7L247.7 337.4L245.2 336.1L243 334.7L241 333.3L239.1 332L237.3 330.8L235.7 329.6L234.3 328.5L233.2 327.7L231 325.8L231 325.7L230.7 324.6L230.3 323.1L230.2 321.8L230.4 320.6L230.7 319.7L231.3 318.8L232.6 317.2L233.9 315.7L235.1 314.1L236.5 312.5L238 311.1L240.1 309.7L241.5 309L243.3 308.1L245.4 307.2L247.6 306.3L249.9 305.5L252.3 304.7L254.7 304.1L257 303.5L259.3 303L261.5 302.6L263.7 302.3L266.1 302L268.4 301.9L270.8 301.9L273.1 301.9L275.4 302L277.6 302.2L279.9 302.3L282.2 302.2L285.1 297.8L284.8 298.2L281.3 301.5L282.8 301.8L287.2 302.8L295.4 304.2L296.8 304.4L298.4 304.6L300 304.8L301.8 305.1L303.6 305.4L305.6 305.7L307.6 306.1L309.7 306.6L311.9 307.1L314.2 307.6L316.5 308.1L318.9 308.7L321.4 309.2L323.9 309.8L326.5 310.3L329.1 310.9L331.8 311.5L334.5 312.1L337.3 312.8L340.1 313.4L342.9 314.1L345.8 314.7L348.7 315.2L351.6 315.7L354.6 316.2L357.5 316.6L360.5 317.1L363.4 317.8L366.3 318.5L369.2 319.2L372 320L374.8 320.8L377.7 321.5L380.5 322.2L383.2 322.9L386 323.5L388.7 324.1L391.4 324.7L394 325.3L396.5 325.9L399 326.4L401.5 327L403.8 327.6L406.1 328.2L408.3 328.8L410.5 329.4L412.5 330L414.5 330.5L416.3 331L418.1 331.5L419.8 331.9L421.4 332.2L422.8 332.6L428.9 333.9L432.2 334.7L433.6 335.2L433.6 334.8L433.3 334.8L432.7 335.4L433.2 336.3L435 337.1L438.7 338.6L445 341L446.5 341.6L448 342.1L449.6 342.6L451.3 343.2L453.2 343.7L455.1 344.2L457.1 344.7L459.2 345.3L461.4 345.8L463.7 346.4L466 347L468.4 347.6L470.8 348.3L473.3 348.9L475.9 349.7L478.5 350.5L481.1 351.3L483.8 352.1L486.5 352.9L489.3 353.6L492.1 354.3L494.9 354.9L497.8 355.5L500.8 356.2L503.7 356.9L506.6 357.7L509.5 358.5L512.4 359.4L515.3 360.2L518.2 361L521.1 361.9L524 362.7L526.9 363.6L529.7 364.5L532.5 365.4L535.3 366.4L538.1 367.3L540.8 368.3L543.4 369.2L546.1 370.1L548.7 371L551.2 371.9L553.8 372.7L556.2 373.5L558.6 374.3L560.9 375.1L563.2 375.8L565.4 376.6L567.5 377.3L569.6 377.9L571.6 378.6L573.5 379.2L575.3 379.8L577 380.4L578.6 380.9L580.1 381.4L581.5 381.8L582.7 382.2L593.8 386.1L594.1 381.3L593.1 380.1L587.7 383.8L590.8 389L592 389.5L593.3 389.5L594.5 389L595.5 388.1L596 386.9L596 385.6L595.5 384.4L594.6 383.4L594.2 384.8L593.6 386.2L597.4 385.3L595.7 381.5L584.2 377.7L582.9 377.2L581.5 376.8L579.9 376.2L578.3 375.7L576.6 375.1L574.8 374.4L573 373.8L571 373.1L568.9 372.4L566.8 371.6L564.6 370.8L562.4 370L560 369.2L557.6 368.4L555.2 367.6L552.7 366.7L550.1 365.9L547.5 365L544.8 364.2L542.1 363.3L539.4 362.4L536.7 361.5L533.9 360.6L531.1 359.6L528.2 358.8L525.3 357.9L522.4 357.1L519.5 356.4L516.6 355.7L513.6 354.9L510.7 354.2L507.8 353.4L504.8 352.8L501.9 352.2L499 351.6L496.1 350.9L493.2 350.2L490.4 349.5L487.6 348.7L484.9 348L482.2 347.2L479.5 346.5L476.9 345.8L474.4 345.1L471.9 344.4L469.5 343.7L467.1 343.1L464.8 342.5L462.5 341.9L460.3 341.3L458.3 340.7L456.2 340.2L454.3 339.6L452.5 339.1L450.8 338.6L449.2 338L447.6 337.5L446.3 337L440 334.7L436.4 333.4L435.3 332.9L436.7 335.9L435.1 338.4L437 336.8L435.6 331.6L433.5 330.8L430 329.9L423.9 328.7L422.4 328.4L420.8 328L419.1 327.6L417.3 327.2L415.4 326.7L413.4 326.2L411.4 325.6L409.3 325L407.1 324.4L404.8 323.8L402.4 323.2L400 322.7L397.5 322.1L394.9 321.5L392.3 320.9L389.6 320.3L386.9 319.7L384.2 319L381.4 318.4L378.6 317.6L375.8 316.9L372.9 316.1L370.1 315.4L367.2 314.6L364.3 313.9L361.4 313.2L358.5 312.6L355.5 312.1L352.6 311.5L349.7 311L346.8 310.5L343.9 309.9L341.1 309.2L338.3 308.6L335.5 307.9L332.8 307.3L330.1 306.7L327.5 306.2L324.9 305.6L322.4 305L319.9 304.4L317.5 303.8L315.2 303.2L312.9 302.7L310.7 302.2L308.6 301.8L306.6 301.4L304.6 301.1L302.8 300.8L301 300.5L299.4 300.2L297.8 300L296.4 299.8L288.2 298.3L283.7 297.3L281.7 296.8L280.1 298.1L280.4 298.7L281.2 297.5L279.9 297.5L277.8 297.3L275.5 297.1L273.2 297L270.7 297L268.3 297.1L265.8 297.3L263.3 297.6L260.9 297.9L258.5 298.4L256.1 298.9L253.6 299.5L251 300.2L248.5 301L246.1 301.8L243.7 302.7L241.5 303.7L239.5 304.6L237.7 305.5L235.1 307.3L233 309.2L231.3 311.1L229.9 312.8L228.7 314.3L227.1 316.2L226.2 318L225.7 319.8L225.5 321.9L225.7 323.9L226.2 325.8L226.6 327.3L227.5 328.9L230.1 331.2L231.4 332.2L232.9 333.3L234.5 334.5L236.3 335.8L238.2 337.2L240.4 338.7L242.7 340.1L245.2 341.6L247.8 343L250.6 344.4L252.4 345.3L254.2 346.2L256.1 347.2L258 348.2L259.9 349.3L261.9 350.4L263.9 351.6L266 352.7L268.2 353.9L270.4 355.1L272.8 356.3L275.3 357.5L277.8 358.8L280.5 360.1L283.3 361.4L286.1 362.8L288 363.6L289.9 364.5L291.8 365.3L293.9 366.1L295.9 366.9L298.1 367.7L300.2 368.5L302.4 369.2L304.7 370L307 370.8L309.3 371.7L311.6 372.6L313.9 373.5L316.3 374.3L318.7 375.2L321.1 376.1L323.6 376.9L326 377.8L328.5 378.6L331 379.4L333.5 380.2L336.1 381L338.6 381.7L341.2 382.5L343.7 383.2L346.3 384L348.5 384.6L350.9 385.3L353.3 385.9L355.7 386.6L358.3 387.4L360.8 388.1L363.5 388.8L366.1 389.5L368.8 390.2L371.6 390.9L374.3 391.6L377 392.3L379.7 393L382.4 393.8L385.1 394.5L387.8 395.2L390.4 395.9L393 396.5L395.5 397.2L398 397.9L400.4 398.6L402.7 399.3L404.9 399.9L407.1 400.5L409.2 401.1L411.1 401.6L413 402L414.7 402.5L416.3 402.9L417.8 403.2L423.9 404.8L426.9 405.4L428.4 405.4L428.9 405.2L430.1 405.1L432.6 405L435.3 404.7L437.9 404.3L440.1 404.1L441.6 404L444 404.9L444.9 405.8L445.7 406.2L446.6 406.3L447.5 406.1L448.2 405.5L448.7 404.7L448.8 403.8L448.5 402.9Z"/>
<path d="M709.7 194.5L711 195L712.6 195.7L714.4 196.4L716.4 197.2L718.6 198.1L720.9 199.2L723.3 200.3L725.8 201.5L728.3 202.7L730.9 203.9L733.5 205.2L736.1 206.5L738.6 207.9L740.9 209.3L743.2 210.8L745.3 212.1L747.2 213.5L749.4 215L751.5 216.5L753.6 218.2L755.7 219.8L757.8 221.5L759.9 223.2L761.9 224.9L763.8 226.7L765.7 228.4L767.5 230L769.2 231.6L770.9 233.2L772.4 234.6L773.9 236L775.2 237.3L777.5 239.6L779.2 241.6L780.4 243.1L781.4 244.6L782.4 246L783.4 247.7L784.6 249.6L785.8 251.4L786.9 253.3L787.9 255.4L788.9 257.5L789.8 259.6L790.6 261.6L791.4 263.6L792.1 265.4L793 267.9L793.7 270.2L794.3 272.2L794.8 274.2L795.1 276.4L795.4 278.7L795.4 281L795.3 283.3L795.1 285.6L794.7 288L794.2 290L793.7 292.1L793 294.2L792.3 296.4L791.5 298.5L790.6 300.6L789.7 302.6L788.7 304.6L787.6 306.6L786.4 308.5L785.1 310.4L783.8 312.3L782.4 314.1L781.1 315.7L779.7 317.3L778.1 318.9L776.4 320.7L774.4 322.8L773.2 324.2L772 325.6L770.9 327.1L769.7 328.5L768.4 330L767 331.5L765.4 333.2L763.4 335L761.1 336.9L758.2 338.9L756.8 339.9L755.2 340.9L753.6 342.1L751.8 343.3L750.1 344.5L748.2 345.8L746.3 347.3L744.4 348.7L742.5 350.2L740.5 351.8L738.5 353.3L736.4 354.9L734.3 356.4L732.2 357.9L730 359.3L727.8 360.7L725.6 362L723.4 363.3L721.2 364.6L719.1 365.9L717.1 367.2L715.1 368.4L712.9 369.7L710.7 371.1L708.4 372.4L706 373.8L703.6 375.1L701.1 376.4L698.5 377.7L696 378.9L693.4 380.1L690.9 381.2L688.4 382.3L685.9 383.4L683.6 384.5L681.3 385.5L679.1 386.5L677.1 387.4L675.2 388.3L673.4 389L671.7 389.6L670.1 390L668.8 390.5L667.9 390.9L667 391.6L666.5 392.6L666.3 393.7L666.6 394.8L667.3 395.7L668.3 396.3L669.4 396.4L670.5 396.2L671.3 395.7L672.5 395L673.8 394.1L675.2 393.1L676.9 392.2L678.8 391.3L680.9 390.3L683 389.3L685.3 388.2L687.6 387.1L690.1 386L692.6 384.9L695.2 383.7L697.8 382.6L700.4 381.4L702.9 380.1L705.5 378.8L707.9 377.4L710.3 376L712.6 374.6L714.9 373.3L717.1 371.9L719.1 370.7L721.2 369.4L723.4 368.1L725.6 366.8L727.8 365.5L730 364.2L732.3 362.8L734.5 361.3L736.7 359.9L738.8 358.4L740.9 356.8L742.9 355.3L745 353.8L746.9 352.3L748.9 350.8L750.8 349.5L752.7 348.1L754.5 346.9L756.3 345.7L757.9 344.6L759.5 343.6L761 342.6L764 340.5L766.4 338.5L768.5 336.6L770.3 334.9L771.9 333.3L773.3 331.7L774.5 330.3L775.7 328.9L776.8 327.5L778.1 326.1L780 323.9L781.7 322L783.3 320.2L784.7 318.4L786.1 316.7L787.5 314.8L788.9 312.8L790.2 310.8L791.4 308.8L792.5 306.7L793.5 304.5L794.4 302.3L795.2 300L795.9 297.7L796.6 295.4L797.2 293.1L797.8 290.8L798.2 288.6L798.6 286L798.8 283.4L798.9 280.9L798.9 278.4L798.7 275.9L798.5 273.6L798.1 271.3L797.5 269L796.8 266.6L795.8 264L795.1 262.1L794.3 260.1L793.5 258L792.6 255.8L791.6 253.6L790.6 251.4L789.6 249.3L788.5 247.3L787.4 245.4L786.4 243.7L785.4 242L784.2 240.3L782.7 238.5L780.8 236.4L778.4 234L777 232.7L775.5 231.3L774 229.8L772.3 228.3L770.5 226.7L768.6 225L766.7 223.3L764.7 221.5L762.7 219.8L760.5 218.1L758.4 216.4L756.1 214.7L753.9 213.1L751.6 211.6L749.4 210.1L747.3 208.8L745.1 207.4L742.7 206L740.2 204.7L737.7 203.3L735.1 202.1L732.4 200.8L729.8 199.5L727.3 198.2L724.8 197L722.4 195.8L720.1 194.7L718 193.7L716 192.9L714.2 192.1L712.7 191.5L711.4 190.9L710.7 190.7L709.9 190.8L709.2 191.2L708.8 191.8L708.6 192.6L708.7 193.4L709.1 194Z"/>
<path d="M707.8 223.4L706.8 224.3L705.7 225.3L704.2 226.5L702.5 227.9L700.6 229.4L698.6 231.1L696.4 232.9L694.1 234.9L691.9 236.9L689.6 238.9L687.4 240.9L685.3 242.9L683.3 244.7L681.4 246.5L679.7 248L678.2 249.4L677.1 250.4L673.7 252.8L672.5 253.1L672.3 252.9L670.8 253.2L669.8 253.8L668.8 254.5L668.2 255.6L668.1 256.9L668.4 258L669.2 259L670.3 259.6L671.5 259.7L672.7 259.4L672.9 259.2L673.2 259.1L674.5 258.8L676.7 257.4L680.1 254.4L681.4 253.2L682.9 251.8L684.6 250.2L686.5 248.4L688.5 246.5L690.6 244.5L692.8 242.5L695.1 240.5L697.4 238.5L699.7 236.7L701.9 234.8L704 233.1L705.8 231.6L707.5 230.1L708.9 228.9L710 227.9L711 227L711.5 226.3L711.8 225.4L711.6 224.4L711.2 223.6L710.4 223.1L709.5 222.8L708.6 222.9Z"/>
<path d="M670 255.4L670 257L670.4 258.4L670.5 258.4L670.6 258.6L670.5 261.2L669.9 267.2L669.8 268.7L669.6 270.4L669.4 272.2L669.1 274.3L668.9 276.5L668.7 278.8L668.5 281.3L668.3 283.8L668.1 286.5L667.9 289.2L667.7 292.1L667.4 294.9L667.2 297.8L666.9 300.7L666.7 303.7L666.5 306.6L666.3 309.5L666.1 312.4L665.8 315.2L665.5 317.9L665.3 320.6L665 323.1L664.8 325.6L664.5 327.9L664.3 330.1L664.1 332.2L664 334.1L663.8 335.8L663.6 337.3L663 343.5L662.8 346.9L664 349.5L664.9 350.1L664.2 349.5L664.9 350.3L665.9 350.7L666.9 350.8L667.9 350.5L668.6 349.8L669.1 348.8L669.1 347.8L668.8 346.8L668.1 345.9L667.9 346L667.8 346.1L667.5 343.5L667.7 337.5L667.8 336L667.9 334.4L668 332.5L668.2 330.5L668.4 328.3L668.6 325.9L668.9 323.5L669.1 320.9L669.4 318.3L669.7 315.5L669.9 312.7L670.2 309.9L670.4 307L670.6 304L670.8 301.1L671 298.2L671.3 295.3L671.6 292.4L671.8 289.6L672 286.8L672.2 284.2L672.4 281.6L672.6 279.1L672.8 276.8L673 274.6L673.2 272.6L673.4 270.7L673.7 269L673.8 267.5L674.4 261.4L674.5 258.4L674.2 256.8L673.9 256.5L674 256.7L674 255.3L673.8 254.6L673.4 253.9L672.7 253.5L671.9 253.4L671.2 253.6L670.5 254L670.1 254.7Z"/>
<path d="M393.7 395.5L395.5 395.1L396.9 394.6L398.6 394.1L400.6 393.7L401.9 393.7L403.2 393.7L405.1 394L407.8 394.7L409.4 395.1L411.3 395.8L413.5 396.5L415.7 397.3L418 398.2L420.3 399L422.6 399.8L424.7 400.7L426.5 401.4L428.4 402.4L429.9 403.4L431.4 404.6L433 405.8L435 407.1L437.5 408.4L440.4 409.5L442.5 410L444.6 410.4L446.9 410.7L449.3 411L451.7 411.1L454.2 411.3L456.7 411.4L459.2 411.5L461.6 411.7L464 412L466.2 412.2L468.3 412.6L470.5 413.1L472.6 413.6L474.6 414.2L476.6 414.8L478.7 415.4L480.7 416L482.8 416.7L485 417.4L487.3 418.1L489.8 418.8L492.3 419.5L494.5 420.1L496.7 420.6L499.1 421.1L501.6 421.6L504.2 422L506.8 422.4L509.4 422.8L512 423.2L514.6 423.6L517 423.9L519.3 424.3L521.5 424.6L523.6 424.9L525.4 425.1L529 425.5L531.9 425.6L534.3 425.5L536.4 425.2L538.3 424.8L540.4 424.4L542.8 423.7L545.2 422.9L547.4 422L549.2 421.3L550.7 420.9L551.9 420.9L553.1 421.1L554.6 421.8L556.4 422.7L558.5 423.8L560.7 424.8L563.2 425.6L566 426.1L568.6 426.4L571 426.7L573 427L574.3 427.1L574.1 427.1L575.4 427L576.5 426.4L577.3 425.4L577.6 424.1L577.5 422.9L576.9 421.8L575.9 421L574.7 420.6L574.5 420.6L573.1 420.7L571.2 421.1L569 421.5L566.6 421.7L564.3 421.4L562.5 420.9L560.5 420L558.5 418.9L556.4 417.8L554.3 416.9L552.1 416.5L550 416.5L547.8 417L545.6 417.8L543.5 418.6L541.4 419.3L539.3 419.8L537.3 420.2L535.6 420.5L533.8 420.7L531.8 420.8L529.3 420.7L525.9 420.3L524.2 420L522.3 419.7L520.2 419.3L517.9 418.9L515.5 418.6L513 418.3L510.4 418L507.8 417.6L505.2 417.2L502.7 416.7L500.2 416.1L497.8 415.5L495.6 414.9L493.5 414.4L491 413.7L488.7 413L486.5 412.3L484.4 411.6L482.3 411L480.2 410.3L478.1 409.7L476 409.1L473.8 408.5L471.6 408L469.2 407.5L467 407.1L464.6 406.8L462.1 406.5L459.6 406.3L457.1 406.2L454.6 406L452.1 405.8L449.7 405.6L447.5 405.3L445.4 405L443.4 404.5L441.8 404.1L439.3 403.2L437.5 402.2L435.9 401.1L434.4 400L432.8 398.7L430.8 397.5L428.5 396.3L426.4 395.5L424.2 394.6L421.9 393.7L419.5 392.9L417.1 392.1L414.8 391.4L412.6 390.8L410.7 390.2L409 389.8L406.1 389.1L403.9 388.8L402.1 388.6L400.2 388.6L397.6 388.9L395.5 389.5L394.1 389.8L392.5 390.2L391.5 390.6L390.8 391.4L390.4 392.4L390.4 393.5L390.9 394.4L391.6 395.2L392.6 395.6Z"/>
<path d="M589.4 385.3L588.7 386.6L587.6 388.3L586.4 390.3L585 392.6L583.5 395.1L582 397.7L580.4 400.3L578.8 402.8L577.4 405.3L576.1 407.6L575 409.7L574.1 411.5L572.7 415.4L572.2 418.4L572.5 420.7L572.9 422.6L573.5 424.9L574.6 427L575.9 428.8L576.9 430L577.5 427.3L576.1 430.7L578.5 432.3L584.9 434.9L586.3 435.4L587.8 436.1L589.5 436.8L591.3 437.5L593.3 438.3L595.4 439.1L597.7 439.9L600 440.8L602.5 441.6L605.1 442.5L607.7 443.4L610.4 444.2L613.1 445.1L615.9 446.1L618.7 447.1L621.4 448.1L624.2 449.1L627 450.1L629.8 451.1L632.5 452.2L635.1 453.2L637.8 454.1L640.4 455L642.9 455.8L645.3 456.6L647.6 457.4L649.8 458.1L651.9 458.9L653.8 459.6L655.6 460.3L657.2 460.9L660.9 462.6L663.7 464L665.8 465.2L667.4 466.1L668.7 466.9L669.8 467.7L671.2 468.5L672.7 469.4L674.7 470.3L677.2 471.3L680.3 472.4L682.1 472.9L683.8 473.6L685.7 474.2L687.6 474.9L689.6 475.6L691.6 476.3L693.7 477.1L695.8 477.8L698 478.6L700.3 479.3L702.6 480.1L704.9 480.9L707.3 481.7L709.8 482.5L712.3 483.3L714.8 484.2L717.3 485L719.9 485.8L722.6 486.6L725.3 487.4L728 488.1L730.7 488.8L733.5 489.6L735.6 490.1L737.8 490.7L740.1 491.3L742.4 491.8L744.8 492.4L747.3 493L749.8 493.6L752.3 494.2L754.9 494.8L757.5 495.5L760.1 496.1L762.8 496.8L765.4 497.5L768.1 498.2L770.8 498.9L773.4 499.5L776 500.2L778.7 500.8L781.3 501.3L783.8 501.9L786.4 502.5L788.8 503.1L791.2 503.6L793.6 504.1L795.9 504.6L798.1 505.1L800.2 505.5L802.3 505.8L804.3 506.2L806.1 506.5L807.9 506.8L811.7 507.4L815.1 508L818.2 508.6L820.9 509.1L823.4 509.5L825.6 509.8L827.6 510.1L829.5 510.4L831.3 510.6L833 510.8L834.7 510.9L836.4 511.1L838.2 511.3L841.4 511.4L844.3 511.3L846.8 511.1L849.2 510.7L851.3 510.5L853.3 510.3L855.3 510.4L857.7 510.8L860 511.5L862.2 512.3L864.4 513.2L866.5 514L868.5 514.6L871 514.9L873 515L874.9 514.7L877 514.3L879.1 513.8L881.5 513.2L884 512.4L886.5 511.3L888.8 510L890.8 508.4L892.6 506.6L894.2 504.7L895.7 502.6L897 500.5L898.1 498.5L899.1 496.5L899.9 494.3L900.7 491.8L901.4 488.7L901.8 486.6L902.1 484.2L902.5 481.5L902.8 478.7L903 475.8L903.3 473.1L903.5 470.4L903.6 468L903.6 466L903.4 463L902.9 460.7L902.3 458.8L901.5 457.2L900.6 455.7L899.5 453.9L898.3 452.4L896.7 451L894.7 449.6L893.2 448.5L891.4 447.3L889.5 446.1L887.4 444.8L885 443.6L882.4 442.4L880.8 441.7L879.5 441.1L878.2 440.6L876.8 440L875.1 439.4L872.9 438.7L870 437.8L866.3 436.8L861.5 435.5L860 435.1L858.4 434.8L856.9 434.4L855.3 434L853.7 433.6L852.1 433.3L850.5 432.8L848.8 432.4L847.1 432L845.3 431.4L843.5 430.9L841.6 430.4L839.7 429.8L837.7 429.2L835.7 428.6L833.6 428L831.4 427.3L829.1 426.6L826.8 425.9L824.3 425.2L821.8 424.3L819.1 423.5L816.4 422.6L813.6 421.7L810.6 420.8L807.5 420L804.2 419.2L800.8 418.4L797.3 417.6L793.7 416.8L789.9 415.9L785.9 414.9L784.2 414.5L782.4 414.1L780.5 413.6L778.6 413.1L776.6 412.7L774.5 412.2L772.4 411.7L770.2 411.3L768 410.8L765.7 410.4L763.4 410L761 409.6L758.6 409.1L756.1 408.7L753.6 408.2L751.1 407.7L748.5 407.3L745.9 406.9L743.2 406.4L740.5 405.9L737.8 405.5L735.1 405L732.3 404.5L729.6 403.9L726.8 403.4L724 402.9L721.1 402.3L718.3 401.8L715.4 401.2L712.5 400.7L709.7 400.2L706.8 399.7L703.9 399.1L701 398.6L698.1 398.1L695.2 397.6L692.3 397.1L689.4 396.5L686.5 396L683.6 395.5L680.7 395L677.9 394.5L675.1 394L672.2 393.4L669.4 392.9L666.7 392.4L663.9 391.8L661.2 391.3L658.5 390.7L655.8 390.1L653.2 389.5L650.6 388.8L648.1 388.2L645.5 387.6L643.1 387L640.6 386.5L638.2 386L635.8 385.5L633.5 385L631.2 384.5L629 384L626.8 383.6L624.7 383.2L622.6 382.8L620.5 382.4L618.6 382.1L616.6 381.9L614.8 381.6L613 381.4L611.3 381.1L609.6 380.9L608.1 380.6L606.6 380.4L605.1 380.1L603.8 379.9L591.7 378L586 377.7L583.9 382.6L586.4 384.7L588 385.7L588 384.2L586.6 384.9L584.5 386.4L582.5 388L580.6 389.8L578.8 391.7L577.1 393.7L575.6 395.5L574.1 397.6L572.7 399.7L571.3 401.9L570.1 404L569 406L568.1 407.9L567.2 410.6L566.7 413.1L566.6 415.1L566.4 416.9L566.1 420.1L566.4 422.4L566.9 423.5L567.7 424.3L568.8 424.8L570 424.8L571.1 424.4L572 423.5L572.5 422.4L572.5 421.2L572 419.4L571.3 416.7L571.2 415.2L571.2 413.6L571.5 411.8L572.4 409.5L573.1 407.9L574.1 406L575.3 404L576.5 402L577.9 400L579.2 398.1L580.6 396.5L582.1 394.7L583.8 393L585.5 391.5L587.2 390L589 388.7L591.5 387.1L591.8 383.3L589.3 381L587.7 380L586.6 382.3L591.2 382.6L603.1 384.4L604.4 384.6L605.8 384.8L607.3 384.9L608.9 385.1L610.6 385.4L612.3 385.6L614.1 385.8L615.9 386.1L617.8 386.4L619.8 386.8L621.8 387.2L623.9 387.6L626 388L628.2 388.4L630.4 388.8L632.7 389.2L635 389.7L637.4 390.1L639.8 390.6L642.3 391.1L644.8 391.6L647.3 392.2L649.9 392.8L652.5 393.4L655.1 394L657.8 394.6L660.5 395.1L663.2 395.6L666 396.1L668.8 396.5L671.6 397L674.4 397.5L677.2 398L680.1 398.5L682.9 399L685.8 399.6L688.7 400.1L691.6 400.6L694.5 401.1L697.4 401.6L700.3 402.2L703.2 402.7L706.1 403.3L709 403.8L711.8 404.3L714.7 404.9L717.6 405.3L720.4 405.8L723.3 406.3L726.1 406.8L728.9 407.3L731.7 407.8L734.4 408.3L737.2 408.8L739.9 409.3L742.6 409.7L745.2 410.2L747.8 410.7L750.4 411.3L752.9 411.8L755.4 412.3L757.9 412.7L760.3 413.2L762.7 413.6L765 414.1L767.2 414.6L769.5 415.1L771.6 415.6L773.7 416.1L775.8 416.6L777.7 417.1L779.7 417.6L781.5 418.2L783.3 418.7L785 419.1L788.9 420.2L792.7 421.1L796.3 421.9L799.9 422.7L803.2 423.5L806.5 424.3L809.6 425.1L812.5 425.9L815.4 426.8L818.1 427.6L820.7 428.3L823.3 429.1L825.7 429.7L828.1 430.4L830.4 431L832.6 431.6L834.7 432.1L836.8 432.7L838.7 433.2L840.7 433.7L842.5 434.3L844.3 434.8L846.1 435.3L847.8 435.7L849.5 436.2L851.1 436.6L852.8 437L854.4 437.3L855.9 437.7L857.5 438.1L859 438.4L860.6 438.8L865.3 440.1L869 441.2L871.7 442.1L873.8 442.8L875.4 443.4L876.7 444L877.9 444.5L879.2 445.1L880.9 445.8L883.4 447L885.7 448.2L887.7 449.3L889.5 450.5L891.1 451.6L892.5 452.7L894.3 454.1L895.4 455.1L896.3 456.2L897.2 457.6L897.9 459L898.5 460.3L899 461.6L899.4 463.4L899.5 466L899.5 467.8L899.3 470.1L899.1 472.6L898.8 475.3L898.5 478.1L898.2 480.9L897.8 483.5L897.5 485.8L897.1 487.8L896.5 490.7L895.8 492.9L895.1 494.8L894.2 496.5L893.2 498.3L892 500.2L890.8 502L889.4 503.6L887.8 505.1L886.3 506.3L884.5 507.2L882.4 508L880.1 508.7L877.9 509.3L875.9 509.8L874 510.3L872.6 510.5L871.2 510.6L869.3 510.4L867.7 510L865.8 509.3L863.6 508.4L861.2 507.5L858.5 506.7L855.7 506.2L853.1 506.2L850.8 506.4L848.5 506.7L846.2 507L843.9 507.2L841.3 507.3L838.4 507.1L836.7 507L835 506.9L833.4 506.7L831.7 506.6L830 506.4L828.2 506.2L826.2 505.9L824.1 505.5L821.7 505.1L819 504.6L816 504L812.6 503.4L808.7 502.8L807 502.6L805.1 502.3L803.2 502L801.1 501.6L799 501.2L796.8 500.7L794.5 500.1L792.1 499.6L789.7 499L787.3 498.4L784.8 497.8L782.2 497.2L779.6 496.6L777 496L774.4 495.4L771.7 494.7L769.1 494.1L766.4 493.4L763.7 492.8L761.1 492.2L758.5 491.6L755.8 491.1L753.2 490.5L750.7 489.9L748.2 489.4L745.7 488.8L743.3 488.2L741 487.6L738.8 487.1L736.6 486.6L734.5 486.1L731.7 485.5L728.9 484.8L726.2 484.1L723.6 483.3L720.9 482.5L718.4 481.7L715.8 480.9L713.3 480L710.9 479.2L708.5 478.4L706.1 477.6L703.7 476.8L701.5 476L699.2 475.2L697.1 474.3L695 473.5L692.9 472.7L690.9 472L689 471.2L687.1 470.6L685.2 470L683.4 469.4L681.7 468.9L678.6 467.9L676.3 467L674.6 466.1L673.2 465.3L672 464.6L670.8 463.7L669.4 462.8L667.6 461.7L665.4 460.5L662.4 459L658.6 457.3L657 456.6L655.2 455.9L653.3 455.2L651.2 454.4L649 453.6L646.7 452.7L644.3 451.9L641.8 451L639.2 450.1L636.6 449.2L633.9 448.2L631.2 447.2L628.4 446.1L625.7 445.1L622.9 444L620.1 442.9L617.3 442L614.6 441L611.8 440.1L609.2 439.2L606.5 438.3L604 437.4L601.5 436.6L599.2 435.8L596.9 434.9L594.8 434.1L592.9 433.3L591 432.6L589.3 431.9L587.8 431.3L586.5 430.8L580.2 428.3L579.7 428.3L580.1 430.8L580.7 427.8L579.3 426.1L578.4 424.8L577.8 423.3L577.3 421.6L577 419.9L576.7 418.5L577 416.6L578.3 413.1L579.1 411.6L580.1 409.6L581.3 407.4L582.6 404.9L584 402.3L585.5 399.7L587.1 397.1L588.5 394.7L589.8 392.3L591 390.3L592 388.5L592.7 387.2L592.9 386.5L592.9 385.8L592.6 385.1L592 384.6L591.3 384.4L590.6 384.4L589.9 384.8Z"/>
</g>
</svg>
